<svg width="34" height="31" viewBox="0 0 34 31" fill="none" xmlns="http://www.w3.org/2000/svg">
    <g clip-path="url(#clip0_498_3904)">
        <path
            d="M4.26391 30.0933H28.8445C31.4814 30.0933 33.1162 28.2012 33.1162 25.8572C33.1162 25.1028 32.9087 24.3262 32.4971 23.6106L20.2085 2.12524C19.3977 0.702147 17.9834 0 16.5603 0C15.125 0 13.7141 0.708739 12.9099 2.12524L0.621337 23.6128C0.199707 24.3384 0 25.1028 0 25.8572C0 28.2012 1.63476 30.0933 4.26391 30.0933ZM4.48827 27.509C3.39183 27.509 2.73093 26.6704 2.73093 25.7329C2.73093 25.4084 2.8176 25.0286 3.00096 24.6797L15.0674 3.53514C15.3984 2.94968 15.9927 2.71751 16.5603 2.71751C17.1279 2.71751 17.7078 2.95408 18.0288 3.53733L30.1074 24.6963C30.2908 25.0452 30.3775 25.4106 30.3775 25.7329C30.3775 26.6704 29.7066 27.509 28.6101 27.509H4.48827Z"
            fill="white" fill-opacity="0.85" />
        <path
            d="M16.5525 19.3235C17.2983 19.3235 17.7461 18.8945 17.7693 18.0776L17.9778 10.2297C18.0032 9.41186 17.3913 8.81885 16.5381 8.81885C15.6748 8.81885 15.0852 9.39966 15.1084 10.2175L15.3069 18.0842C15.3301 18.8845 15.77 19.3235 16.5525 19.3235ZM16.5525 24.406C17.477 24.406 18.2478 23.7227 18.2478 22.8113C18.2478 21.8921 17.4871 21.2065 16.5525 21.2065C15.6157 21.2065 14.8506 21.8999 14.8506 22.8113C14.8506 23.7126 15.6279 24.406 16.5525 24.406Z"
            fill="white" fill-opacity="0.85" />
    </g>
    <defs>
        <clipPath id="clip0_498_3904">
            <rect width="33.4702" height="30.2178" fill="white" />
        </clipPath>
    </defs>
</svg>