<svg width="38" height="37" viewBox="0 0 38 37" fill="none" xmlns="http://www.w3.org/2000/svg">
    <g clip-path="url(#clip0_597_10)">
        <path
            d="M1.74706 32.2395H35.7343C36.4775 32.2395 37.0822 31.6347 37.0822 30.9038C37.0822 30.1628 36.4775 29.5559 35.7343 29.5559H1.74706C1.0061 29.5559 0.401367 30.1628 0.401367 30.9038C0.401367 31.6347 1.0061 32.2395 1.74706 32.2395Z"
            fill="white" fill-opacity="0.85" />
        <path
            d="M4.03259 15.7722L30.9039 23.032C34.036 23.8796 37.0382 23.0146 37.4642 20.6892C37.8026 18.5434 35.5248 16.5701 32.6068 15.9875L22.9589 14.0857C22.3241 13.9514 21.9488 13.7239 21.5172 13.0847L13.1495 1.03368C12.8756 0.653312 12.5109 0.399406 12.0773 0.282952L11.0011 0.0200124C10.5568 -0.0952213 10.2011 0.302481 10.3263 0.820056L13.3922 13.6897L14.495 12.4065L5.79897 10.7065L9.00743 12.6924L2.39636 4.98339C2.08923 4.61083 1.7323 4.49218 1.14783 4.60863L0.594362 4.72509C0.140995 4.82152 -0.0672553 5.16283 0.01917 5.58177L1.70716 13.7517C1.92566 14.7754 2.72962 15.4206 4.03259 15.7722Z"
            fill="white" fill-opacity="0.85" />
    </g>
    <defs>
        <clipPath id="clip0_597_10">
            <rect width="37.8574" height="36.185" fill="white" />
        </clipPath>
    </defs>
</svg>
    