<svg width="30" height="25" viewBox="0 0 30 25" fill="none" xmlns="http://www.w3.org/2000/svg">
    <g clip-path="url(#clip0_505_3993)">
        <path
            d="M29.6545 12.0471C29.6545 11.6384 29.4829 11.2388 29.1704 10.9385L18.7505 0.510739C18.3848 0.145018 18.0171 0 17.636 0C16.79 0 16.1675 0.609126 16.1675 1.4265C16.1675 1.84496 16.3279 2.21165 16.6047 2.48411L20.708 6.63524L26.2373 11.7383L26.7114 10.8359L21.5515 10.562H1.50145C0.615717 10.562 0 11.1667 0 12.0471C0 12.9153 0.615717 13.5322 1.50145 13.5322H21.5515L26.7114 13.2461L26.2373 12.3559L20.708 17.4568L16.6047 21.5957C16.3379 21.8704 16.1675 22.2449 16.1675 22.6655C16.1675 23.4807 16.79 24.0898 17.636 24.0898C18.0171 24.0898 18.3747 23.9348 18.7004 23.6313L29.1704 13.1457C29.4829 12.8533 29.6545 12.4558 29.6545 12.0471Z"
            fill="white" fill-opacity="0.85" />
    </g>
    <defs>
        <clipPath id="clip0_505_3993">
            <rect width="30.0085" height="24.1328" fill="white" />
        </clipPath>
    </defs>
</svg>