<svg width="30" height="25" viewBox="0 0 30 25" fill="none" xmlns="http://www.w3.org/2000/svg">
<g clip-path="url(#clip0_498_3832)">
<path d="M0 12.0471C0 12.4558 0.169432 12.8533 0.48193 13.1457L10.9619 23.6313C11.2876 23.9348 11.6352 24.0898 12.0185 24.0898C12.8745 24.0898 13.487 23.4807 13.487 22.6655C13.487 22.2449 13.3244 21.8704 13.0576 21.5957L8.94651 17.4568L3.41721 12.3559L2.9409 13.2461L8.113 13.5322H28.1531C29.0388 13.5322 29.6545 12.9153 29.6545 12.0471C29.6545 11.1667 29.0388 10.562 28.1531 10.562H8.113L2.9409 10.8359L3.41721 11.7383L8.94651 6.63524L13.0576 2.48411C13.3244 2.21165 13.487 1.84496 13.487 1.4265C13.487 0.609126 12.8745 0 12.0185 0C11.6352 0 11.2676 0.145018 10.9019 0.510739L0.48193 10.9385C0.169432 11.2388 0 11.6384 0 12.0471Z" fill="white" fill-opacity="0.85"/>
</g>
<defs>
<clipPath id="clip0_498_3832">
<rect width="30.0085" height="24.1328" fill="white"/>
</clipPath>
</defs>
</svg>
