<svg width="21" height="20" viewBox="0 0 21 20" fill="none" xmlns="http://www.w3.org/2000/svg">
<g clip-path="url(#clip0_352_3053)">
<path d="M11.7521 20C12.4657 20 12.9563 19.46 13.2719 18.6189L19.1826 3.01484C19.3233 2.65139 19.3954 2.32256 19.3954 2.04218C19.3954 1.36375 18.97 0.927612 18.2976 0.927612C18.0128 0.927612 17.6904 1.00722 17.3302 1.14568L1.81732 7.13043C1.04888 7.42811 0.5 7.91963 0.5 8.6431C0.5 9.49457 1.11064 9.85458 1.98885 10.1246L6.45197 11.5126C7.10722 11.7168 7.51201 11.7064 7.99229 11.2668L17.9717 1.98681C18.1055 1.86912 18.2633 1.8795 18.3593 1.97642C18.4588 2.06988 18.4657 2.23602 18.3525 2.36756L9.16896 12.4368C8.76417 12.8868 8.72297 13.3541 8.91508 13.9944L10.2667 18.4458C10.5412 19.3527 10.9014 20 11.7521 20Z" fill="#FFFAE7"/>
</g>
<defs>
<clipPath id="clip0_352_3053">
<rect width="20" height="20" fill="white" transform="translate(0.5)"/>
</clipPath>
</defs>
</svg>
