<svg width="35" height="36" viewBox="0 0 35 36" fill="none" xmlns="http://www.w3.org/2000/svg">
<g clip-path="url(#clip0_416_142)">
<path d="M23.2711 34.2925C23.1647 34.1938 12.7067 24.1973 17.2476 8.12939L17.7527 8.27215C13.3013 24.0233 23.5256 33.8119 23.6292 33.9091L23.2711 34.2925Z" fill="#2B846B"/>
<path d="M17.9572 28.1975C17.9572 28.1975 13.9071 29.2322 12.5176 24.9151C12.5172 24.9151 16.8039 23.9697 17.9572 28.1975Z" fill="#2B846B"/>
<path d="M10.9219 18.9733C10.9219 18.9733 11.0104 23.6741 16.1547 23.1123C16.1547 23.1125 15.8589 18.8846 10.9219 18.9733Z" fill="#2B846B"/>
<path d="M15.4981 17.6337C15.4981 17.6337 11.4367 18.2605 10.8965 12.3288C10.8969 12.3284 15.8306 12.0995 15.4981 17.6337Z" fill="#2B846B"/>
<path d="M15.5154 11.5384C15.5154 11.5384 10.9356 9.52839 13.6264 3.82263C13.6264 3.82252 17.6114 6.51302 15.5154 11.5384Z" fill="#2B846B"/>
<path d="M17.3511 7.68059C17.3511 7.68059 14.7199 3.26067 19.1543 0.866089C19.1547 0.866089 22.1113 3.58635 17.3511 7.68059Z" fill="#2B846B"/>
<path d="M19.6142 27.5699C19.6142 27.5699 18.7318 23.3118 23.6538 22.1959C23.6538 22.1955 24.8374 26.5843 19.6142 27.5699Z" fill="#2B846B"/>
<path d="M18.0906 22.3885C18.0906 22.3885 17.7658 17.9831 22.5254 16.5645C22.5252 16.5645 22.8205 22.5063 18.0906 22.3885Z" fill="#2B846B"/>
<path d="M17.469 17.2443C17.469 17.2443 17.3507 12.1594 22.3174 11.9526C22.3174 11.9526 20.6619 17.7763 17.469 17.2443Z" fill="#2B846B"/>
<path d="M17.942 11.4839C17.942 11.4839 17.7946 7.51806 22.3181 6.77869C22.3181 6.77869 22.2583 11.1928 17.942 11.4839Z" fill="#2B846B"/>
</g>
<defs>
<clipPath id="clip0_416_142">
<rect width="35" height="35" fill="white" transform="translate(0 0.5)"/>
</clipPath>
</defs>
</svg>
