<svg width="28" height="35" viewBox="0 0 28 35" fill="none" xmlns="http://www.w3.org/2000/svg">
    <g clip-path="url(#clip0_537_156)">
        <path
            d="M1.88184 22.862C1.88184 29.928 6.57886 33.9973 12.8174 33.9973C17.6617 33.9973 20.888 31.9196 22.9646 27.573C24.3071 25.1357 25.2981 21.9948 26.1509 19.1174C26.5598 17.8252 27.0962 16.2217 27.1358 15.5012C27.1797 14.5986 26.5693 13.9814 25.6743 13.9375C24.7041 13.8848 24.0579 14.4504 23.4341 15.7634L21.2837 20.5156C21.0549 21.0398 20.7927 21.2175 20.5195 21.2175C20.1885 21.2175 19.9419 21.0198 19.9419 20.4311V4.08887C19.9419 3.13306 19.1843 2.36548 18.2207 2.36548C17.2693 2.36548 16.4973 3.13525 16.4973 4.08887V15.8845C16.0777 15.7246 15.6157 15.5847 15.1194 15.4914V1.72119C15.1194 0.769774 14.3518 0 13.3982 0C12.4346 0 11.677 0.769774 11.677 1.72119V15.3105C11.1651 15.3594 10.6609 15.4138 10.169 15.5027V3.12207C10.169 2.17285 9.40698 1.40869 8.44555 1.40869C7.49634 1.40869 6.72437 2.17285 6.72437 3.12207V16.5535C6.20801 16.7922 5.74609 17.0632 5.32642 17.3442V8.00805C5.32642 7.05444 4.55664 6.28247 3.60743 6.28247C2.65382 6.28247 1.88184 7.05444 1.88184 8.00805V22.862Z"
            fill="white" fill-opacity="0.85" />
    </g>
    <defs>
        <clipPath id="clip0_537_156">
            <rect width="27.138" height="35.0088" fill="white" />
        </clipPath>
    </defs>
</svg>