<svg width="33" height="33" viewBox="0 0 33 33" fill="none" xmlns="http://www.w3.org/2000/svg">
    <g clip-path="url(#clip0_498_3884)">
        <path
            d="M16.0957 32.2014C24.9846 32.2014 32.2014 24.9924 32.2014 16.1057C32.2014 7.21679 24.9846 0 16.0957 0C7.20678 0 0 7.21679 0 16.1057C0 24.9924 7.20678 32.2014 16.0957 32.2014ZM16.0957 29.4189C8.73534 29.4189 2.78245 23.4661 2.78245 16.1057C2.78245 8.74535 8.73534 2.79026 16.0957 2.79026C23.4561 2.79026 29.4089 8.74535 29.4089 16.1057C29.4089 23.4661 23.4561 29.4189 16.0957 29.4189Z"
            fill="white" fill-opacity="0.85" />
        <path
            d="M9.73632 23.0574H22.4651C24.0642 23.0574 24.863 22.2686 24.863 20.6794V12.8999C24.863 11.3108 24.0642 10.5198 22.4651 10.5198H9.73632C8.12499 10.5198 7.32617 11.3108 7.32617 12.8999V20.6794C7.32617 22.2686 8.12499 23.0574 9.73632 23.0574ZM14.8713 17.8894C14.3122 17.8894 13.9839 17.5698 13.9839 17.0051V16.3745C11.8059 16.2258 9.66894 15.8362 7.32617 14.9995V13.6011C10.188 14.7688 13.0344 15.198 16.0957 15.198C19.157 15.198 22.0034 14.7688 24.863 13.6011V14.9995C22.5225 15.8362 20.3833 16.2258 18.2175 16.3745V17.0051C18.2175 17.5698 17.8769 17.8894 17.3201 17.8894H14.8713ZM11.4255 11.1238H12.9126V9.64722C12.9126 9.24171 13.1592 9.00391 13.5991 9.00391H18.6023C19.0422 9.00391 19.2988 9.24171 19.2988 9.64722V11.1238H20.7637V9.58619C20.7637 8.3711 19.9724 7.63306 18.6865 7.63306H13.5149C12.219 7.63306 11.4255 8.3711 11.4255 9.58619V11.1238Z"
            fill="white" fill-opacity="0.85" />
    </g>
    <defs>
        <clipPath id="clip0_498_3884">
            <rect width="32.5554" height="32.2236" fill="white" />
        </clipPath>
    </defs>
</svg>