<svg width="19" height="15" viewBox="0 0 19 15" fill="none" xmlns="http://www.w3.org/2000/svg">
<g clip-path="url(#clip0_416_90)">
<path d="M18.8297 8.98479C18.8297 6.8041 18.0118 4.80091 16.6506 3.24005C16.4735 3.03719 16.1723 3.04001 15.9686 3.23442L14.1557 4.9615C13.9815 5.12773 13.9785 5.35595 14.1232 5.54188C14.8938 6.49981 15.3486 7.69159 15.3486 8.98479C15.3486 10.3034 14.8791 11.5205 14.0553 12.5094C13.9166 12.6813 13.9195 12.8954 14.0789 13.0447L15.9154 14.8C16.1162 14.9944 16.4144 14.9916 16.6034 14.7859C17.9911 13.2194 18.8297 11.1937 18.8297 8.98479Z" fill="#FFFAE7"/>
<path d="M9.41614 3.31893C10.7773 3.31893 12.0351 3.75845 13.039 4.50226C13.225 4.63468 13.4582 4.6206 13.6295 4.45718L15.4395 2.72446C15.6491 2.53006 15.6402 2.23986 15.4188 2.06518C13.7889 0.777611 11.6955 0 9.41614 0C7.13378 0 5.04038 0.777611 3.41349 2.06518C3.1891 2.23986 3.18024 2.53006 3.38692 2.72446L5.19983 4.45718C5.36812 4.6206 5.61614 4.63187 5.80805 4.48817C6.81194 3.75845 8.0609 3.31893 9.41614 3.31893Z" fill="#FFFAE7"/>
<path d="M0 8.98474C0 11.1964 0.841491 13.2306 2.23512 14.7971C2.41523 15 2.71344 14.9943 2.91422 14.7999L4.75074 13.0447C4.90721 12.8953 4.91311 12.6812 4.77436 12.5094C3.95058 11.5204 3.47817 10.3033 3.47817 8.98474C3.47817 7.69155 3.93287 6.49977 4.70645 5.54184C4.84819 5.3559 4.84819 5.12768 4.67398 4.96146L2.85812 3.23437C2.65439 3.03997 2.35027 3.03997 2.16721 3.25409C0.811968 4.80931 0 6.80688 0 8.98474Z" fill="#FFFAE7"/>
<path d="M10.3082 12.1234C10.5592 12.1234 10.8515 12.1008 11.0788 12.036C11.321 11.9571 11.4981 11.8191 11.4981 11.5627C11.4981 11.2613 11.2648 11.1401 10.9519 11.1401C10.7984 11.1401 10.7275 11.157 10.5296 11.157C8.92343 11.157 8.04062 10.4048 8.04062 8.97349C8.04062 7.56476 8.90277 6.78718 10.5296 6.78718C10.7098 6.78718 10.8603 6.80689 10.9607 6.80689C11.2737 6.80689 11.4981 6.67445 11.4981 6.37865C11.4981 6.13072 11.3475 5.98139 11.0788 5.9025C10.8721 5.84051 10.6035 5.8208 10.323 5.8208C8.37427 5.8208 6.82117 6.83505 6.82117 8.97068C6.82117 10.9823 8.20302 12.1234 10.3082 12.1234ZM5.95312 8.39311C5.95312 8.50579 6.0535 8.59876 6.17159 8.59876H10.3112C10.4322 8.59876 10.5296 8.50579 10.5296 8.39311C10.5296 8.28039 10.4322 8.1846 10.3112 8.1846H6.17159C6.0535 8.1846 5.95312 8.28039 5.95312 8.39311ZM5.95312 9.56795C5.95312 9.68349 6.0535 9.77646 6.17159 9.77646H10.3112C10.4322 9.77646 10.5296 9.68349 10.5296 9.56795C10.5296 9.45527 10.4322 9.3623 10.3112 9.3623H6.17159C6.0535 9.3623 5.95312 9.45527 5.95312 9.56795Z" fill="#FFFAE7"/>
</g>
<defs>
<clipPath id="clip0_416_90">
<rect width="19" height="15" fill="white"/>
</clipPath>
</defs>
</svg>
