<svg width="15" height="14" viewBox="0 0 15 14" fill="none" xmlns="http://www.w3.org/2000/svg">
<g clip-path="url(#clip0_416_77)">
<path d="M2.43625 13.9999H12.4002C13.9828 13.9999 14.8392 13.1196 14.8392 11.4965V2.51489C14.8392 0.891789 13.9828 0.0142822 12.4002 0.0142822H2.43625C0.856433 0.0142822 0 0.888923 0 2.51489V11.4965C0 13.1224 0.856433 13.9999 2.43625 13.9999ZM2.53049 12.3051C1.94845 12.3051 1.6408 12.0069 1.6408 11.3731V4.76027C1.6408 4.12653 1.94845 3.83116 2.53049 3.83116H12.3005C12.8797 3.83116 13.1957 4.12653 13.1957 4.76027V11.3731C13.1957 12.0069 12.8797 12.3051 12.3005 12.3051H2.53049ZM6.05877 6.27728H6.47727C6.73502 6.27728 6.81817 6.19699 6.81817 5.93317V5.50299C6.81817 5.23917 6.73502 5.16174 6.47727 5.16174H6.05877C5.80379 5.16174 5.72065 5.23917 5.72065 5.50299V5.93317C5.72065 6.19699 5.80379 6.27728 6.05877 6.27728ZM8.36475 6.27728H8.78602C9.04104 6.27728 9.12419 6.19699 9.12419 5.93317V5.50299C9.12419 5.23917 9.04104 5.16174 8.78602 5.16174H8.36475C8.10977 5.16174 8.02662 5.23917 8.02662 5.50299V5.93317C8.02662 6.19699 8.10977 6.27728 8.36475 6.27728ZM10.6707 6.27728H11.092C11.3442 6.27728 11.4302 6.19699 11.4302 5.93317V5.50299C11.4302 5.23917 11.3442 5.16174 11.092 5.16174H10.6707C10.4185 5.16174 10.3326 5.23917 10.3326 5.50299V5.93317C10.3326 6.19699 10.4185 6.27728 10.6707 6.27728ZM3.75277 8.62305H4.17406C4.42628 8.62305 4.5122 8.54562 4.5122 8.28467V7.84876C4.5122 7.58781 4.42628 7.50751 4.17406 7.50751H3.75277C3.50056 7.50751 3.41187 7.58781 3.41187 7.84876V8.28467C3.41187 8.54562 3.50056 8.62305 3.75277 8.62305ZM6.05877 8.62305H6.47727C6.73502 8.62305 6.81817 8.54562 6.81817 8.28467V7.84876C6.81817 7.58781 6.73502 7.50751 6.47727 7.50751H6.05877C5.80379 7.50751 5.72065 7.58781 5.72065 7.84876V8.28467C5.72065 8.54562 5.80379 8.62305 6.05877 8.62305ZM8.36475 8.62305H8.78602C9.04104 8.62305 9.12419 8.54562 9.12419 8.28467V7.84876C9.12419 7.58781 9.04104 7.50751 8.78602 7.50751H8.36475C8.10977 7.50751 8.02662 7.58781 8.02662 7.84876V8.28467C8.02662 8.54562 8.10977 8.62305 8.36475 8.62305ZM10.6707 8.62305H11.092C11.3442 8.62305 11.4302 8.54562 11.4302 8.28467V7.84876C11.4302 7.58781 11.3442 7.50751 11.092 7.50751H10.6707C10.4185 7.50751 10.3326 7.58781 10.3326 7.84876V8.28467C10.3326 8.54562 10.4185 8.62305 10.6707 8.62305ZM3.75277 10.9746H4.17406C4.42628 10.9746 4.5122 10.8943 4.5122 10.6333V10.1974C4.5122 9.93358 4.42628 9.85615 4.17406 9.85615H3.75277C3.50056 9.85615 3.41187 9.93358 3.41187 10.1974V10.6333C3.41187 10.8943 3.50056 10.9746 3.75277 10.9746ZM6.05877 10.9746H6.47727C6.73502 10.9746 6.81817 10.8943 6.81817 10.6333V10.1974C6.81817 9.93358 6.73502 9.85615 6.47727 9.85615H6.05877C5.80379 9.85615 5.72065 9.93358 5.72065 10.1974V10.6333C5.72065 10.8943 5.80379 10.9746 6.05877 10.9746ZM8.36475 10.9746H8.78602C9.04104 10.9746 9.12419 10.8943 9.12419 10.6333V10.1974C9.12419 9.93358 9.04104 9.85615 8.78602 9.85615H8.36475C8.10977 9.85615 8.02662 9.93358 8.02662 10.1974V10.6333C8.02662 10.8943 8.10977 10.9746 8.36475 10.9746Z" fill="#FFFAE7"/>
</g>
<defs>
<clipPath id="clip0_416_77">
<rect width="15" height="14" fill="white"/>
</clipPath>
</defs>
</svg>
