<svg width="39" height="31" viewBox="0 0 39 31" fill="none" xmlns="http://www.w3.org/2000/svg">
<path d="M28.3247 11.7119C34.0522 11.7019 38.2798 15.6824 38.2798 20.9211C38.2798 26.1167 34.1169 30.164 28.7637 30.164H8.06932C3.18285 30.164 0.260252 27.0022 0.260252 23.0178C0.260252 19.6279 2.45434 16.9641 5.66186 16.0237C6.28588 9.70336 11.4333 4.96557 17.5837 4.96557C22.4082 4.96557 26.2087 7.50293 28.3247 11.7119ZM26.3257 21.6255C26.3257 22.029 26.6206 22.2952 26.9543 22.2952C27.3535 22.2952 27.5132 21.998 27.6152 21.7695C27.7129 21.4419 27.8706 21.2764 28.1372 21.2764C28.4072 21.2764 28.5783 21.4519 28.5783 21.6941C28.5783 22.0527 28.2187 22.4599 27.8535 22.8652L26.5796 24.1804C26.4421 24.3157 26.3457 24.5696 26.3457 24.7536C26.3457 25.0952 26.5874 25.3413 26.9145 25.3413H29.5554C29.8869 25.3413 30.1531 25.063 30.1531 24.7292C30.1531 24.4221 29.8725 24.1316 29.5554 24.1316H28.3059L28.8215 23.5737C29.4463 22.9258 29.9299 22.3298 29.9299 21.6653C29.9299 20.7312 29.1767 20.0522 28.1372 20.0522C27.0256 20.0522 26.3257 20.8965 26.3257 21.6255ZM9.74487 19.5063C9.74487 22.3025 10.8533 24.7971 13.677 24.7971C15.8183 24.7971 17.0896 23.2536 17.1797 21.5537C17.1997 20.9792 16.8581 20.6001 16.3625 20.6001C15.8791 20.6001 15.6352 20.8706 15.5088 21.4106C15.3101 22.3291 14.8115 23.2038 13.677 23.2038C12.0173 23.2038 11.4922 21.4253 11.4922 19.5063C11.4922 17.6682 12.0439 15.8533 13.6648 15.8533C14.7971 15.8533 15.2568 16.7402 15.4612 17.6609C15.5942 18.2109 15.8425 18.4714 16.3215 18.4714C16.8193 18.4714 17.1609 18.0923 17.1409 17.5178C17.0508 15.8157 15.7773 14.2722 13.636 14.2722C10.9431 14.2722 9.74487 16.6536 9.74487 19.5063ZM17.8611 19.5307C17.8611 22.7532 19.3789 24.7971 21.7788 24.7971C24.1543 24.7971 25.6577 22.7532 25.6577 19.5307C25.6577 16.3083 24.1543 14.2722 21.7588 14.2722C19.3789 14.2722 17.8611 16.3083 17.8611 19.5307ZM23.917 19.5307C23.917 21.8506 23.0954 23.2038 21.7788 23.2038C20.4377 23.2038 19.6062 21.8506 19.6062 19.5307C19.6062 17.2209 20.4277 15.8533 21.7588 15.8533C23.0954 15.8533 23.917 17.2209 23.917 19.5307ZM4.4436 12.2981C4.4436 13.543 3.45947 14.5271 2.24121 14.5271C0.98413 14.5271 0 13.543 0 12.2981C0 11.0676 0.98413 10.0935 2.24121 10.0935C3.45947 10.0935 4.4436 11.0676 4.4436 12.2981ZM35.4995 6.56274C35.4995 8.30688 34.1081 9.69042 32.3862 9.69042C30.6321 9.69042 29.2363 8.30688 29.2363 6.56274C29.2363 4.82299 30.6321 3.43725 32.3862 3.43725C34.1081 3.43725 35.4995 4.82299 35.4995 6.56274ZM27.7795 2.09253C27.7795 3.23755 26.832 4.18506 25.687 4.18506C24.5398 4.18506 23.5945 3.23755 23.5945 2.09253C23.5945 0.947509 24.5398 0 25.687 0C26.832 0 27.7795 0.947509 27.7795 2.09253Z" fill="white" fill-opacity="0.85"/>
</svg>
