<svg width="46" height="40" viewBox="0 0 46 40" fill="none" xmlns="http://www.w3.org/2000/svg">
    <g clip-path="url(#clip0_540_214)">
        <path
            d="M38.3362 30.658C39.3616 30.658 40.1733 29.9072 40.1733 28.8574C40.1733 27.7954 39.3616 27.0447 38.3362 27.0447H10.3088C9.13696 27.0447 8.52051 26.4282 8.52051 25.2441V8.97827C8.52051 5.82275 6.89697 4.20532 3.71094 4.20532H1.80664C0.817871 4.20532 0 5.02319 0 6.00586C0 7.00073 0.817871 7.8186 1.80664 7.8186H3.125C4.29688 7.8186 4.91333 8.43506 4.91333 9.61914V25.885C4.91333 29.0466 6.54297 30.658 9.7229 30.658H38.3362ZM32.7942 39.4043C34.4971 39.4043 35.9192 37.9822 35.9192 36.2854C35.9192 34.5703 34.4971 33.1482 32.7942 33.1482C31.1035 33.1482 29.6753 34.5703 29.6753 36.2854C29.6753 37.9822 31.1035 39.4043 32.7942 39.4043ZM15.9119 39.4043C17.6025 39.4043 19.0247 37.9822 19.0247 36.2854C19.0247 34.5703 17.6025 33.1482 15.9119 33.1482C14.2151 33.1482 12.793 34.5703 12.793 36.2854C12.793 37.9822 14.2151 39.4043 15.9119 39.4043Z"
            fill="white" fill-opacity="0.85" />
        <path
            d="M36.3647 24.4324C38.8184 24.4324 40.1733 23.1201 40.1733 20.7458V8.36182C40.1733 5.98145 38.8184 4.67529 36.3647 4.67529H15.0452C12.5916 4.67529 11.2427 5.98145 11.2427 8.36182V20.7458C11.2427 23.1201 12.5916 24.4324 15.0452 24.4324H36.3647ZM36.2183 21.6553H15.1917C14.5386 21.6553 14.1785 21.3135 14.1785 20.7092V8.39844C14.1785 7.78809 14.5386 7.45239 15.1917 7.45239H36.2183C36.8713 7.45239 37.2375 7.78809 37.2375 8.39844V20.7092C37.2375 21.3135 36.8713 21.6553 36.2183 21.6553ZM34.613 23.2117V6.54907H31.7932V23.2117H34.613ZM19.6167 23.2117V6.18896H16.803V23.2117H19.6167ZM32.1594 5.76172V3.44849C32.1594 1.2085 30.8716 0 28.4668 0H22.9492C20.5078 0 19.2566 1.17188 19.2566 3.44849V5.74341H21.8994V3.39355C21.8994 2.72827 22.2839 2.38037 23.0164 2.38037H28.3936C29.1321 2.38037 29.5044 2.72827 29.5044 3.39355V5.76172H32.1594Z"
            fill="white" fill-opacity="0.85" />
    </g>
    <defs>
        <clipPath id="clip0_540_214">
            <rect width="45.3552" height="39.4287" fill="white" />
        </clipPath>
    </defs>
</svg>