<svg width="33" height="33" viewBox="0 0 33 33" fill="none" xmlns="http://www.w3.org/2000/svg">
    <g clip-path="url(#clip0_502_3954)">
        <path
            d="M16.0957 32.2014C24.9846 32.2014 32.2014 24.9924 32.2014 16.1057C32.2014 7.21679 24.9846 0 16.0957 0C7.20678 0 0 7.21679 0 16.1057C0 24.9924 7.20678 32.2014 16.0957 32.2014ZM16.0957 29.4189C8.73534 29.4189 2.78245 23.4661 2.78245 16.1057C2.78245 8.74535 8.73534 2.79026 16.0957 2.79026C23.4561 2.79026 29.4089 8.74535 29.4089 16.1057C29.4089 23.4661 23.4561 29.4189 16.0957 29.4189Z"
            fill="white" fill-opacity="0.85" />
        <path
            d="M7.66943 21.9946C7.66943 22.7375 8.16503 23.2331 8.89794 23.2331H23.6097C24.0862 23.2331 24.482 22.854 24.482 22.363C24.482 21.8821 24.0862 21.4929 23.6097 21.4929H9.44774C9.3867 21.4929 9.41966 21.5159 9.41966 21.4648V9.46777C9.41966 8.99121 9.0305 8.59326 8.53954 8.59326C8.05858 8.59326 7.66943 8.99121 7.66943 9.46777V21.9946ZM9.07396 18.5215L12.3377 15.2436C12.4488 15.1326 12.5276 15.1326 12.6287 15.2436L15.3626 18.0239C15.7354 18.3911 16.1192 18.5664 16.5452 18.5664C16.9812 18.5664 17.385 18.3933 17.73 18.0261L20.7608 14.9443L21.8704 16.0705C22.2618 16.4585 22.847 16.2446 22.9966 15.677L24.0708 11.2959C24.2183 10.7771 23.7505 10.3293 23.2195 10.4668L18.8506 11.5188C18.2952 11.6584 18.0613 12.2715 18.4593 12.6472L19.5567 13.738L16.6929 16.655C16.6018 16.7683 16.523 16.7683 16.4119 16.6672L13.668 13.8547C13.313 13.4853 12.9214 13.3101 12.4854 13.3101C12.0393 13.3101 11.6599 13.4853 11.3028 13.8547L7.88549 17.3174L9.07396 18.5215Z"
            fill="white" fill-opacity="0.85" />
    </g>
    <defs>
        <clipPath id="clip0_502_3954">
            <rect width="32.5554" height="32.2236" fill="white" />
        </clipPath>
    </defs>
</svg>