<svg width="35" height="30" viewBox="0 0 35 30" fill="none" xmlns="http://www.w3.org/2000/svg">
    <path
        d="M33.4494 5.12183L31.2207 14.2876C30.9902 15.1118 30.1897 15.4541 29.5981 14.8726L26.9812 12.2412L20.2724 18.991C19.5671 19.7041 18.8784 20.0369 18.1365 20.0369C17.3923 20.0369 16.6748 19.7063 15.9883 18.9866L10.1748 13.0571C9.99488 12.875 9.82056 12.7861 9.65284 12.7861C9.48511 12.7861 9.3086 12.8772 9.13086 13.0571L2.68359 19.6105V15.7992L7.51905 10.9202C8.24659 10.186 8.91309 9.88208 9.65503 9.88208C10.3992 9.88208 11.1045 10.2004 11.7932 10.9202L17.6167 16.8618C17.7966 17.044 17.9709 17.125 18.1387 17.125C18.3064 17.125 18.4829 17.0339 18.6606 16.864L25.0764 10.3386L22.487 7.73486C21.8933 7.15112 22.2356 6.35718 23.0642 6.13673L32.2256 3.90235C32.9844 3.70631 33.6455 4.34302 33.4494 5.12183Z"
        fill="white" fill-opacity="0.85" />
    <path
        d="M0 28.5249C0 29.2678 0.493407 29.7612 1.23852 29.7612H32.8567C33.6008 29.7612 34.2134 29.1941 34.2134 28.4255C34.2134 27.6548 33.6008 27.0876 32.8567 27.0876H3.0908C2.79002 27.0876 2.68357 26.9812 2.68357 26.6804V1.43285C2.68357 0.698726 2.11644 0.0761719 1.34789 0.0761719C0.577144 0.0761719 0 0.698726 0 1.43285V28.5249Z"
        fill="white" fill-opacity="0.85" />
</svg>
    