<svg width="37" height="36" viewBox="0 0 37 36" fill="none" xmlns="http://www.w3.org/2000/svg">
<g clip-path="url(#clip0_498_3841)">
<path d="M20.6634 1.46164L23.1519 3.93015C23.3929 4.16111 23.6217 4.25217 23.9337 4.25217H27.4322C30.1844 4.25217 31.4432 5.52097 31.4432 8.25314V11.7539C31.4432 12.0737 31.5243 12.3003 31.7552 12.5334L34.2237 15.0219C36.1661 16.9543 36.1783 18.7321 34.2237 20.6745L31.7552 23.153C31.5264 23.394 31.4432 23.6228 31.4432 23.9448V27.4333C31.4432 30.1855 30.1744 31.4443 27.4322 31.4443H23.9337C23.6217 31.4443 23.3951 31.5254 23.1519 31.7663L20.6634 34.2248C18.731 36.1672 16.9532 36.1772 15.0208 34.2248L12.5323 31.7663C12.2992 31.5254 12.0726 31.4443 11.7528 31.4443H8.25204C5.51205 31.4443 4.25107 30.1755 4.25107 27.4333V23.9448C4.25107 23.6228 4.16001 23.394 3.92905 23.153L1.46054 20.6745C-0.481839 18.7321 -0.491849 16.9543 1.46054 15.0219L3.92905 12.5334C4.16001 12.3047 4.25107 12.0737 4.25107 11.7539V8.25314C4.25107 5.49655 5.50986 4.25217 8.25204 4.25217H11.7528C12.0726 4.25217 12.3036 4.16111 12.5323 3.93015L15.0108 1.46604C16.9532 -0.482935 18.7288 -0.492945 20.6634 1.46164ZM22.8722 11.6045L16.0604 22.4272L12.7469 18.3196C12.4032 17.8625 12.0628 17.7041 11.6261 17.7041C10.919 17.7041 10.3673 18.2793 10.3673 18.9863C10.3673 19.3332 10.4959 19.6626 10.7374 19.9773L14.777 24.8418C15.1683 25.3408 15.5872 25.5612 16.1148 25.5612C16.628 25.5612 17.0658 25.3064 17.3817 24.833L24.9542 13.0588C25.1436 12.7551 25.3101 12.4069 25.3101 12.0876C25.3101 11.3706 24.6773 10.8908 23.9947 10.8908C23.5582 10.8908 23.1725 11.1313 22.8722 11.6045Z" fill="white" fill-opacity="0.85"/>
</g>
<defs>
<clipPath id="clip0_498_3841">
<rect width="36.0383" height="35.7109" fill="white"/>
</clipPath>
</defs>
</svg>
