<svg width="12" height="10" viewBox="0 0 12 10" fill="none" xmlns="http://www.w3.org/2000/svg">
<g clip-path="url(#clip0_325_1976)">
<path d="M4.6826 10C5.04572 10 5.32502 9.86803 5.52286 9.59976L11.1648 1.53397C11.3068 1.33492 11.365 1.15102 11.365 0.980095C11.365 0.517092 10.9973 0.186066 10.4899 0.186066C10.1431 0.186066 9.92657 0.300735 9.71709 0.610125L4.65934 8.0225L2.09204 5.0649C1.89653 4.83775 1.6824 4.73822 1.37981 4.73822C0.870081 4.73822 0.5 5.07572 0.5 5.53874C0.5 5.74426 0.569826 5.92817 0.758358 6.13373L3.85633 9.63003C4.08676 9.88536 4.34279 10 4.6826 10Z" fill="#AFE7C9"/>
</g>
<defs>
<clipPath id="clip0_325_1976">
<rect width="11" height="10" fill="white" transform="translate(0.5)"/>
</clipPath>
</defs>
</svg>
