<svg width="20" height="28" viewBox="0 0 20 28" fill="none" xmlns="http://www.w3.org/2000/svg">
    <g clip-path="url(#clip0_525_53)">
        <path
            d="M19.3721 13.6123C19.3677 13.1352 19.1939 12.7478 18.8299 12.3982L6.45896 0.45068C6.15891 0.150634 5.79124 0 5.35277 0C4.47363 0 3.76953 0.679681 3.76953 1.56444C3.76953 1.9907 3.94555 2.39036 4.25097 2.69138L15.5828 13.6079L4.25097 24.521C3.94775 24.8242 3.76953 25.2095 3.76953 25.6501C3.76953 26.5349 4.47363 27.2268 5.35277 27.2268C5.78685 27.2268 6.15891 27.0661 6.45896 26.7739L18.8299 14.8264C19.1961 14.4646 19.3721 14.0749 19.3721 13.6123Z"
            fill="white" fill-opacity="0.85" />
    </g>
    <defs>
        <clipPath id="clip0_525_53">
            <rect width="19.3723" height="27.2368" fill="white" />
        </clipPath>
    </defs>
</svg>