<svg width="21" height="28" viewBox="0 0 21 28" fill="none" xmlns="http://www.w3.org/2000/svg">
    <g clip-path="url(#clip0_524_44)">
        <path
            d="M0 13.6123C0 14.0749 0.173827 14.4646 0.540033 14.8264L12.9109 26.7739C13.2109 27.0661 13.583 27.2268 14.0171 27.2268C14.8984 27.2268 15.6003 26.5349 15.6003 25.6501C15.6003 25.2095 15.4221 24.8242 15.1211 24.521L3.78708 13.6079L15.1211 2.69138C15.4265 2.39036 15.6003 1.9907 15.6003 1.56444C15.6003 0.679681 14.8984 0 14.0171 0C13.5808 0 13.2109 0.150634 12.9109 0.45068L0.540033 12.3982C0.176024 12.7478 0.00219718 13.1352 0 13.6123Z"
            fill="white" fill-opacity="0.85" />
    </g>
    <defs>
        <clipPath id="clip0_524_44">
            <rect width="20.0759" height="27.2368" fill="white" />
        </clipPath>
    </defs>
</svg>