<svg width="11" height="8" viewBox="0 0 11 8" fill="none" xmlns="http://www.w3.org/2000/svg">
<g clip-path="url(#clip0_356_3187)">
<path d="M5.43318 7.50012C5.70042 7.49769 5.9184 7.39342 6.127 7.1727L10.6203 2.38231C10.7844 2.21495 10.8641 2.01363 10.8641 1.77351C10.8641 1.28356 10.4843 0.890625 10.0179 0.890625C9.7882 0.890625 9.57023 0.985219 9.39676 1.16713L5.18944 5.68342H5.68867L1.46729 1.16713C1.29618 0.990071 1.08055 0.890625 0.846154 0.890625C0.377371 0.890625 0 1.28356 0 1.77351C0 2.01121 0.0843811 2.21253 0.241423 2.38474L4.7394 7.17513C4.95503 7.39584 5.1707 7.50012 5.43318 7.50012Z" fill="#0D0D0D"/>
</g>
<defs>
<clipPath id="clip0_356_3187">
<rect width="11" height="7" fill="white" transform="translate(0 0.5)"/>
</clipPath>
</defs>
</svg>
