<svg width="28" height="17" viewBox="0 0 28 17" fill="none" xmlns="http://www.w3.org/2000/svg">
<g clip-path="url(#clip0_506_4044)">
<path d="M13.6245 16.7085C14.1015 16.7063 14.5168 16.5102 14.8686 16.1384L26.7839 3.77537C27.0862 3.47532 27.2468 3.10545 27.2468 2.66918C27.2468 1.78784 26.5549 1.09595 25.6724 1.09595C25.2539 1.09595 24.8464 1.25977 24.5354 1.56518L12.9194 13.6409H14.3484L2.70359 1.56518C2.40257 1.26416 2.00511 1.09595 1.57445 1.09595C0.689691 1.09595 0 1.78784 0 2.66918C0 3.10326 0.17285 3.47313 0.46069 3.78538L12.3804 16.1484C12.7544 16.5124 13.1518 16.7085 13.6245 16.7085Z" fill="white" fill-opacity="0.85"/>
</g>
<defs>
<clipPath id="clip0_506_4044">
<rect width="27.6008" height="16.7085" fill="white"/>
</clipPath>
</defs>
</svg>
