<svg width="33" height="33" viewBox="0 0 33 33" fill="none" xmlns="http://www.w3.org/2000/svg">
<g clip-path="url(#clip0_497_3822)">
<path d="M16.0957 32.2014C24.9846 32.2014 32.2014 24.9924 32.2014 16.1057C32.2014 7.21679 24.9846 0 16.0957 0C7.20678 0 0 7.21679 0 16.1057C0 24.9924 7.20678 32.2014 16.0957 32.2014ZM16.0957 29.4189C8.73534 29.4189 2.78245 23.4661 2.78245 16.1057C2.78245 8.74535 8.73534 2.79026 16.0957 2.79026C23.4561 2.79026 29.4089 8.74535 29.4089 16.1057C29.4089 23.4661 23.4561 29.4189 16.0957 29.4189Z" fill="white" fill-opacity="0.85"/>
<path d="M7.91406 17.9289H16.0833C16.7083 17.9289 17.1914 17.4458 17.1914 16.823V6.23095C17.1914 5.61816 16.7083 5.13501 16.0833 5.13501C15.4805 5.13501 14.9873 5.61816 14.9873 6.23095V15.7248H7.91406C7.28906 15.7248 6.81592 16.2102 6.81592 16.823C6.81592 17.4458 7.28906 17.9289 7.91406 17.9289Z" fill="white" fill-opacity="0.85"/>
</g>
<defs>
<clipPath id="clip0_497_3822">
<rect width="32.5554" height="32.2236" fill="white"/>
</clipPath>
</defs>
</svg>
