<svg width="87" height="86" viewBox="0 0 87 86" fill="none" xmlns="http://www.w3.org/2000/svg">
<path d="M45.998 0.00500488C46.484 0.309771 47.1557 0.1076 47.7323 0.157388C54.8146 0.765413 61.8017 3.29407 67.6629 7.24547L66.4463 8.91113C57.2191 2.92141 46.0659 0.815201 35.2795 3.09642C30.3119 4.14651 25.8349 6.17577 21.4908 8.73008C21.3972 8.71197 20.4493 7.64378 20.3315 7.47782C20.2214 7.32091 20.1097 7.31789 20.2561 7.09158C20.3723 6.91204 22.567 5.62508 22.9534 5.40933C28.5459 2.28774 35.2432 0.365595 41.6206 0.00500488H45.998Z" fill="white" fill-opacity="0.85"/>
<path d="M42.193 38.8235C51.1409 37.9635 59.3749 44.949 59.2918 54.095C59.2496 58.7721 52.7922 60.7637 49.0473 61.3672C43.2149 62.3071 28.1718 61.9677 28.4888 53.3406C28.759 46.0187 34.9069 39.5251 42.1915 38.825L42.193 38.8235Z" fill="white" fill-opacity="0.85"/>
<path d="M21.6646 39.2761C25.1544 38.9382 28.5159 39.937 31.1967 42.1714C29.245 44.4134 27.7023 46.9632 26.9899 49.8796C26.3997 52.2936 26.1054 55.2417 27.3672 57.4822L27.1816 57.7673C23.3869 58.2682 19.0488 58.1521 15.3884 56.9285C10.7212 55.3684 9.61479 52.5908 11.0216 47.9514C12.4133 43.3618 16.8827 39.7408 21.6646 39.2776V39.2761Z" fill="white" fill-opacity="0.85"/>
<path d="M60.3378 57.7884C62.6849 52.5848 60.0676 46.2284 56.5732 42.1714C63.6253 36.1425 74.8193 39.8268 76.8978 48.8567C77.8427 52.965 76.8646 55.1527 72.9068 56.6976C69.0849 58.1898 64.3574 58.3648 60.3393 57.7884H60.3378Z" fill="white" fill-opacity="0.85"/>
<path d="M43.5573 21.316C47.429 21.1712 50.9354 24.2385 51.1362 28.1371C51.4653 34.5522 44.0554 38.3075 39.1256 34.1072C34.1505 29.8676 37.0668 21.5589 43.5573 21.316Z" fill="white" fill-opacity="0.85"/>
<path d="M73.1375 6.98747C80.8175 6.45337 82.5458 17.778 75.1375 19.5493C66.176 21.6917 64.1609 7.61058 73.1375 6.98747Z" fill="white" fill-opacity="0.85"/>
<path d="M13.2058 66.4291C21.9952 65.2266 23.236 78.0886 15.1122 79.0467C6.57331 80.0545 5.46991 67.4867 13.2058 66.4291Z" fill="white" fill-opacity="0.85"/>
<path d="M13.3608 6.98746C22.1095 5.93285 23.0982 18.7255 15.1103 19.6006C6.49894 20.542 5.45894 7.93948 13.3608 6.98746Z" fill="white" fill-opacity="0.85"/>
<path d="M73.2917 66.2797C80.8886 65.9357 82.4811 77.0717 75.109 78.8158C66.0494 80.9582 64.2456 66.69 73.2917 66.2797Z" fill="white" fill-opacity="0.85"/>
<path d="M64.0766 25.0924C72.0615 24.2641 72.9219 36.0972 65.6796 36.9527C57.3249 37.9394 56.303 25.8996 64.0766 25.0924Z" fill="white" fill-opacity="0.85"/>
<path d="M22.416 25.0924C30.3465 24.2686 31.2703 36.0972 24.019 36.9527C15.6627 37.9394 14.6243 25.9011 22.416 25.0924Z" fill="white" fill-opacity="0.85"/>
<path d="M66.5201 77.1049L67.7322 78.9094C64.0884 81.0638 60.3118 83.0237 56.2258 84.2322C44.0688 87.8291 30.6711 85.913 20.1865 78.8309L21.5918 77.2754C24.8311 79.2428 28.1699 80.8919 31.8092 82.0038C43.6763 85.6323 56.1201 83.7313 66.5201 77.1034V77.1049Z" fill="white" fill-opacity="0.85"/>
<path d="M9.76855 20.3776C9.86516 20.5149 8.29082 22.9078 8.08554 23.288C2.74214 33.1491 1.53761 44.4587 4.86591 55.2251C6.00403 58.908 7.7912 62.3886 9.77006 65.6324L7.96176 66.8424C7.52101 65.7667 6.77988 64.8403 6.21988 63.828C-0.275219 52.0854 -0.898615 37.6618 4.61233 25.4017C5.58289 23.2427 6.87799 21.2617 7.96176 19.1676L9.76855 20.3791V20.3776Z" fill="white" fill-opacity="0.85"/>
<path d="M79.5918 19.3214C79.8061 19.2656 79.8348 19.4572 79.9359 19.5659C80.4476 20.109 81.2974 21.7505 81.6974 22.4823C89.2174 36.2692 88.5306 53.6756 79.7261 66.6915L78.1669 65.2839C80.2393 61.9541 81.9374 58.3964 83.0514 54.6201C86.2665 43.7284 84.8371 32.9077 79.5299 22.9862C79.308 22.5713 78.191 20.9675 78.1669 20.7231C78.1291 20.3474 79.3623 19.7092 79.5903 19.3199L79.5918 19.3214Z" fill="white" fill-opacity="0.85"/>
</svg>
