<svg width="33" height="40" viewBox="0 0 33 40" fill="none" xmlns="http://www.w3.org/2000/svg">
    <g clip-path="url(#clip0_509_4076)">
        <path
            d="M22.7417 1.52465L30.9521 9.85596C32.0888 11.0215 32.4724 12.2056 32.4724 14.0427V26.8645C32.4724 30.1326 30.7944 31.835 27.5486 31.835H24.72V29.1514H27.3289C28.9646 29.1514 29.791 28.294 29.791 26.7114V13.3684H22.4492C20.6294 13.3684 19.6619 12.4409 19.6619 10.5811V2.68357H12.906C11.2602 2.68357 10.4338 3.57103 10.4338 5.13353V7.92138H7.75244V4.97045C7.75244 1.70239 9.45263 0 12.6885 0H18.78C20.3965 0 21.6482 0.416746 22.7417 1.52465ZM21.9326 10.2595C21.9326 10.8557 22.1846 11.0977 22.7707 11.0977H29.0554L21.9326 3.88816V10.2595Z"
            fill="white" fill-opacity="0.85" />
        <path
            d="M0 34.7859C0 38.0661 1.68017 39.7563 4.92602 39.7563H19.7961C23.042 39.7563 24.72 38.0539 24.72 34.7859V22.397C24.72 20.4595 24.4739 19.5627 23.2617 18.3406L14.4118 9.37964C13.2541 8.19971 12.2808 7.92139 10.5188 7.92139H4.92602C1.70019 7.92139 0 9.63159 0 12.8896V34.7859ZM2.68357 34.6328V13.0527C2.68357 11.4924 3.50779 10.6028 5.15355 10.6028H10.3428V19.5085C10.3428 21.6179 11.3816 22.6189 13.4531 22.6189H22.0386V34.6328C22.0386 36.2153 21.2122 37.0728 19.5664 37.0728H5.14354C3.50779 37.0728 2.68357 36.2153 2.68357 34.6328ZM13.7126 20.2309C13.0146 20.2309 12.7307 19.947 12.7307 19.249V11.2063L21.6443 20.2309H13.7126Z"
            fill="white" fill-opacity="0.85" />
    </g>

</svg>