<svg width="38" height="27" viewBox="0 0 38 27" fill="none" xmlns="http://www.w3.org/2000/svg">
<g clip-path="url(#clip0_511_4092)">
<path d="M7.22264 21.2505H11.0801C12.0078 21.2505 12.6304 20.6279 12.6304 19.7468V16.8193C12.6304 15.9404 12.0078 15.3179 11.0801 15.3179H7.22264C6.29491 15.3179 5.67235 15.9404 5.67235 16.8193V19.7468C5.67235 20.6279 6.29491 21.2505 7.22264 21.2505ZM1.5493 9.90501H35.4976V6.27269H1.5493V9.90501ZM4.97045 26.9306H32.0364C35.3144 26.9306 37.0168 25.2305 37.0168 21.9946V4.96386C37.0168 1.72802 35.3144 0.0300293 32.0364 0.0300293H4.97045C1.70239 0.0300293 0 1.71801 0 4.96386V21.9946C0 25.2405 1.70239 26.9306 4.97045 26.9306ZM5.13133 24.2371C3.541 24.2371 2.68357 23.4106 2.68357 21.7749V5.18358C2.68357 3.53782 3.541 2.7114 5.13133 2.7114H31.8833C33.4458 2.7114 34.3233 3.53782 34.3233 5.18358V21.7749C34.3233 23.4106 33.4458 24.2371 31.8833 24.2371H5.13133Z" fill="white" fill-opacity="0.85"/>
</g>
<defs>
<clipPath id="clip0_511_4092">
<rect width="37.3708" height="26.9306" fill="white"/>
</clipPath>
</defs>
</svg>
