<svg width="41" height="33" viewBox="0 0 41 33" fill="none" xmlns="http://www.w3.org/2000/svg">
    <g clip-path="url(#clip0_528_80)">
        <path
            d="M6.80175 25.2224L7.30297 27.2339C7.91528 29.7485 9.26928 30.9963 11.8584 30.9963H28.5556C31.1548 30.9963 32.5044 29.7707 33.1211 27.2339L33.6223 25.2224H6.80175ZM6.25317 22.9726H34.1809L36.9924 11.4834L35.2781 10.521L28.6528 15.2129C28.1062 15.5862 27.7029 15.4673 27.3762 15.0095L20.8633 5.52391L19.5708 5.50389L12.9953 15.0532C12.7009 15.4709 12.3476 15.572 11.8389 15.2165L5.26463 10.5713L3.41137 11.4001L6.25317 22.9726ZM3.84325 14.0644C5.95067 14.0644 7.6721 12.343 7.6721 10.2212C7.6721 8.12597 5.95067 6.39233 3.84325 6.39233C1.72143 6.39233 0 8.11376 0 10.2212C0 12.343 1.73364 14.0644 3.84325 14.0644ZM20.207 7.66209C22.3244 7.66209 24.0359 5.95067 24.0359 3.82885C24.0359 1.72143 22.3244 0 20.207 0C18.0852 0 16.3638 1.71142 16.3638 3.82885C16.3638 5.95067 18.0974 7.66209 20.207 7.66209ZM36.5554 14.0644C38.6628 14.0644 40.3964 12.343 40.3964 10.2212C40.3964 8.11376 38.6728 6.39233 36.5554 6.39233C34.4336 6.39233 32.7221 8.12597 32.7221 10.2212C32.7221 12.343 34.4336 14.0644 36.5554 14.0644Z"
            fill="white" fill-opacity="0.85" />
    </g>
    <defs>
        <clipPath id="clip0_528_80">
            <rect width="40.7505" height="32.8398" fill="white" />
        </clipPath>
    </defs>
</svg>