<svg width="16" height="16" viewBox="0 0 16 16" fill="none" xmlns="http://www.w3.org/2000/svg">
<path d="M7.91341 15.4917C12.284 15.4917 15.8298 12.1336 15.8298 7.99722C15.8298 3.85804 12.284 0.5 7.91341 0.5C3.54283 0.5 0 3.85804 0 7.99722C0 12.1336 3.54283 15.4917 7.91341 15.4917ZM7.91341 13.8098C4.52026 13.8098 1.77582 11.2107 1.77582 7.99722C1.77582 4.78373 4.52026 2.1818 7.91341 2.1818C11.3065 2.1818 14.051 4.78373 14.051 7.99722C14.051 11.2107 11.3065 13.8098 7.91341 13.8098Z" fill="#FFFAE7"/>
<path d="M5.10112 8.73108H10.7191C11.1829 8.73108 11.5176 8.44474 11.5176 8.01389C11.5176 7.57748 11.1947 7.28558 10.7191 7.28558H5.10112C4.62855 7.28558 4.30273 7.57748 4.30273 8.01389C4.30273 8.44474 4.63735 8.73108 5.10112 8.73108Z" fill="#FFFAE7"/>
</svg>
