<svg width="33" height="33" viewBox="0 0 33 33" fill="none" xmlns="http://www.w3.org/2000/svg">
<g clip-path="url(#clip0_532_108)">
<path d="M16.0957 32.2014C24.9846 32.2014 32.2014 24.9924 32.2014 16.1057C32.2014 7.21679 24.9846 0 16.0957 0C7.20678 0 0 7.21679 0 16.1057C0 24.9924 7.20678 32.2014 16.0957 32.2014ZM16.0957 29.4189C8.73534 29.4189 2.78245 23.4661 2.78245 16.1057C2.78245 8.74535 8.73534 2.79026 16.0957 2.79026C23.4561 2.79026 29.4089 8.74535 29.4089 16.1057C29.4089 23.4661 23.4561 29.4189 16.0957 29.4189Z" fill="white" fill-opacity="0.85"/>
<path d="M16.0957 18.6313C17.5022 18.6313 18.6313 17.5022 18.6313 16.1057C18.6313 15.2505 18.2087 14.4875 17.5168 14.0117L9.89135 8.65772C9.0581 8.09132 8.23559 8.9104 8.79541 9.76367L13.8906 17.3569C14.3965 18.1277 15.1772 18.6313 16.0957 18.6313Z" fill="white" fill-opacity="0.85"/>
</g>
<defs>
<clipPath id="clip0_532_108">
<rect width="32.5554" height="32.2236" fill="white"/>
</clipPath>
</defs>
</svg>
