<svg width="24" height="17" viewBox="0 0 24 17" fill="none" xmlns="http://www.w3.org/2000/svg">
<g clip-path="url(#clip0_416_104)">
<path d="M10.2168 10.5903C8.89727 11.7501 8.14831 13.2266 8.14831 14.5741C8.14831 15.006 8.23679 15.4212 8.44052 15.7808H2.54209C1.42759 15.7808 1.02539 15.2832 1.02539 14.4186C1.02539 12.2851 3.37412 9.67874 6.8742 9.67874C8.16577 9.67874 9.30054 10.0337 10.2168 10.5903ZM9.68345 5.34632C9.68345 7.09423 8.41849 8.46893 6.88033 8.46893C5.34213 8.46893 4.07413 7.09423 4.07413 5.35569C4.07413 3.66998 5.3544 2.30151 6.88033 2.30151C8.40315 2.30151 9.68345 3.6482 9.68345 5.34632Z" fill="#FFFAE7"/>
<path d="M16.0751 8.29169C17.8466 8.29169 19.2958 6.71485 19.2958 4.7088C19.2958 2.75875 17.8343 1.20679 16.0751 1.20679C14.322 1.20679 12.8575 2.77741 12.8575 4.71813C12.8575 6.71485 14.3097 8.29169 16.0751 8.29169ZM11.0338 15.7778H21.1134C22.2708 15.7778 22.7897 15.3579 22.7897 14.5742C22.7897 12.5184 20.1769 9.70059 16.072 9.70059C11.9702 9.70059 9.35742 12.5184 9.35742 14.5742C9.35742 15.3579 9.87629 15.7778 11.0338 15.7778Z" fill="#FFFAE7"/>
</g>
<defs>
<clipPath id="clip0_416_104">
<rect width="24" height="17" fill="white"/>
</clipPath>
</defs>
</svg>
