<svg width="29" height="40" viewBox="0 0 29 40" fill="none" xmlns="http://www.w3.org/2000/svg">
    <g clip-path="url(#clip0_524_34)">
        <path
            d="M28.0935 16.1621V31.7073C28.0935 34.9331 26.4033 36.6311 23.1252 36.6311H4.97045C1.70239 36.6311 0 34.9531 0 31.7073V16.1621C0 12.9163 1.72241 11.2261 4.99047 11.2261H9.96338V13.9197H5.14134C3.55101 13.9197 2.68357 14.7439 2.68357 16.3818V31.4775C2.68357 33.1233 3.541 33.9497 5.13133 33.9497H22.9622C24.5225 33.9497 25.4121 33.1233 25.4121 31.4775V16.3818C25.4121 14.7439 24.5225 13.9197 22.9622 13.9197H18.1301V11.2261H23.1252C26.4033 11.2261 28.0935 12.9263 28.0935 16.1621Z"
            fill="white" fill-opacity="0.85" />
        <path
            d="M14.0579 3.05396C13.3533 3.05396 12.7793 3.62671 12.7793 4.30811V20.4417L12.8845 22.7566L11.9717 21.7061L9.5161 19.1206C9.29222 18.8701 8.95971 18.7405 8.65063 18.7405C8.01879 18.7405 7.51367 19.2026 7.51367 19.8442C7.51367 20.1833 7.65112 20.4238 7.8872 20.6599L13.0942 25.7173C13.4199 26.0307 13.7178 26.1482 14.0579 26.1482C14.3857 26.1482 14.6836 26.0307 15.0093 25.7173L20.2163 20.6599C20.4546 20.4238 20.5798 20.1833 20.5798 19.8442C20.5798 19.2026 20.0647 18.7405 19.4407 18.7405C19.1316 18.7405 18.8113 18.8701 18.5874 19.1206L16.1218 21.7061L15.229 22.7466L15.3242 20.4417V4.30811C15.3242 3.62671 14.7502 3.05396 14.0579 3.05396Z"
            fill="white" fill-opacity="0.85" />
    </g>
    <defs>
        <clipPath id="clip0_524_34">
            <rect width="28.4475" height="39.2768" fill="white" />
        </clipPath>
    </defs>
</svg>