<svg width="32" height="32" viewBox="0 0 32 32" fill="none" xmlns="http://www.w3.org/2000/svg">
    <path
        d="M20.1298 5.97263H5.11379C3.53122 5.97263 2.6738 6.79905 2.6738 8.44482V26.0656C2.6738 27.7114 3.53122 28.5378 5.11379 28.5378H22.7869C24.3694 28.5378 25.2268 27.7114 25.2268 26.0656V11.1705L27.9082 8.48562V26.2932C27.9082 29.539 26.208 31.2192 22.9399 31.2192H4.96068C1.69261 31.2192 -0.00976562 29.539 -0.00976562 26.2932V8.22732C-0.00976562 4.97924 1.69261 3.29126 4.96068 3.29126H22.8096L20.1298 5.97263Z"
        fill="white" fill-opacity="0.85" />
    <path
        d="M11.0764 20.6545L14.0688 19.3642L28.4968 4.93626L26.312 2.76366L11.8962 17.1916L10.5415 20.1074C10.3953 20.4184 10.7607 20.7841 11.0764 20.6545ZM29.6494 3.8015L30.7026 2.71824C31.2768 2.13402 31.2978 1.35497 30.738 0.801752L30.3779 0.443842C29.8701 -0.0573778 29.0666 0.0190423 28.519 0.566642L27.4646 1.61108L29.6494 3.8015Z"
        fill="white" fill-opacity="0.85" />
</svg>
    