<svg width="39" height="38" viewBox="0 0 39 38" fill="none" xmlns="http://www.w3.org/2000/svg">
<g clip-path="url(#clip0_536_146)">
<path d="M25.1298 7.9726H10.1138C8.53122 7.9726 7.6738 8.79902 7.6738 10.4448V28.0656C7.6738 29.7114 8.53122 30.5378 10.1138 30.5378H27.7869C29.3694 30.5378 30.2268 29.7114 30.2268 28.0656V13.1705L32.9082 10.4856V28.2932C32.9082 31.539 31.208 33.2192 27.9399 33.2192H9.96068C6.69261 33.2192 4.99023 31.539 4.99023 28.2932V10.2273C4.99023 6.97921 6.69261 5.29123 9.96068 5.29123H27.8096L25.1298 7.9726Z" fill="white" fill-opacity="0.85"/>
<path d="M16.0764 22.6545L19.0688 21.3642L33.4968 6.93626L31.312 4.76366L16.8962 19.1916L15.5415 22.1074C15.3953 22.4184 15.7607 22.7841 16.0764 22.6545ZM34.6494 5.8015L35.7026 4.71824C36.2768 4.13402 36.2978 3.35497 35.738 2.80175L35.3779 2.44384C34.8701 1.94262 34.0666 2.01904 33.519 2.56664L32.4646 3.61108L34.6494 5.8015Z" fill="white" fill-opacity="0.85"/>
</g>
<defs>
<clipPath id="clip0_536_146">
<rect width="38.255" height="37.4487" fill="white"/>
</clipPath>
</defs>
</svg>
