<svg width="16" height="14" viewBox="0 0 16 14" fill="#0D0D0D" xmlns="http://www.w3.org/2000/svg">
<path d="M14.8299 11.7708C14.8299 12.1716 14.487 12.5011 14.0694 12.5011H3.87695L5.40684 11.0453H14.0694C14.487 11.0453 14.8299 11.3724 14.8299 11.7708Z" fill="#0D0D0D"/>
<path d="M3.08482 11.8937L10.8856 4.44988L9.51153 3.13916L1.7108 10.5805L1.04054 12.142C0.947736 12.3683 1.19521 12.5945 1.41692 12.5134L3.08482 11.8937ZM11.5738 3.80559L12.3318 3.08752C12.7056 2.73094 12.7236 2.33256 12.3782 2.00058L12.092 1.72516C11.7492 1.39563 11.3212 1.4276 10.95 1.77434L10.1895 2.48995L11.5738 3.80559Z" fill="#0D0D0D"/>
</svg>
