<svg width="45" height="38" viewBox="0 0 45 38" fill="none" xmlns="http://www.w3.org/2000/svg">
    <g clip-path="url(#clip0_540_203)">
        <path
            d="M37.6291 29.3962C38.3733 29.3962 38.9858 28.8291 38.9858 28.0605C38.9858 27.2798 38.3733 26.7126 37.6291 26.7126H9.46897C8.15647 26.7126 7.48923 26.0454 7.48923 24.7129V8.77124C7.48923 5.854 6.08445 4.45923 3.1328 4.45923H1.34569C0.614741 4.45923 0 5.07398 0 5.79492C0 6.52807 0.614741 7.14281 1.34569 7.14281H2.82812C4.14062 7.14281 4.80786 7.81004 4.80786 9.14257V25.0842C4.80786 28.0115 6.22265 29.3962 9.16429 29.3962H37.6291ZM32.0559 37.7402C33.6299 37.7402 34.9465 36.4235 34.9465 34.8596C34.9465 33.2734 33.6299 31.9568 32.0559 31.9568C30.4941 31.9568 29.1753 33.2734 29.1753 34.8596C29.1753 36.4235 30.4941 37.7402 32.0559 37.7402ZM15.1736 37.7402C16.7353 37.7402 18.052 36.4235 18.052 34.8596C18.052 33.2734 16.7353 31.9568 15.1736 31.9568C13.6096 31.9568 12.293 33.2734 12.293 34.8596C12.293 36.4235 13.6096 37.7402 15.1736 37.7402Z"
            fill="white" fill-opacity="0.85" />
        <path
            d="M38.9858 20.6638V8.02587C38.9858 5.76855 37.76 4.59717 35.4038 4.59717H13.8225C11.4585 4.59717 10.2427 5.76855 10.2427 8.02587V20.6638C10.2427 22.9111 11.4585 24.0925 13.8225 24.0925H35.4038C37.76 24.0925 38.9858 22.9111 38.9858 20.6638ZM34.227 24.0925H32.2795V4.59717H34.227V24.0925ZM16.9367 24.0925H14.9992V4.59717H16.9367V24.0925ZM31.0852 5.61474V3.41333C31.0852 1.20068 29.8403 0 27.5215 0H21.7148C19.3437 0 18.1433 1.15625 18.1433 3.41333V5.59253H20.3134V3.32324C20.3134 2.48217 20.8034 2.0288 21.7077 2.0288H27.5185C28.4328 2.0288 28.9028 2.48217 28.9028 3.32324V5.61474H31.0852Z"
            fill="white" fill-opacity="0.85" />
    </g>
    <defs>
        <clipPath id="clip0_540_203">
            <rect width="44.1716" height="37.7646" fill="white" />
        </clipPath>
    </defs>
</svg>