<svg width="33" height="33" viewBox="0 0 33 33" fill="none" xmlns="http://www.w3.org/2000/svg">
    <g clip-path="url(#clip0_522_24)">
        <path
            d="M32.2014 16.1179C32.2014 24.9968 24.9746 32.2236 16.0957 32.2236C7.2268 32.2236 0 24.9968 0 16.1179C0 7.25122 7.2268 0.0222168 16.0957 0.0222168C24.9746 0.0222168 32.2014 7.25122 32.2014 16.1179ZM11.7327 7.40966C11.3945 7.40966 11.1938 7.73559 11.3391 8.07714L14.156 14.2454L10.1706 14.686L8.69335 12.0474C8.54027 11.7822 8.31518 11.6614 7.9912 11.6614H7.61059C7.28905 11.6614 7.06738 11.8708 7.06738 12.1902V20.0688C7.06738 20.3904 7.28905 20.6099 7.61059 20.6099H7.9912C8.31518 20.6099 8.54027 20.479 8.69335 20.2217L10.1706 17.5752L14.156 18.0237L11.3391 24.1919C11.1938 24.5334 11.3945 24.8594 11.7327 24.8594H12.7742C13.0559 24.8594 13.3354 24.7329 13.5351 24.5066L19.1841 18.3789C19.4482 18.1047 19.5693 18.0503 19.9746 18.0503H23.4326C25.1692 18.0503 26.5915 17.2173 26.5915 16.1345C26.5915 15.0539 25.1692 14.2209 23.4326 14.2209H19.9746C19.5693 14.2209 19.4482 14.1643 19.1841 13.8823L13.5351 7.76464C13.3354 7.53832 13.0559 7.40966 12.7742 7.40966H11.7327Z"
            fill="white" fill-opacity="0.85" />
    </g>
    <defs>
        <clipPath id="clip0_522_24">
            <rect width="32.5554" height="32.2236" fill="white" />
        </clipPath>
    </defs>
</svg>