<svg width="33" height="33" viewBox="0 0 33 33" fill="none" xmlns="http://www.w3.org/2000/svg">
    <g clip-path="url(#clip0_505_3976)">
        <path
            d="M16.0957 32.2014C24.9846 32.2014 32.2014 24.9924 32.2014 16.1057C32.2014 7.21679 24.9846 0 16.0957 0C7.20678 0 0 7.21679 0 16.1057C0 24.9924 7.20678 32.2014 16.0957 32.2014ZM16.0957 29.4189C8.73534 29.4189 2.78245 23.4661 2.78245 16.1057C2.78245 8.74535 8.73534 2.79026 16.0957 2.79026C23.4561 2.79026 29.4089 8.74535 29.4089 16.1057C29.4089 23.4661 23.4561 29.4189 16.0957 29.4189Z"
            fill="white" fill-opacity="0.85" />
        <path
            d="M17.99 22.9175C18.438 22.9175 19.0015 22.8943 19.4441 22.779C19.8977 22.6472 20.2427 22.4167 20.2427 21.9412C20.2427 21.417 19.8738 21.1897 19.3575 21.1897C18.9441 21.1897 18.753 21.2419 18.1995 21.2419C14.791 21.2419 12.8181 19.3818 12.8181 16.0447C12.8181 12.7585 14.7132 10.844 18.1783 10.844C18.6773 10.844 19.084 10.8962 19.3662 10.8962C19.8782 10.8962 20.2427 10.6545 20.2427 10.1326C20.2427 9.68921 19.9644 9.42431 19.4441 9.28467C19.0481 9.18164 18.5257 9.15283 17.9988 9.15283C14.0174 9.15283 10.8404 11.4026 10.8404 16.0369C10.8404 20.4338 13.708 22.9175 17.99 22.9175ZM8.80371 14.6958C8.80371 14.9477 9.01685 15.1609 9.2688 15.1609H17.8572C18.1092 15.1609 18.3245 14.9477 18.3245 14.6958C18.3245 14.4438 18.1092 14.2285 17.8572 14.2285H9.2688C9.01685 14.2285 8.80371 14.4438 8.80371 14.6958ZM8.80371 17.3855C8.80371 17.6374 9.01685 17.8528 9.2688 17.8528H17.8572C18.1092 17.8528 18.3245 17.6374 18.3245 17.3855C18.3245 17.1335 18.1092 16.9204 17.8572 16.9204H9.2688C9.01685 16.9204 8.80371 17.1335 8.80371 17.3855Z"
            fill="white" fill-opacity="0.85" />
    </g>
    <defs>
        <clipPath id="clip0_505_3976">
            <rect width="32.5554" height="32.2236" fill="white" />
        </clipPath>
    </defs>
</svg>