<svg width="43" height="30" viewBox="0 0 43 30" fill="none" xmlns="http://www.w3.org/2000/svg">
    <path
        d="M13.7413 11.5497C13.2553 12.607 12.9883 13.7848 12.9883 15.025C12.9883 19.6881 16.7725 23.4723 21.4355 23.4723C22.6791 23.4723 23.8602 23.2031 24.9198 22.7131L29.4168 27.2041C27.0174 28.0771 24.3341 28.6053 21.4294 28.6053C8.70361 28.6053 0 18.1927 0 15.0128C0 13.1737 2.91514 8.91757 7.84598 5.66227L13.7413 11.5497ZM42.8589 15.0128C42.8589 16.8025 40.1559 20.8834 35.4929 24.1093L29.3454 17.966C29.6961 17.0532 29.8828 16.0608 29.8828 15.025C29.8828 10.3558 26.0986 6.5716 21.4355 6.5716C20.3961 6.5716 19.4003 6.75963 18.4848 7.11263L14.0214 2.65231C16.2774 1.88317 18.7657 1.42633 21.4294 1.42633C34.3079 1.42633 42.8589 11.8329 42.8589 15.0128ZM22.2638 20.0607C21.9956 20.1107 21.7183 20.1336 21.4355 20.1336C18.6096 20.1336 16.3269 17.8448 16.3269 15.025C16.3269 14.7446 16.3494 14.4695 16.3986 14.2034L22.2638 20.0607ZM26.5442 15.025L26.5374 15.1598L21.2915 9.91747C21.3384 9.91087 21.3869 9.91017 21.4355 9.91017C24.2615 9.91017 26.5442 12.1991 26.5442 15.025Z"
        fill="white" fill-opacity="0.85" />
    <path
        d="M34.3079 29.2584C34.7961 29.7467 35.5713 29.765 36.0596 29.2584C36.5601 28.7457 36.5417 27.995 36.0596 27.5067L8.90503 0.370453C8.42285 -0.111717 7.62329 -0.117827 7.13501 0.370453C6.67114 0.834323 6.67114 1.65219 7.13501 2.12216L34.3079 29.2584Z"
        fill="white" fill-opacity="0.85" />
</svg>