<svg width="43" height="28" viewBox="0 0 43 28" fill="none" xmlns="http://www.w3.org/2000/svg">
    <path
        d="M21.4294 27.179C34.3262 27.179 42.8589 16.7664 42.8589 13.5864C42.8589 10.4065 34.3079 0 21.4294 0C8.71582 0 0 10.4065 0 13.5864C0 16.7664 8.70361 27.179 21.4294 27.179ZM21.4355 22.0459C16.7725 22.0459 12.9883 18.2617 12.9883 13.5986C12.9883 8.92944 16.7725 5.14526 21.4355 5.14526C26.0986 5.14526 29.8828 8.92944 29.8828 13.5986C29.8828 18.2617 26.0986 22.0459 21.4355 22.0459ZM21.4355 16.8213C23.2239 16.8213 24.6704 15.387 24.6704 13.5986C24.6704 11.8103 23.2239 10.3638 21.4355 10.3638C19.6472 10.3638 18.2007 11.8103 18.2007 13.5986C18.2007 15.387 19.6472 16.8213 21.4355 16.8213Z"
        fill="white" fill-opacity="0.85" />
</svg>