<svg width="14" height="18" viewBox="0 0 14 18" fill="none" xmlns="http://www.w3.org/2000/svg">
    <path
        d="M0 1.99509C0 0.893231 0.895857 0 1.99739 0H9L11 2.00019L14 5.00246V15.9976C14 17.1035 13.1029 18 11.9941 18H2.00586C0.898054 18 0 17.1074 0 16.0049V1.99509ZM9.99932 6.00049C8.89188 5.99995 8 5.10521 8 4.00019V1H1.99739C1.44721 1 1 1.44645 1 1.99509V16.0049C1 16.5536 1.44888 17 2.00586 17H11.9941C12.5506 17 13 16.5513 13 15.9976V6.00196L9.99932 6.00049ZM2 8.5C2 8.22386 2.21484 8 2.4977 8H6.5023C6.77717 8 7 8.23193 7 8.5C7 8.77614 6.78516 9 6.5023 9H2.4977C2.22283 9 2 8.76807 2 8.5ZM2 11.5C2 11.2239 2.22247 11 2.50967 11H10.4903C10.7718 11 11 11.2319 11 11.5C11 11.7761 10.7775 12 10.4903 12H2.50967C2.22819 12 2 11.7681 2 11.5ZM2 14.5C2 14.2239 2.22247 14 2.50967 14H10.4903C10.7718 14 11 14.2319 11 14.5C11 14.7761 10.7775 15 10.4903 15H2.50967C2.22819 15 2 14.7681 2 14.5Z"
        fill="white" fill-opacity="0.85" />
</svg>