<svg width="30" height="29" viewBox="0 0 30 29" fill="none" xmlns="http://www.w3.org/2000/svg">
<g clip-path="url(#clip0_500_3914)">
<path d="M27.1389 1.87695C28.6833 3.40918 28.9914 5.52636 28.9914 8.44042V20.541C28.9914 23.4673 28.6833 25.5723 27.1389 27.1167C25.5945 28.6611 23.4507 28.9914 20.541 28.9914H8.45043C5.54077 28.9914 3.40918 28.6611 1.85254 27.1167C0.308104 25.5845 0 23.4673 0 20.541V8.38036C0 5.53637 0.318114 3.42138 1.86255 1.87695C3.40698 0.332518 5.55078 0 8.38036 0H20.541C23.4507 0 25.5823 0.332518 27.1389 1.87695ZM12.3359 20.939C12.3359 21.8801 13.1465 22.6001 14.1108 22.6001C15.083 22.6001 15.8747 21.8901 15.8747 20.939C15.8747 19.9844 15.093 19.2678 14.1108 19.2678C13.1365 19.2678 12.3359 19.9922 12.3359 20.939ZM9.58472 9.15063C9.50049 9.41235 9.44287 9.67187 9.44287 9.9624C9.44287 10.6575 9.99829 11.1016 10.593 11.1016C11.1296 11.1016 11.4997 10.8552 11.769 10.4617L11.9756 10.1506C12.4526 9.16893 13.3191 8.5554 14.4556 8.5554C15.8831 8.5554 16.8337 9.37718 16.8337 10.5425C16.8337 11.5906 16.1758 12.1313 14.7583 13.1182C13.5708 13.9539 12.7773 14.783 12.7773 16.2363C12.7773 16.3208 12.7773 16.4031 12.7773 16.4875C12.7773 17.3123 13.2681 17.739 14.1387 17.739C14.9267 17.739 15.4375 17.2754 15.4704 16.6621C15.4748 16.5789 15.477 16.4878 15.4792 16.4111C15.5188 15.5261 16.0654 14.9612 17.1714 14.2283C18.7912 13.1619 19.7671 12.2241 19.7671 10.3997C19.7671 7.81347 17.4397 6.28735 14.6201 6.28735C11.8794 6.28735 10.0413 7.60059 9.58472 9.15063Z" fill="white" fill-opacity="0.85"/>
</g>
<defs>
<clipPath id="clip0_500_3914">
<rect width="29.3454" height="29.0058" fill="white"/>
</clipPath>
</defs>
</svg>
