<svg width="32" height="16" viewBox="0 0 32 16" fill="none" xmlns="http://www.w3.org/2000/svg">
<path d="M1.5 9C0.947715 9 0.5 8.55228 0.5 8C0.5 7.44772 0.947715 7 1.5 7L1.5 9ZM31.2071 7.2929C31.5976 7.68342 31.5976 8.31659 31.2071 8.70711L24.8431 15.0711C24.4526 15.4616 23.8195 15.4616 23.4289 15.0711C23.0384 14.6805 23.0384 14.0474 23.4289 13.6569L29.0858 8L23.4289 2.34315C23.0384 1.95262 23.0384 1.31946 23.4289 0.928934C23.8195 0.53841 24.4526 0.53841 24.8431 0.928934L31.2071 7.2929ZM1.5 7L30.5 7L30.5 9L1.5 9L1.5 7Z" fill="#FFFAE7"/>
</svg>
