<svg width="12" height="13" viewBox="0 0 12 13" fill="none" xmlns="http://www.w3.org/2000/svg">
<path d="M11.8216 9.39147V1.56432C11.8216 0.943216 11.4082 0.51809 10.7836 0.51809H3.06022C2.47732 0.51809 2.0461 0.964321 2.0461 1.50101C2.0461 2.03166 2.49517 2.45075 3.04832 2.45075H6.0104L8.73753 2.35729L7.39626 3.57236L0.327137 10.7482C0.115985 10.9653 0 11.2246 0 11.4839C0 12.0055 0.475836 12.5 1.00223 12.5C1.26097 12.5 1.51078 12.3824 1.72491 12.1683L8.79999 4.99548L10.0074 3.63568L9.90631 6.25577V9.40352C9.90631 9.96731 10.3167 10.4226 10.8491 10.4226C11.3844 10.4226 11.8216 9.97033 11.8216 9.39147Z" fill="#FFFAE7"/>
</svg>
