<svg width="32" height="16" viewBox="0 0 32 16" fill="none" xmlns="http://www.w3.org/2000/svg">
<path d="M30.5 9C31.0523 9 31.5 8.55228 31.5 8C31.5 7.44772 31.0523 7 30.5 7L30.5 9ZM0.792892 7.2929C0.402369 7.68342 0.402369 8.31659 0.792893 8.70711L7.15686 15.0711C7.54738 15.4616 8.18054 15.4616 8.57107 15.0711C8.96159 14.6805 8.96159 14.0474 8.57107 13.6569L2.91421 8L8.57107 2.34315C8.96159 1.95262 8.96159 1.31946 8.57107 0.928934C8.18054 0.53841 7.54738 0.53841 7.15685 0.928934L0.792892 7.2929ZM30.5 7L1.5 7L1.5 9L30.5 9L30.5 7Z" fill="#F2DBAF"/>
</svg>
