<svg width="20" height="20" viewBox="0 0 20 20" fill="none" xmlns="http://www.w3.org/2000/svg">
<g clip-path="url(#clip0_387_51)">
<path d="M10.2387 16.7113C11.877 16.7113 13.2608 14.1655 13.6232 13.5704C14.0729 12.8239 13.8638 12.0845 13.8638 11.6479C13.8638 11.338 14.7909 10.6761 14.7909 9.89085C14.7909 9.15138 12.975 8.54223 12.975 8.05982C12.975 7.80985 13.1876 7.53519 13.3897 7.53519C13.7836 7.53519 14.7735 8.87677 15.2998 8.87677C15.6484 8.87677 15.617 8.5 15.8192 8.5C16.241 8.5 16.3873 11.0563 17.9489 11.9014C18.3986 11.5387 18.7645 10.8662 18.7645 10C18.7645 5.13732 14.8014 1.02465 9.89021 1.03873C7.40847 1.04225 6.26168 1.96831 6.26168 3.10916C6.26168 4.40141 5.32058 4.69718 5.32058 5.46126C5.32058 5.89084 5.61685 6.16901 6.08044 6.16901C7.01111 6.16901 7.20631 5.10563 7.71868 5.10563C8.07069 5.11267 8.37394 5.65493 8.9979 5.65493C9.25231 5.65493 9.41267 5.5176 9.44751 5.25704C9.4824 5.12676 9.54511 5.05633 9.66012 5.05633C10.2353 5.05633 10.8069 5.7183 10.8069 6.05985C10.8069 6.40493 10.664 6.67959 10.4305 6.67959C10.0959 6.67959 9.11988 6.25704 8.23802 6.25704C6.22685 6.25704 4.59209 7.65138 4.59209 9.33449C4.59209 10.8204 5.47046 11.6901 6.97273 11.6901C7.8546 11.6901 8.49946 12.2852 8.49946 13.1021C8.49946 14.4155 8.35652 16.7113 10.2387 16.7113ZM12.5846 4.77816C12.3092 4.77816 12.1942 4.92957 11.884 4.92957C11.5842 4.92957 11.3611 4.71126 11.3611 4.40845C11.3611 3.96127 11.7864 3.70422 12.5253 3.70422C13.1527 3.70422 13.6232 4.04577 13.6232 4.47887C13.6232 4.74647 13.449 4.95422 13.2294 4.95422C12.8913 4.95422 12.7449 4.77816 12.5846 4.77816ZM9.89718 19.4894C15.0872 19.4894 19.2978 15.2359 19.2978 9.99648C19.2978 4.75352 15.0872 0.5 9.89718 0.5C4.70711 0.5 0.5 4.75352 0.5 9.99648C0.5 15.2359 4.70711 19.4894 9.89718 19.4894ZM9.89718 17.8274C5.61685 17.8274 2.1452 14.3169 2.1452 9.99648C2.1452 5.66901 5.61685 2.15845 9.89718 2.15845C14.181 2.15845 17.6526 5.66901 17.6526 9.99648C17.6526 14.3169 14.181 17.8274 9.89718 17.8274Z" fill="#FFFAE7"/>
</g>
<defs>
<clipPath id="clip0_387_51">
<rect width="19" height="19" fill="white" transform="translate(0.5 0.5)"/>
</clipPath>
</defs>
</svg>
