<svg width="58" height="69" viewBox="0 0 58 69" fill="none" xmlns="http://www.w3.org/2000/svg">
<path d="M56.8114 0.799988C56.9726 1.03579 56.9485 1.30123 56.9584 1.56951C57.5282 17.8423 56.2034 43.8732 42.6748 55.0927C35.9261 60.6897 27.4199 61.9661 18.8656 60.9311C16.2031 60.6092 13.5902 59.9103 10.9603 59.4175L1.81492 68.5091C0.798299 69.3535 -0.397891 68.2041 0.24545 67.0845L14.5361 52.8335L26.1997 52.7601C26.5871 52.7855 26.5758 53.2289 26.7723 53.459C28.6755 55.6885 32.2089 54.511 32.0731 51.5571C31.9233 48.3026 27.6094 47.8027 26.3396 50.6436H16.937L17.1476 50.2186L32.1651 35.2815L43.8484 35.2462C45.1308 38.2155 49.6201 37.5519 49.6102 34.1928C49.6003 31.0357 45.1238 30.1716 43.8724 33.1339H34.4698L34.6804 32.7089L46.1277 21.2663C46.8134 20.1834 45.8887 19.1385 44.7378 19.7386L24.4308 39.9833L24.0052 40.1937V30.8041C27.1385 29.3781 26.0342 24.6692 22.5319 25.0984C19.5966 25.4585 19.0762 29.5263 21.7443 30.6615L21.8843 30.9453L21.8546 42.4952L7.60216 56.7856L7.24585 56.859C5.39076 44.1528 6.06662 30.1349 16.0829 20.9204C22.4994 15.0184 27.3138 15.2316 35.3436 13.6093C43.3733 11.9869 52.1015 8.36809 56.67 0.799988H56.8114Z" fill="white" fill-opacity="0.85"/>
</svg>
