<svg width="36" height="30" viewBox="0 0 36 30" fill="none" xmlns="http://www.w3.org/2000/svg">
    <g clip-path="url(#clip0_502_3943)">
        <path
            d="M3.58031 29.7426H31.1665C33.5349 29.7426 34.749 28.5786 34.749 26.1823V19.7124C34.749 17.3183 33.5349 16.1543 31.1665 16.1543H3.58031C1.21411 16.1543 0 17.3183 0 19.7124V26.1823C0 28.5786 1.21411 29.7426 3.58031 29.7426ZM3.90159 27.1701C3.02659 27.1701 2.57249 26.7361 2.57249 25.8288V20.0781C2.57249 19.1587 3.02659 18.7268 3.90159 18.7268H30.8352C31.7224 18.7268 32.1765 19.1587 32.1765 20.0781V25.8288C32.1765 26.7361 31.7224 27.1701 30.8352 27.1701H3.90159Z"
            fill="white" fill-opacity="0.85" />
        <path
            d="M3.58031 13.6106H31.1665C33.5349 13.6106 34.749 12.4587 34.749 10.0525V3.58251C34.749 1.18627 33.5349 0.0344238 31.1665 0.0344238H3.58031C1.21411 0.0344238 0 1.18627 0 3.58251V10.0525C0 12.4587 1.21411 13.6106 3.58031 13.6106ZM3.90159 11.0381C3.02659 11.0381 2.57249 10.6062 2.57249 9.69897V3.94822C2.57249 3.02879 3.02659 2.60691 3.90159 2.60691H30.8352C31.7224 2.60691 32.1765 3.02879 32.1765 3.94822V9.69897C32.1765 10.6062 31.7224 11.0381 30.8352 11.0381H3.90159Z"
            fill="white" fill-opacity="0.85" />
    </g>
    <defs>
        <clipPath id="clip0_502_3943">
            <rect width="35.103" height="29.7426" fill="white" />
        </clipPath>
    </defs>
</svg>