<svg width="33" height="33" viewBox="0 0 33 33" fill="none" xmlns="http://www.w3.org/2000/svg">
    <g clip-path="url(#clip0_505_4003)">
        <path
            d="M16.0957 32.2014C24.9846 32.2014 32.2014 24.9924 32.2014 16.1057C32.2014 7.21679 24.9846 0 16.0957 0C7.20678 0 0 7.21679 0 16.1057C0 24.9924 7.20678 32.2014 16.0957 32.2014ZM16.0957 29.4189C8.73534 29.4189 2.78245 23.4661 2.78245 16.1057C2.78245 8.74535 8.73534 2.79026 16.0957 2.79026C23.4561 2.79026 29.4089 8.74535 29.4089 16.1057C29.4089 23.4661 23.4561 29.4189 16.0957 29.4189Z"
            fill="white" fill-opacity="0.85" />
        <path
            d="M15.7541 19.2449C16.519 19.2449 16.9988 18.7957 17.0295 18.2134C17.0317 18.1345 17.0339 18.0413 17.0383 17.9646C17.0713 17.1062 17.6091 16.5601 18.6785 15.8437C20.2563 14.8083 21.1911 13.9016 21.1911 12.1392C21.1911 9.6438 18.939 8.17188 16.219 8.17188C13.5735 8.17188 11.7996 9.44189 11.364 10.9421C11.2798 11.2017 11.2344 11.4468 11.2344 11.7207C11.2344 12.3926 11.7488 12.8157 12.3181 12.8157C12.8359 12.8157 13.1894 12.5837 13.4543 12.199L13.6587 11.8979C14.0991 10.9529 14.9534 10.3337 16.0632 10.3337C17.4719 10.3337 18.386 11.1389 18.386 12.2776C18.386 13.2969 17.7568 13.8232 16.3726 14.779C15.2161 15.5837 14.4536 16.394 14.4536 17.7964C14.4536 17.8809 14.4536 17.9631 14.4536 18.0454C14.4536 18.8347 14.9233 19.2449 15.7541 19.2449ZM15.7341 23.9499C16.6587 23.9499 17.4294 23.2588 17.4294 22.3452C17.4294 21.426 16.6709 20.7405 15.7341 20.7405C14.7895 20.7405 14.0344 21.4338 14.0344 22.3452C14.0344 23.2466 14.7996 23.9499 15.7341 23.9499Z"
            fill="white" fill-opacity="0.85" />
    </g>
    <defs>
        <clipPath id="clip0_505_4003">
            <rect width="32.5554" height="32.2236" fill="white" />
        </clipPath>
    </defs>
</svg>