<svg width="39" height="34" viewBox="0 0 39 34" fill="none" xmlns="http://www.w3.org/2000/svg">
    <g clip-path="url(#clip0_521_15)">
        <path
            d="M14.3201 31.3755H23.3611V21.335C23.3611 20.6316 22.9084 20.1811 22.2073 20.1811H15.4861C14.7849 20.1811 14.3201 20.6316 14.3201 21.335V31.3755ZM1.40795 16.8542C1.82689 16.8542 2.20457 16.6369 2.53026 16.3567L18.1672 3.23557C18.3767 3.05491 18.6128 2.96848 18.8345 2.96848C19.0683 2.96848 19.3022 3.05491 19.5139 3.23557L35.1509 16.3567C35.4765 16.6369 35.842 16.8542 36.2732 16.8542C37.1406 16.8542 37.6811 16.2436 37.6811 15.5505C37.6811 15.1528 37.5029 14.7541 37.1362 14.4451L20.8791 0.806881C20.2407 0.267088 19.5415 0 18.8345 0C18.1396 0 17.4404 0.267088 16.802 0.806881L0.544918 14.4451C0.176024 14.7541 0 15.1528 0 15.5505C0 16.2436 0.530513 16.8542 1.40795 16.8542ZM29.0076 8.43702L33.0754 11.8555V4.6438C33.0754 4.00049 32.6528 3.59009 32.0117 3.59009H30.0857C29.4424 3.59009 29.0076 4.00049 29.0076 4.6438V8.43702ZM8.20775 33.3271H29.4734C31.7602 33.3271 33.0754 32.0242 33.0754 29.8003V12.3162L30.3918 10.4609V29.0139C30.3918 30.083 29.8391 30.6457 28.7722 30.6457H8.8989C7.83982 30.6457 7.28928 30.083 7.28928 29.0139V10.481L4.60571 12.3162V29.8003C4.60571 32.0342 5.92089 33.3271 8.20775 33.3271Z"
            fill="white" fill-opacity="0.85" />
    </g>
    <defs>
        <clipPath id="clip0_521_15">
            <rect width="38.0351" height="33.3515" fill="white" />
        </clipPath>
    </defs>
</svg>