<svg width="78" height="78" viewBox="0 0 78 78" fill="none" xmlns="http://www.w3.org/2000/svg">
<circle cx="38.5" cy="38.5" r="37.5" fill="#0D0D0D"/>
<path d="M77.2201 36.4771C77.2406 35.3709 77.1996 34.2646 77.0357 33.1583C76.6055 30.0649 75.7861 27.074 74.6184 24.1854C73.717 21.932 72.6312 19.8014 71.3201 17.7733C68.6774 13.717 65.3996 10.2549 61.5073 7.40731C59.8479 6.17814 58.0656 5.11286 56.2218 4.1705C52.5139 2.24481 48.56 1.01564 44.4423 0.401055C41.0211 -0.111098 37.559 -0.111097 34.0968 0.278139C30.1021 0.728833 26.3121 1.8146 22.6656 3.45349C18.7118 5.23578 15.1472 7.63266 12.0128 10.6441C10.8246 11.7913 9.69789 12.9386 8.67358 14.2497C6.89129 16.5441 5.31386 18.941 3.98227 21.5222C3.42914 22.5875 3.01942 23.7143 2.46629 24.7795C2.17949 25.3531 2.05657 26.1111 1.85171 26.7872C1.09372 29.225 0.561085 31.7243 0.253793 34.2646C-0.135443 37.6858 -0.0739843 41.0865 0.417682 44.4667C0.786432 47.0479 1.46247 49.5882 2.38435 52.0465C3.634 55.4063 5.27289 58.5611 7.40345 61.4497C8.9399 63.5188 10.6403 65.424 12.5455 67.1653C14.3278 68.7837 16.2125 70.2587 18.2406 71.5493C20.8833 73.2087 23.6899 74.4993 26.6604 75.4622C28.5041 76.0563 30.4093 76.507 32.3146 76.8552C34.4861 77.2445 36.6576 77.142 39.5871 77.183C42.1479 77.3674 45.4052 76.9577 48.601 76.0972C51.7968 75.2368 54.8698 74.0281 57.7378 72.3688C58.8646 71.7132 60.0118 71.0781 61.0566 70.2382C62.0604 69.4393 63.1257 68.7222 64.0885 67.8618C66.9566 65.3215 69.4968 62.4945 71.5045 59.2167C72.1395 58.1924 72.7336 57.1476 73.2868 56.0618C74.1677 54.341 74.8642 52.5382 75.4788 50.715C76.2368 48.4615 76.7899 46.1261 77.0767 43.7702C77.4045 41.3323 77.1791 38.8945 77.2201 36.4771ZM73.6146 46.3309C73.2253 48.2156 72.6722 50.0594 71.9347 51.8622C70.9309 54.3205 69.5993 56.533 68.0833 58.684C66.1166 61.4702 63.7607 63.8875 61.2 66.1C59.3767 67.6774 57.3691 69.05 55.2385 70.2382C52.8211 71.5698 50.2809 72.5941 47.5972 73.2292C45.733 73.6799 43.8277 73.9462 41.9021 74.0691C39.034 74.2535 36.2069 74.1715 33.3798 73.7618C30.6347 73.3726 27.951 72.6556 25.3698 71.5698C22.6451 70.4226 20.1663 68.8452 17.6875 67.2677C17.5031 67.1448 17.1343 67.0424 17.2163 66.7761C17.2982 66.5507 17.6055 66.4073 17.8718 66.3458C18.7732 66.1615 19.6746 66.2024 20.535 66.4688C21.6823 66.817 22.8295 67.1243 24.0587 67.0424C24.2021 67.0424 24.3455 67.0833 24.5503 66.858C23.8128 66.4073 23.1368 65.9361 22.3993 65.5469C21.5389 65.0757 20.7399 64.5226 19.9205 63.9695C18.0357 62.7198 16.6427 60.9785 15.2087 59.2781C13.9795 57.8031 12.7913 56.3077 11.8694 54.6278C11.1114 53.2757 10.9475 51.8212 11.3368 50.2847C11.685 48.9327 12.1972 47.6215 12.2177 46.208C12.2382 45.2861 12.1153 45.1632 11.2139 45.0813C10.292 44.9993 9.37011 45.1017 8.44824 45.2247C8.32532 45.2452 8.2024 45.2861 8.07949 45.2656C7.89511 45.2452 7.64928 45.2042 7.60831 45.0198C7.56733 44.774 7.85414 44.733 8.01803 44.7125C8.75553 44.6511 9.45206 44.3643 10.1896 44.4257C10.7632 44.4667 11.2343 44.2004 11.7465 44.0365C12.0948 43.934 12.2177 43.6063 12.1972 43.2375C12.1767 42.7868 11.9514 42.5205 11.5621 42.3976C10.5993 42.1108 9.57497 41.9879 8.59164 42.1927C7.85414 42.3566 7.09615 42.2952 6.33817 42.3976C6.17428 42.4181 5.90796 42.4181 5.86699 42.1927C5.8465 41.9674 6.11282 42.0288 6.25622 41.9674C7.1781 41.6191 8.16143 41.5577 9.10379 41.3118C10.4559 40.9226 11.8489 40.6972 12.9552 39.6729C13.6517 39.0379 13.8566 38.3823 13.6107 37.5014C13.3239 36.4361 12.9347 35.3913 12.5455 34.367C11.7875 32.3594 11.1934 30.3313 11.3982 28.1597C11.4597 27.5042 11.6441 26.9101 11.9718 26.3365C12.8118 24.9024 13.5288 23.407 14.2048 21.8705C14.6965 20.8052 15.3725 19.8219 16.11 18.9C16.6837 18.2035 16.6017 17.9577 15.7208 17.7118C14.4916 17.3636 13.2625 17.0563 12.0538 16.6875C11.1524 16.4212 11.1524 16.2778 11.7465 15.5813C13.5288 13.5122 15.5159 11.6274 17.667 9.94758C19.6541 8.39064 21.8257 7.1205 24.1611 6.11668C25.718 5.44064 27.2955 4.82606 28.9343 4.43682C31.0239 3.92467 33.134 3.47397 35.285 3.31008C37.1493 3.18717 38.993 2.98231 40.8573 3.14619C43.1312 3.35106 45.3847 3.65835 47.5972 4.23196C50.1784 4.908 52.6368 5.85036 55.0132 7.03856C57.7173 8.39064 60.2166 10.05 62.4086 12.0781C65.4611 14.8643 68.1243 18.0191 70.0909 21.6861C71.2587 23.8577 72.16 26.1316 72.8156 28.5285C73.8194 32.1955 74.2086 35.924 74.2086 39.6934C74.2906 41.9264 74.0857 44.1594 73.6146 46.3309Z" fill="#00A94F"/>
<path d="M35.5719 65.8747C34.6295 65.3215 33.7691 64.6865 32.9701 63.9695C31.9253 63.0476 31.618 61.7979 32.0073 60.4663C32.2531 59.6059 32.6424 58.7865 32.6424 57.8646C32.6424 56.9632 33.0521 56.2667 33.7076 55.7136C34.8344 54.7507 34.6705 54.0952 34.1583 52.784C33.3799 50.8379 33.1955 48.8917 33.5437 46.8226C33.7076 45.8393 34.0559 44.8764 34.0969 43.8726C34.1378 43.2785 33.851 43.2375 33.4208 43.3604C33.093 43.4629 32.7653 43.6268 32.458 43.7702C31.4542 44.2413 30.4299 44.6306 29.3031 44.6715C29.0983 44.6715 28.9139 44.692 28.8115 44.4872C28.6885 44.2618 28.9139 44.1594 29.0368 44.0365C29.2621 43.7702 29.5694 43.6268 29.8972 43.5448C32.0687 42.9917 33.134 41.2709 34.1583 39.4886C34.2812 39.2837 34.3017 39.0584 34.1378 38.915C33.974 38.7715 33.7691 38.9559 33.6257 39.0583C33.1545 39.4066 32.7858 39.8573 32.4375 40.3285C32.3351 40.4719 32.1917 40.6153 32.0278 40.4924C31.8229 40.3695 31.9868 40.2261 32.0483 40.0622C32.6014 38.7306 32.9292 37.3785 32.8062 35.924C32.7653 35.5143 32.8267 34.9406 32.3965 34.8177C31.9253 34.6948 31.659 35.2275 31.4337 35.5552C30.983 36.2108 30.5323 36.8663 29.9792 37.4195C29.8767 37.5219 29.7743 37.8087 29.549 37.6448C29.3851 37.5219 29.5285 37.3375 29.6104 37.1941C30.225 35.9035 30.8396 34.6129 31.2288 33.2198C31.4337 32.5438 31.741 31.8268 31.5566 31.1302C31.4132 30.5771 31.4951 30.1469 31.6795 29.6962C31.9868 28.8563 31.8024 28.3236 30.983 27.9344C30.5118 27.709 30.0816 27.4018 29.6924 27.0535C28.3608 25.8448 27.2545 24.4313 26.3326 22.8948C26.0663 22.4646 25.4722 22.1778 25.6156 21.4608C25.7795 21.6042 25.9434 21.7066 26.0253 21.85C26.3736 22.4441 26.8858 22.8538 27.4184 23.2431C27.6437 23.407 27.9305 23.6323 28.1149 23.5094C28.3198 23.366 28.2378 22.9972 28.1559 22.7309C27.9305 21.932 27.6437 21.1535 27.4389 20.334C27.234 19.5351 26.8653 18.7566 26.9267 17.8962C26.9472 17.7528 26.9267 17.5684 27.1111 17.5274C27.2955 17.4865 27.316 17.6913 27.3774 17.8143C27.951 19.3712 28.8115 20.7847 29.6309 22.2188C30.0406 22.9358 30.4913 23.6528 31.1059 24.2264C31.6795 24.8 32.3555 24.759 32.5194 24.1445C33.1135 21.9934 34.9573 21.4608 36.6986 20.7847C36.842 20.7233 37.0059 20.7233 37.1083 20.8667C37.2312 21.0101 37.1903 21.1945 37.1288 21.3379C36.9854 21.6656 36.6986 21.9115 36.4528 22.1573C34.0969 24.4927 32.9906 27.3198 33.2774 30.6386C33.4003 32.0726 33.9535 33.3427 34.8139 34.4695C36.4118 36.5795 38.4809 37.9931 41.1646 38.3618C42.8649 38.5872 44.5448 38.6896 45.9174 37.358C46.409 36.8663 46.3885 36.1903 45.7944 35.8625C45.4667 35.6781 45.4462 35.4528 45.4667 35.1455C45.4871 34.3465 45.692 33.5681 45.7535 32.7896C45.9378 29.6347 45.7125 26.4594 45.4667 23.325C45.4462 22.9768 45.3028 22.6695 45.016 22.4646C44.5448 22.0754 44.5653 21.6656 44.9135 21.2149C45.2618 20.7643 45.5896 20.3136 45.9174 19.8629C46.4705 19.1254 46.8187 18.3264 46.7778 17.384C46.7573 16.8309 46.6344 16.3188 46.491 15.7861C46.2451 14.8643 46.0403 13.9014 45.5896 13.0615C44.8521 11.6479 43.5205 10.8695 42.2503 10.009C41.2875 9.35349 40.2837 8.94377 39.0955 9.14863C38.7882 9.21009 38.4809 9.31252 38.1736 9.333C36.1865 9.43544 34.1993 9.41495 32.2121 9.27155C29.9382 9.10766 27.6642 9.02571 25.4312 9.66078C24.4479 9.94759 23.4236 10.2344 22.9729 11.2792C22.5427 12.242 21.9486 13.0615 21.293 13.8604C20.3507 15.0077 19.3469 16.1549 18.9371 17.6299C18.6913 18.4698 18.2611 19.1868 17.708 19.8424C16.991 20.7028 16.2944 21.5837 15.6389 22.5056C14.3073 24.3698 13.7337 26.4184 14.0615 28.7129C14.1844 29.5938 14.3892 30.4747 14.5736 31.3556C14.758 32.257 15.1062 33.0354 16.0691 33.4247C16.5608 33.6295 16.991 33.9983 17.4212 34.3056C17.708 34.5104 17.8514 34.7563 17.8514 35.1455C17.8104 36.0674 17.8309 36.9893 17.8514 37.9111C17.8514 38.3004 17.7285 38.6486 17.5851 38.9969C17.5441 39.1198 17.5236 39.2427 17.3597 39.2632C17.1958 39.2837 17.1549 39.1403 17.1139 39.0379C16.909 38.5872 16.7451 38.116 16.5403 37.6653C16.4583 37.4809 16.3354 37.2351 16.1101 37.2556C15.9052 37.2761 15.8847 37.5219 15.8437 37.7063C15.5774 38.7306 15.8233 39.6934 16.233 40.6358C16.6017 41.4962 17.1344 42.1108 18.1177 42.3771C19.3469 42.7049 20.5555 43.0327 21.8052 43.3195C22.7476 43.5448 23.649 43.8726 24.4479 44.4667C24.0587 44.5896 23.6694 44.5691 23.2802 44.4872C21.8052 44.2004 20.3507 44.057 18.8962 44.5691C18.7118 44.6306 18.5274 44.6715 18.5274 44.9174C18.5069 45.5729 18.5889 46.167 19.183 46.5768C19.6951 46.9455 20.2483 47.1504 20.8833 47.1709C22.0715 47.1709 23.2597 47.3757 24.4479 47.4781C24.8371 47.4986 25.1649 47.6625 25.5132 47.8469C25.6156 47.8879 25.6976 47.9493 25.6976 48.0722C25.6771 48.1952 25.5746 48.2361 25.4722 48.2361C25.3288 48.2566 25.1854 48.2566 25.042 48.2566C22.8295 48.1747 20.8424 48.8302 19.0601 50.1208C17.9948 50.8788 17.9743 50.8584 17.1344 49.834C17.1139 49.8136 17.1139 49.7931 17.0934 49.7726C16.4788 48.9941 15.8028 48.2771 14.8604 47.9288C14.2049 47.683 13.918 47.8674 13.8976 48.5229C13.8566 50.3257 13.7542 52.1285 14.2253 53.8903C14.4097 54.6073 14.6965 55.2629 15.1267 55.8774C15.2087 56.0004 15.3111 56.1438 15.475 56.0823C15.6594 56.0413 15.5979 55.8365 15.6184 55.7136C15.6184 55.4677 15.5979 55.2014 15.6184 54.9556C15.6389 54.6688 15.434 54.2181 15.8847 54.1976C16.2125 54.1771 16.274 54.6278 16.3354 54.9351C16.3559 55.017 16.3354 55.099 16.3559 55.1809C16.6837 56.3077 16.5608 57.5163 16.95 58.6226C17.0934 59.0118 17.1958 59.6264 17.6055 59.5649C18.0562 59.524 18.0767 58.9299 18.0767 58.4792C18.0972 58.0285 18.0972 57.5573 18.1382 57.1066C18.1587 56.9018 18.3021 56.6764 18.5274 56.6764C18.7528 56.6559 18.7937 56.9018 18.8142 57.0861C18.9371 57.8236 19.142 58.5406 19.1625 59.2986C19.2035 59.9132 19.3469 60.5483 19.6542 61.1014C19.8795 61.5521 20.2687 62.0233 20.7399 61.8389C21.0882 61.6955 21.0267 61.1014 20.9653 60.6507C20.8628 59.8927 20.7399 59.1143 20.9858 58.3563C21.0472 58.1104 21.0677 57.7007 21.375 57.7007C21.7437 57.7007 21.5799 58.1104 21.6618 58.3563C21.7233 58.5202 21.8462 58.684 21.8667 58.8684C22.1125 60.4049 22.4608 61.9413 22.5837 63.4983C22.6451 64.2153 22.9319 64.8299 23.649 65.1167C24.0177 65.2601 24.243 65.1986 24.243 64.7274C24.243 64.1129 24.1816 63.5188 24.0382 62.9247C23.8948 62.3101 23.8743 61.675 24.0792 61.0604C24.1406 60.8761 24.284 60.7122 24.4889 60.7122C24.6733 60.7122 24.6528 60.917 24.6937 61.04C25.1035 62.0643 25.083 63.1705 25.3083 64.2153C25.4108 64.7479 25.5542 65.2191 25.8819 65.6493C26.1073 65.9361 26.3941 66.2844 26.7219 66.182C27.1111 66.0386 26.9472 65.5879 26.9062 65.2396C26.8858 65.0962 26.8448 64.9528 26.8038 64.8094C26.6809 64.2153 26.7014 63.6007 26.6809 62.9861C26.6809 62.8632 26.7014 62.7198 26.8448 62.6788C27.0496 62.6174 27.0906 62.7813 27.1521 62.9042C27.3979 63.4368 27.6233 63.949 27.7257 64.5431C27.8076 65.0757 28.033 65.5674 28.3403 66.0386C28.4427 66.2024 28.5656 66.3049 28.75 66.2434C28.9344 66.182 28.9139 66.0181 28.8934 65.8747C28.8319 65.342 29.1802 65.342 29.5285 65.4035C29.8972 65.4649 30.1021 65.6903 30.225 66.0386C30.5323 66.8375 31.1264 67.2063 32.0073 67.2063C33.5028 67.2063 34.8549 66.4688 36.3913 66.5097C36.125 66.182 35.8382 66.0386 35.5719 65.8747Z" fill="#00A94F"/>
<path d="M64.8465 44.2004C63.7812 43.6882 62.6544 43.4629 61.5072 43.3809C59.1103 43.1965 56.693 43.0531 54.2961 43.1146C48.7444 43.2785 43.1926 42.8073 37.6409 43.3195C37.1287 43.3604 36.8215 43.5858 36.6576 44.016C36.1659 45.2247 35.7971 46.4538 35.7357 47.7649C35.6333 49.5677 35.6128 51.3705 36.5961 53.0094C36.8829 53.4601 37.2107 53.9722 37.7433 53.9722C39.4642 54.0132 41.185 54.1156 42.8853 53.8698C43.5204 53.7879 43.8892 53.4191 43.9097 52.7226C43.9097 52.2514 43.9096 51.7597 43.9916 51.2885C44.094 50.633 44.135 49.957 44.4218 49.3424C44.4833 49.1785 44.5447 49.0146 44.7701 49.0351C44.9544 49.0556 45.0569 49.1785 45.1388 49.3424C45.3027 49.7726 45.3232 50.2438 45.2822 50.6945C45.1798 51.7392 44.9135 52.7431 44.9544 53.8083C44.9749 54.2385 45.1388 54.5458 45.5485 54.5663C46.327 54.6073 47.044 54.9556 47.8225 54.8941C48.7649 54.8326 49.7072 54.8736 50.6496 54.8736C50.8544 54.8736 51.1003 54.8531 51.2642 54.9146C52.0836 55.2629 52.944 55.3653 53.8249 55.4063C55.2999 55.4677 56.7135 55.7955 58.127 56.2052C59.561 56.6354 60.8517 56.3486 61.9784 55.3448C62.552 54.8326 62.634 54.1771 62.1833 53.6854C61.7121 53.1733 61.7735 52.6406 61.9169 52.0465C61.9989 51.6778 62.0808 51.309 62.1628 50.9403C62.4496 49.6906 62.634 48.4 63.0846 47.1913C63.1256 47.0684 63.1666 46.925 63.2895 46.9045C63.4944 46.884 63.4944 47.0684 63.5353 47.2118C63.7197 47.8059 63.6173 48.4205 63.6173 49.2399C63.6583 49.7316 63.5149 50.4486 63.8017 51.1247C63.9246 51.391 64.0475 51.5549 64.3343 51.5754C64.6826 51.6163 64.6621 51.2885 64.7031 51.1042C65.2357 49.117 65.502 47.0889 65.502 45.0403C65.4815 44.692 65.2562 44.4052 64.8465 44.2004Z" fill="#00A94F"/>
<path d="M67.5712 28.4261C67.5712 28.0983 67.6326 27.7295 67.3458 27.4837C67.059 27.2174 66.8746 26.6438 66.4034 26.7872C65.9527 26.9101 66.0142 27.4632 65.9323 27.8729C65.8708 28.2212 66.0757 28.7948 65.6864 28.8358C65.4611 28.8768 65.3177 28.2007 65.2767 27.832C65.1538 26.6643 64.15 26.0702 63.2281 26.0087C60.5034 25.8038 57.9222 26.4799 55.3205 27.1354C54.1732 27.4427 53.026 27.75 51.8378 27.9549C51.2437 28.0573 50.9979 28.3031 50.875 28.8153C50.7725 29.2865 50.6906 29.7577 50.4653 30.1879C50.4038 30.3108 50.4448 30.5156 50.2194 30.4747C50.0555 30.4337 49.9941 30.2698 49.9941 30.1264C49.9736 29.6552 49.9736 29.2045 49.9941 28.7538C50.0146 28.3646 49.9736 27.9549 49.5843 27.791C49.1951 27.6066 48.8673 27.8524 48.5396 28.0778C47.6587 28.7129 47.5562 29.7167 47.4538 30.6386C47.2694 32.5438 47.5153 34.449 47.8021 36.3132C47.8635 36.682 47.8021 36.9483 47.5972 37.2351C46.8187 38.2389 45.8764 38.9764 44.6267 39.3861C42.9059 39.9597 41.226 39.9188 39.5257 39.4271C38.4604 39.1198 37.518 38.5462 36.5142 38.116C36.043 37.9111 35.6948 38.0955 35.6128 38.6281C35.5104 39.2222 35.5718 39.7959 35.7357 40.3695C35.9611 41.1684 36.4527 41.7625 37.2927 41.9059C38.4194 42.1108 39.5462 42.0493 40.6524 41.8445C42.1684 41.5781 43.7048 41.2504 45.2618 41.3733C47.8021 41.5781 50.3218 41.7011 52.8416 41.5577C54.8902 41.4347 56.9184 41.1684 58.9875 41.4142C59.3152 41.4552 59.6635 41.2913 59.8889 41.0455C60.3191 40.5743 60.6264 40.0622 60.8107 39.4271C61.0771 38.4643 61.4458 37.5424 61.7736 36.6C61.835 36.4361 61.8965 36.2313 62.1014 36.2927C62.3472 36.3542 62.2857 36.5795 62.2652 36.7639C62.2448 37.5424 62.2038 38.3208 62.2243 39.0788C62.2243 39.7139 62.5725 40.0622 63.1052 40.1031C63.5968 40.1441 63.8837 39.8573 64.1705 39.55C64.5802 39.0993 64.9694 38.9559 65.5225 39.3452C65.9118 39.632 66.26 39.591 66.4854 39.0174C66.9566 37.7882 67.1614 36.4976 67.2843 35.2274C67.4277 33.5476 67.7146 31.8677 67.5712 30.2084C67.5712 29.6143 67.5712 29.0202 67.5712 28.4261Z" fill="#00A94F"/>
<path d="M55.5663 57.967C54.7674 58.1104 54.0708 57.9261 53.3948 57.5778C51.633 56.6559 49.7892 56.0618 47.7611 56.2462C46.0198 56.4101 44.299 56.1233 42.5781 55.8979C40.4476 55.6111 38.3375 55.4882 36.2069 55.6931C34.8344 55.816 34.0354 56.574 33.8306 57.8441C33.6667 58.9299 33.5028 60.0361 33.175 61.0809C32.9497 61.7365 33.134 62.1462 33.5233 62.5764C33.6872 62.7608 33.8715 62.9861 34.1378 62.9451C34.4451 62.9042 34.5681 62.6174 34.6295 62.3511C34.7319 61.8184 34.9163 61.3063 34.9983 60.7736C35.1622 59.8722 35.408 58.9708 35.8587 58.1719C35.9611 57.9875 36.125 57.7827 36.3503 57.8851C36.5142 57.9465 36.4323 58.1924 36.3913 58.3563C36.3503 58.6021 36.2684 58.8479 36.2069 59.0938C35.8177 60.6712 35.4899 62.2281 35.6538 63.867C35.7358 64.5226 36.2889 65.2191 36.9035 65.3625C37.3747 65.4854 37.6819 65.3011 37.6 64.8708C37.4156 63.9695 37.5795 63.0886 37.6615 62.1872C37.7434 61.2038 37.9892 60.2615 38.4194 59.3601C38.5014 59.1962 38.5628 59.0323 38.7677 59.0938C38.9521 59.1552 38.8906 59.3396 38.8701 59.483C38.7677 60.241 38.7882 60.9785 38.8087 61.7365C38.8087 62.3101 38.7677 62.8632 38.8292 63.4368C38.8906 64.0719 38.8292 64.8299 39.3208 65.2806C40.7344 66.5712 42.3118 67.3292 44.3399 66.9604C45.4667 66.7556 46.6344 66.7761 47.7201 67.3292C48.6215 67.7799 49.5639 67.7184 50.4858 67.4111C51.8993 66.9604 53.3128 66.5097 54.7059 66.0386C56.017 65.6083 57.3691 65.0962 57.3691 63.3344C57.3691 63.2934 57.3896 63.2524 57.4101 63.2115C57.7583 62.1257 57.9017 61.0195 57.8198 59.8722C57.6969 58.6636 56.6931 57.7827 55.5663 57.967Z" fill="#00A94F"/>
<path d="M47.8021 17.1382C48.0889 18.4493 48.3142 19.7604 48.3552 21.1125C48.3962 22.3212 48.3962 23.5504 48.0479 24.7181C47.925 25.1688 48.0684 25.4146 48.5396 25.4146C49.3181 25.4146 50.0965 25.4146 50.8545 25.4146C53.825 25.517 56.775 25.1483 59.6635 24.4313C59.8684 24.3698 60.1962 24.3493 60.1962 24.083C60.1962 23.8372 59.8889 23.8781 59.684 23.8372C59.3972 23.7552 58.967 23.6733 59.0899 23.2636C59.4177 22.2597 59.2538 21.2969 59.1104 20.2931C59.008 19.658 58.8441 19.0229 58.9875 18.3674C59.008 18.2445 59.049 18.1011 59.1719 18.0601C59.3358 18.0191 59.3767 18.1625 59.4382 18.2649C59.8069 18.7566 59.9708 19.3302 60.0323 19.9448C60.0938 20.6823 60.3396 21.3583 60.6264 22.0344C60.7698 22.3622 60.9951 22.5875 61.3434 22.5465C61.6712 22.5056 61.7326 22.1778 61.8146 21.891C62.2243 20.3955 61.917 18.9615 61.5073 17.5274C61.0361 15.8886 60.2167 14.434 59.0899 13.1434C58.4753 12.4469 57.7788 12.1191 56.7955 12.1191C54.2962 12.1191 51.8379 12.5903 49.3385 12.5903C48.7444 12.5903 48.1708 12.6517 47.5767 12.7132C47.0031 12.7747 46.7778 13.1229 46.9417 13.6761C47.2694 14.8233 47.5563 15.9705 47.8021 17.1382Z" fill="#00A94F"/>
</svg>
