<svg width="48" height="48" viewBox="0 0 48 48" fill="none" xmlns="http://www.w3.org/2000/svg">
  <path d="M32 24C32 27.3137 29.3137 30 26 30C22.6863 30 20 27.3137 20 24C20 20.6863 22.6863 18 26 18C29.3137 18 32 20.6863 32 24Z" fill="#4CAF50"/>
  <path d="M44 24C44 28.6863 40.0751 32 35 32C31.5279 32 28.5246 30.2381 27 27.5C25.4754 30.2381 22.4721 32 19 32C13.9249 32 10 28.6863 10 24C10 19.3137 13.9249 16 19 16C22.4721 16 25.4754 17.7619 27 20.5C28.5246 17.7619 31.5279 16 35 16C40.0751 16 44 19.3137 44 24Z" stroke="#388E3C" stroke-width="2"/>
  <path d="M4 24C4 28.6863 7.92487 32 13 32C16.4721 32 19.4754 30.2381 21 27.5C19.4754 30.2381 16.4721 32 13 32C7.92487 32 4 28.6863 4 24Z" stroke="#388E3C" stroke-width="2"/>
  <path d="M44 24C44 19.3137 40.0751 16 35 16C31.5279 16 28.5246 17.7619 27 20.5C28.5246 17.7619 31.5279 16 35 16C40.0751 16 44 19.3137 44 24Z" stroke="#388E3C" stroke-width="2"/>
</svg> 