<svg width="33" height="33" viewBox="0 0 33 33" fill="none" xmlns="http://www.w3.org/2000/svg">
    <g clip-path="url(#clip0_498_3851)">
        <path
            d="M16.0957 32.2014C24.9846 32.2014 32.2014 24.9924 32.2014 16.1057C32.2014 7.21679 24.9846 0 16.0957 0C7.20678 0 0 7.21679 0 16.1057C0 24.9924 7.20678 32.2014 16.0957 32.2014ZM16.0957 29.4189C8.73534 29.4189 2.78245 23.4661 2.78245 16.1057C2.78245 8.74535 8.73534 2.79026 16.0957 2.79026C23.4561 2.79026 29.4089 8.74535 29.4089 16.1057C29.4089 23.4661 23.4561 29.4189 16.0957 29.4189Z"
            fill="white" fill-opacity="0.85" />
        <path
            d="M13.3091 24.7427H19.6829C20.3037 24.7427 20.7915 24.2881 20.7915 23.6685C20.7915 23.0742 20.3037 22.6008 19.6829 22.6008H17.7344V14.6438C17.7344 13.8391 17.3242 13.2959 16.5549 13.2959H13.5564C12.9333 13.2959 12.4456 13.7615 12.4456 14.3557C12.4456 14.9753 12.9333 15.4277 13.5564 15.4277H15.3477V22.6008H13.3091C12.6882 22.6008 12.2104 23.0742 12.2104 23.6685C12.2104 24.2881 12.6882 24.7427 13.3091 24.7427ZM16.0122 10.6907C17.1069 10.6907 17.9632 9.81005 17.9632 8.74194C17.9632 7.64282 17.1069 6.7666 16.0122 6.7666C14.9341 6.7666 14.0613 7.64282 14.0613 8.74194C14.0613 9.81005 14.9341 10.6907 16.0122 10.6907Z"
            fill="white" fill-opacity="0.85" />
    </g>
    <defs>
        <clipPath id="clip0_498_3851">
            <rect width="32.5554" height="32.2236" fill="white" />
        </clipPath>
    </defs>
</svg>