<svg width="33" height="32" viewBox="0 0 33 32" fill="none" xmlns="http://www.w3.org/2000/svg">
<path d="M1.43249 0.961282C0.988541 2.57545 0.692867 4.66044 0.586182 6.04207C-0.325062 17.8431 6.07045 26.1886 16.7204 27.011C23.3671 27.5242 27.0512 23.9276 28.0322 22.3193L25.9725 22.1557C27.8796 24.5545 28.54 26.7723 29.3516 30.2707C29.5312 31.0434 30.0455 31.3855 30.6269 31.4304C31.8158 31.5222 32.8423 30.5613 32.9513 29.15C33.1226 26.9317 30.333 22.8947 28.8223 21.2445C22.4492 14.3123 11.8212 17.3159 9.52463 10.2018C9.34804 9.67589 9.91206 9.32276 10.331 9.82746C15.2865 15.7437 22.6281 11.6713 28.9462 18.4292C29.4552 18.9631 30.1456 18.774 30.2952 18.1742C30.4144 17.7125 30.5106 16.9998 30.5676 16.2608C31.1552 8.65229 26.1824 4.4856 18.5564 3.89674C16.0463 3.70292 13.1327 4.05411 10.8392 3.87701C8.19642 3.67294 5.35029 3.19459 3.34796 0.604522C2.74043 -0.137321 1.74467 -0.0721898 1.43249 0.961282Z" fill="#006630"/>
</svg>
