<svg width="538" height="537" viewBox="0 0 538 537" fill="none" xmlns="http://www.w3.org/2000/svg">
<path d="M39.8489 -0.134221C40.6488 -0.136573 41.4487 -0.138926 42.2729 -0.141349C44.97 -0.148039 47.6671 -0.147581 50.3643 -0.147171C52.3109 -0.15047 54.2576 -0.154195 56.2042 -0.158313C61.5669 -0.168341 66.9296 -0.172051 72.2922 -0.174702C78.0709 -0.178603 83.8496 -0.188181 89.6282 -0.196915C103.59 -0.216686 117.553 -0.226746 131.515 -0.235643C138.088 -0.240024 144.661 -0.245392 151.234 -0.250632C173.08 -0.267645 194.927 -0.282164 216.774 -0.28938C218.187 -0.289855 219.599 -0.290331 221.012 -0.290808C221.713 -0.291044 222.414 -0.291281 223.136 -0.291524C226.685 -0.292725 230.235 -0.293941 233.785 -0.295166C234.49 -0.295406 235.194 -0.295646 235.92 -0.295894C258.758 -0.303786 281.596 -0.327215 304.433 -0.359722C328.581 -0.394031 352.728 -0.413731 376.876 -0.417024C390.038 -0.419191 403.2 -0.427954 416.362 -0.453486C427.571 -0.475178 438.779 -0.48325 449.988 -0.473519C455.707 -0.46897 461.426 -0.470895 467.144 -0.49028C472.382 -0.507882 477.62 -0.506939 482.858 -0.491383C484.75 -0.489002 486.642 -0.493354 488.535 -0.505212C503.389 -0.592503 514.906 1.01698 525.907 11.8828C534.375 21.0327 537.332 31.0447 537.252 43.36C537.255 44.1545 537.258 44.9489 537.261 45.7675C537.268 48.416 537.261 51.0643 537.254 53.7129C537.257 55.6364 537.26 57.5599 537.264 59.4834C537.272 64.7589 537.268 70.0342 537.262 75.3097C537.257 81.003 537.264 86.6963 537.27 92.3896C537.279 103.539 537.277 114.688 537.271 125.837C537.266 134.898 537.266 143.959 537.268 153.02C537.268 154.31 537.269 155.599 537.269 156.928C537.27 159.547 537.27 162.167 537.271 164.787C537.276 188.651 537.271 212.516 537.26 236.381C537.251 258.16 537.252 279.939 537.261 301.719C537.272 326.196 537.276 350.673 537.27 375.15C537.269 377.76 537.269 380.37 537.268 382.98C537.268 384.264 537.267 385.548 537.267 386.871C537.265 395.921 537.268 404.972 537.273 414.022C537.279 425.051 537.277 436.08 537.266 447.109C537.261 452.737 537.259 458.364 537.266 463.991C537.272 469.143 537.268 474.295 537.258 479.446C537.256 481.31 537.257 483.173 537.262 485.036C537.268 487.571 537.261 490.105 537.252 492.64C537.257 493.361 537.261 494.083 537.266 494.826C537.183 506.211 533.738 516.328 525.938 524.75C517.647 532.596 508.367 536.157 497.152 536.134C496.352 536.137 495.552 536.139 494.728 536.141C492.031 536.148 489.334 536.148 486.636 536.147C484.69 536.15 482.743 536.154 480.797 536.158C475.434 536.168 470.071 536.172 464.709 536.175C458.93 536.179 453.151 536.188 447.373 536.197C433.41 536.217 419.448 536.227 405.486 536.236C398.913 536.24 392.34 536.245 385.767 536.251C363.92 536.268 342.074 536.282 320.227 536.289C318.814 536.29 317.401 536.29 315.988 536.291C314.937 536.291 314.937 536.291 313.865 536.292C310.315 536.293 306.765 536.294 303.215 536.295C302.511 536.295 301.806 536.296 301.081 536.296C278.243 536.304 255.405 536.327 232.567 536.36C208.42 536.394 184.273 536.414 160.125 536.417C146.963 536.419 133.801 536.428 120.639 536.454C109.43 536.475 98.2214 536.483 87.0126 536.474C81.2938 536.469 75.5752 536.471 69.8564 536.49C64.6186 536.508 59.381 536.507 54.1432 536.491C52.2508 536.489 50.3584 536.493 48.466 536.505C33.6121 536.593 22.0952 534.983 11.0941 524.117C2.62605 514.967 -0.331217 504.955 -0.251284 492.64C-0.254191 491.846 -0.257097 491.051 -0.260092 490.233C-0.267362 487.584 -0.260464 484.936 -0.253569 482.287C-0.255875 480.364 -0.259054 478.44 -0.263026 476.517C-0.271368 471.241 -0.267251 465.966 -0.261054 460.69C-0.256528 454.997 -0.263511 449.304 -0.269011 443.61C-0.277905 432.461 -0.275983 421.312 -0.270186 410.163C-0.26567 401.102 -0.265056 392.041 -0.267234 382.98C-0.26754 381.69 -0.267849 380.401 -0.268164 379.072C-0.268804 376.453 -0.269453 373.833 -0.27011 371.213C-0.275651 347.349 -0.269904 323.484 -0.259425 299.619C-0.249934 277.84 -0.250781 256.061 -0.260344 234.281C-0.271057 209.804 -0.275264 185.327 -0.269122 160.85C-0.268485 158.24 -0.267854 155.63 -0.267234 153.02C-0.266925 151.736 -0.266617 150.452 -0.266299 149.129C-0.264572 140.079 -0.267487 131.028 -0.272193 121.978C-0.277801 110.949 -0.276286 99.9198 -0.265631 88.8908C-0.260374 83.2634 -0.258318 77.6361 -0.264929 72.0087C-0.27089 66.8569 -0.267613 61.7053 -0.256976 56.5536C-0.254742 54.6903 -0.255875 52.8271 -0.260726 50.9638C-0.266818 48.4291 -0.260558 45.8947 -0.251284 43.36C-0.255967 42.6386 -0.260651 41.9172 -0.265475 41.1739C-0.182363 29.7887 3.26277 19.6719 11.0629 11.25C19.354 3.40407 28.6333 -0.15655 39.8489 -0.134221ZM100 79C98.6005 79.729 98.6005 79.729 97.1723 80.4727C85.7437 87.0769 78.8384 97.1239 75.2191 109.719C72.6046 121.691 74.4396 133.375 80.727 143.887C86.7942 152.746 94.1396 158.801 104 163C105.362 163.588 105.362 163.588 106.75 164.187C119.492 167.373 132.214 165.818 143.762 159.43C153.776 153.033 160.6 143.501 164.34 132.215C167.049 119.022 165.364 106.78 158.25 95.3125C150.984 85.2229 141.466 77.6212 129 75C118.75 74.3803 109.314 74.1262 100 79ZM296.246 222.98C292.729 227.164 289.817 230.801 288 236C287.01 236 286.02 236 285 236C285 224.78 285 213.56 285 202C260.25 202 235.5 202 210 202C210 285.82 210 369.64 210 456C235.74 456 261.48 456 288 456C288.049 446.308 288.098 436.615 288.149 426.629C288.184 420.463 288.22 414.297 288.258 408.131C288.318 398.359 288.377 388.587 288.422 378.815C288.455 371.696 288.495 364.576 288.543 357.457C288.568 353.694 288.59 349.932 288.604 346.169C288.81 291.523 288.81 291.523 303 276C312.604 266.621 325.276 264.745 338.121 264.751C348.404 264.896 356.856 267.582 364.653 274.457C380.518 291.049 377.473 319.229 377.507 340.407C377.516 344.482 377.542 348.556 377.566 352.631C377.61 360.319 377.639 368.007 377.662 375.696C377.694 386.104 377.75 396.513 377.804 406.921C377.888 423.281 377.942 439.64 378 456C403.74 456 429.48 456 456 456C456.788 395.689 456.788 395.689 457.125 335.375C457.128 334.423 457.13 333.471 457.133 332.491C457.156 321.95 456.966 311.432 456.567 300.898C456.53 299.887 456.492 298.875 456.454 297.833C455.184 267.288 449.301 236.173 426.313 214.312C389.964 184.357 327.664 188.002 296.246 222.98ZM81.0004 202C81.0004 285.82 81.0004 369.64 81.0004 456C106.74 456 132.48 456 159 456C159 372.18 159 288.36 159 202C133.26 202 107.52 202 81.0004 202Z" fill="#2867B2"/>
</svg>
