<svg width="33" height="23" viewBox="0 0 33 23" fill="none" xmlns="http://www.w3.org/2000/svg">
<g clip-path="url(#clip0_502_3928)">
<path d="M10.5298 22.1311H30.7539C31.4851 22.1311 32.06 21.5683 32.06 20.8327C32.06 20.1015 31.4873 19.5266 30.7539 19.5266H10.5298C9.79858 19.5266 9.23145 20.0994 9.23145 20.8327C9.23145 21.5639 9.79639 22.1311 10.5298 22.1311Z" fill="white" fill-opacity="0.85"/>
<path d="M1.63378 22.4687H4.26586C5.16258 22.4687 5.90965 21.7339 5.90965 20.8327C5.90965 19.9238 5.16258 19.199 4.26586 19.199H1.63378C0.737057 19.199 0 19.9238 0 20.8327C0 21.7339 0.737057 22.4687 1.63378 22.4687Z" fill="white" fill-opacity="0.85"/>
<path d="M10.5298 12.5488H30.7539C31.4851 12.5488 32.06 11.9761 32.06 11.2405C32.06 10.5093 31.4873 9.94434 30.7539 9.94434H10.5298C9.79858 9.94434 9.23145 10.5071 9.23145 11.2405C9.23145 11.9717 9.79639 12.5488 10.5298 12.5488Z" fill="white" fill-opacity="0.85"/>
<path d="M1.63378 12.8764H4.26586C5.16258 12.8764 5.90965 12.1416 5.90965 11.2405C5.90965 10.3415 5.16258 9.60669 4.26586 9.60669H1.63378C0.737057 9.60669 0 10.3415 0 11.2405C0 12.1416 0.737057 12.8764 1.63378 12.8764Z" fill="white" fill-opacity="0.85"/>
<path d="M10.5298 2.95653H30.7539C31.4851 2.95653 32.06 2.39159 32.06 1.6582C32.06 0.926998 31.4873 0.352051 30.7539 0.352051H10.5298C9.79858 0.352051 9.23145 0.924801 9.23145 1.6582C9.23145 2.38939 9.79639 2.95653 10.5298 2.95653Z" fill="white" fill-opacity="0.85"/>
<path d="M1.63378 3.29198H4.26586C5.16258 3.29198 5.90965 2.5493 5.90965 1.6582C5.90965 0.747067 5.16258 0.0244141 4.26586 0.0244141H1.63378C0.737057 0.0244141 0 0.747067 0 1.6582C0 2.5493 0.737057 3.29198 1.63378 3.29198Z" fill="white" fill-opacity="0.85"/>
</g>
<defs>
<clipPath id="clip0_502_3928">
<rect width="32.414" height="22.4687" fill="white"/>
</clipPath>
</defs>
</svg>
