<svg width="141" height="191" viewBox="0 0 141 191" fill="none" xmlns="http://www.w3.org/2000/svg">
<path d="M23.0938 190.051H117.706C132.837 190.051 140.801 182.226 140.801 166.504V97.209C140.801 81.6323 132.837 73.8073 117.706 73.8073H23.0938C7.92544 73.8073 0 81.6323 0 97.209V166.504C0 182.226 7.92544 190.051 23.0938 190.051ZM18.9225 82.1052H39.779V51.2431C39.779 31.0806 53.2789 19.2525 70.3811 19.2525C87.4077 19.2525 101.135 31.0806 101.135 51.2431V82.1052H121.954V52.3713C121.954 19.0342 98.632 0 70.3811 0C42.1302 0 18.9225 19.0342 18.9225 52.3713V82.1052Z" fill="#FFFAE7"/>
</svg>
