<svg width="41" height="36" viewBox="0 0 41 36" fill="none" xmlns="http://www.w3.org/2000/svg">
    <g clip-path="url(#clip0_505_4014)">
        <path
            d="M33.1882 4.43163V31.2493C33.1882 33.9585 31.4113 35.6809 28.6255 35.6809H11.1599C8.37622 35.6809 6.59717 33.9585 6.59717 31.2493V21.9177H9.29075V30.8218C9.29075 32.2065 10.0827 32.9873 11.5207 32.9873H28.2746C29.7126 32.9873 30.5068 32.2065 30.5068 30.8218V4.85692C30.5068 3.46434 29.7126 2.68357 28.2746 2.68357H11.5207C10.0827 2.68357 9.29075 3.46434 9.29075 4.85692V13.7532H6.59717V4.43163C6.59717 1.72241 8.37622 0 11.1599 0H28.6255C31.4113 0 33.1882 1.72241 33.1882 4.43163Z"
            fill="white" fill-opacity="0.85" />
        <path
            d="M0.395508 17.8254C0.395508 18.53 0.968258 19.104 1.64746 19.104H14.4114L16.7263 18.9988L15.6758 19.9116L13.0925 22.365C12.842 22.5911 12.7102 22.9214 12.7102 23.2327C12.7102 23.8645 13.1723 24.3696 13.8161 24.3696C14.1552 24.3696 14.3935 24.2322 14.6318 23.9961L19.6892 18.789C20.0005 18.4634 20.1179 18.1633 20.1179 17.8254C20.1179 17.4975 20.0005 17.1997 19.6892 16.874L14.6318 11.6648C14.3935 11.4287 14.1552 11.3013 13.8161 11.3013C13.1723 11.3013 12.7102 11.8186 12.7102 12.4404C12.7102 12.7495 12.842 13.0698 13.0925 13.2959L15.6758 15.7615L16.7163 16.6543L14.4114 16.5591H1.64746C0.968258 16.5591 0.395508 17.1309 0.395508 17.8254Z"
            fill="white" fill-opacity="0.85" />
    </g>
    <defs>
        <clipPath id="clip0_505_4014">
            <rect width="40.1416" height="35.6875" fill="white" />
        </clipPath>
    </defs>
</svg>