<svg width="193" height="95" viewBox="0 0 193 95" fill="none" xmlns="http://www.w3.org/2000/svg">
<path d="M89.8771 0.135326L97.4667 57.2436L105.463 0.135326H122.54L107.496 94.8647H87.4376L72.2583 0.135326H89.8771Z" fill="#AF1F24"/>
<path d="M123.611 94.8647V0.135326H155.46V16.916H141.094V38.2977H155.596V55.8903H140.281V77.2721H155.731V94.8647H123.611Z" fill="#AF1F24"/>
<path d="M177.863 0V77.8134H192.5V95H161.057V0.135326L177.863 0Z" fill="#AF1F24"/>
<path d="M0.5 40.9451V0.241054H9.81761L13.1952 21.1745L16.5146 0.241054H26.007V41.0032H18.4364V21.349L15.117 40.9451H11.2153L7.89586 21.5234V40.9451H0.5Z" fill="#AF1F24"/>
<path d="M42.4352 0.241054L48.6081 40.9451H41.2122L40.3969 34.665H34.6899L33.8164 40.9451H26.537L32.6517 0.241054H42.4352ZM39.6399 28.1524L37.5434 11.0567L35.5634 28.1524H39.6399Z" fill="#AF1F24"/>
<path d="M57.2282 0.241054C58.5871 0.241054 59.8682 0.454266 61.0718 0.880691C62.3141 1.30711 63.4206 1.98551 64.3912 2.91589C65.3618 3.8075 66.1576 4.97047 66.7788 6.4048C67.4388 7.83914 67.8659 9.5836 68.06 11.6382C68.3317 14.158 68.2541 16.2707 67.827 17.9764C67.4388 19.6433 66.9535 20.9807 66.3712 21.9886C65.7112 23.2291 64.9153 24.1983 63.9835 24.8961L68.817 40.9451H61.3629L57.8106 27.2801L56.18 27.5709V40.9451H48.8424L48.9006 0.241054H57.2282ZM56.18 20.3605C57.073 20.2829 57.8106 20.0697 58.393 19.7208C58.9753 19.3332 59.4606 18.8486 59.8488 18.2671C60.2371 17.6856 60.5088 17.0266 60.6641 16.2901C60.8194 15.5535 60.8971 14.7976 60.8971 14.0223C60.8971 13.2082 60.8194 12.4135 60.6641 11.6382C60.5088 10.8241 60.2565 10.1069 59.9071 9.48668C59.5577 8.82767 59.0724 8.30433 58.4512 7.91667C57.8688 7.52901 57.1118 7.33518 56.18 7.33518V20.3605Z" fill="#AF1F24"/>
<path d="M23.6193 54.1607V61.5455H16.2817V94.8647H9.11879V61.5455H1.25706V54.1607H23.6193Z" fill="#AF1F24"/>
<path d="M35.0489 54.1607C36.4077 54.1607 37.6889 54.3739 38.8924 54.8003C40.1347 55.2267 41.2412 55.9051 42.2118 56.8355C43.1824 57.7271 43.9783 58.8901 44.5994 60.3244C45.2594 61.7587 45.6865 63.5032 45.8806 65.5578C46.1524 68.0776 46.0747 70.1903 45.6477 71.896C45.2594 73.5629 44.7741 74.9003 44.1918 75.9082C43.5318 77.1487 42.7359 78.1179 41.8041 78.8157L46.6377 94.8647H39.1836L35.6312 81.1997L34.0006 81.4905V94.8647H26.663L26.7213 54.1607H35.0489ZM34.0006 74.2801C34.8936 74.2025 35.6312 73.9893 36.2136 73.6404C36.7959 73.2528 37.2812 72.7682 37.6695 72.1867C38.0577 71.6052 38.3294 70.9462 38.4847 70.2097C38.64 69.4731 38.7177 68.7172 38.7177 67.9419C38.7177 67.1278 38.64 66.3331 38.4847 65.5578C38.3294 64.7437 38.0771 64.0265 37.7277 63.4063C37.3783 62.7473 36.893 62.2239 36.2718 61.8363C35.6895 61.4486 34.9324 61.2548 34.0006 61.2548V74.2801Z" fill="#AF1F24"/>
<path d="M59.7237 54.1607L65.8966 94.8647H58.5008L57.6855 88.5846H51.9785L51.1049 94.8647H43.8255L49.9402 54.1607H59.7237ZM56.9284 82.072L54.832 64.9763L52.852 82.072H56.9284Z" fill="#AF1F24"/>
</svg>
