<svg width="33" height="33" viewBox="0 0 33 33" fill="none" xmlns="http://www.w3.org/2000/svg">
<g clip-path="url(#clip0_508_4065)">
<path d="M16.0957 32.2014C24.9846 32.2014 32.2014 24.9924 32.2014 16.1057C32.2014 7.21679 24.9846 0 16.0957 0C7.20678 0 0 7.21679 0 16.1057C0 24.9924 7.20678 32.2014 16.0957 32.2014ZM16.0957 29.4189C8.73534 29.4189 2.78245 23.4661 2.78245 16.1057C2.78245 8.74535 8.73534 2.79026 16.0957 2.79026C23.4561 2.79026 29.4089 8.74535 29.4089 16.1057C29.4089 23.4661 23.4561 29.4189 16.0957 29.4189Z" fill="white" fill-opacity="0.85"/>
<path d="M16.0935 16.9023C16.3267 16.9023 16.5532 16.8191 16.7986 16.5937L24.3799 9.88721C23.9736 9.64404 23.5208 9.53076 22.9224 9.53076H9.26464C8.66406 9.53076 8.21337 9.63403 7.82714 9.8772L15.3884 16.5937C15.6316 16.8191 15.8704 16.9023 16.0935 16.9023ZM7.08667 21.4438L12.7278 15.8049L7.06884 10.7932C6.96118 10.9873 6.88232 11.3935 6.88232 11.8909V20.3249C6.88232 20.7935 6.94897 21.1409 7.08667 21.4438ZM9.09912 22.6851H23.0879C23.634 22.6851 24.0491 22.5474 24.3486 22.3586L18.571 16.5911L17.5205 17.5361C17.05 17.9455 16.5828 18.1265 16.0935 18.1265C15.6042 18.1265 15.1348 17.9455 14.6887 17.5361L13.616 16.5911L7.83618 22.3586C8.13793 22.5574 8.55077 22.6851 9.09912 22.6851ZM25.1125 21.4338C25.2358 21.1409 25.3047 20.7834 25.3047 20.3249V11.8909C25.3047 11.3935 25.2258 11.0073 25.1182 10.7932L19.4592 15.8049L25.1125 21.4338Z" fill="white" fill-opacity="0.85"/>
</g>
<defs>
<clipPath id="clip0_508_4065">
<rect width="32.5554" height="32.2236" fill="white"/>
</clipPath>
</defs>
</svg>
