<svg width="33" height="33" viewBox="0 0 33 33" fill="none" xmlns="http://www.w3.org/2000/svg">
<g clip-path="url(#clip0_498_3862)">
<path d="M16.0957 32.2014C24.9846 32.2014 32.2014 24.9924 32.2014 16.1057C32.2014 7.21679 24.9846 0 16.0957 0C7.20678 0 0 7.21679 0 16.1057C0 24.9924 7.20678 32.2014 16.0957 32.2014ZM16.0957 29.4189C8.73534 29.4189 2.78245 23.4661 2.78245 16.1057C2.78245 8.74535 8.73534 2.79026 16.0957 2.79026C23.4561 2.79026 29.4089 8.74535 29.4089 16.1057C29.4089 23.4661 23.4561 29.4189 16.0957 29.4189Z" fill="white" fill-opacity="0.85"/>
<path d="M12.5151 10.2685C12.5151 11.8618 13.5727 13.2031 15.0141 13.6477V21.9631C15.0141 23.9927 15.435 25.8186 16.0837 25.8186C16.7302 25.8186 17.1411 24.0271 17.1411 21.9631V13.6499C18.6047 13.2153 19.6545 11.874 19.6545 10.2685C19.6545 8.29517 18.0527 6.69557 16.0837 6.69776C14.1147 6.69996 12.5151 8.30176 12.5151 10.2685ZM14.0478 9.33692C14.0378 8.7046 14.5903 8.17213 15.2004 8.17213C15.8327 8.17213 16.353 8.7046 16.343 9.33692C16.343 9.94922 15.8327 10.4795 15.2004 10.4795C14.5903 10.4795 14.0578 9.94922 14.0478 9.33692Z" fill="white" fill-opacity="0.85"/>
</g>
<defs>
<clipPath id="clip0_498_3862">
<rect width="32.5554" height="32.2236" fill="white"/>
</clipPath>
</defs>
</svg>
