<svg width="429" height="213" viewBox="0 0 429 213" fill="none" xmlns="http://www.w3.org/2000/svg">
<path d="M199.702 0.303415L216.66 128.346L234.526 0.303415H272.682L239.069 212.697H194.251L160.335 0.303415H199.702Z" fill="#AF1F24"/>
<path d="M275.076 212.697V0.303415H346.24V37.9273H314.14V85.8675H346.542V125.312H312.323V173.252H346.845V212.697H275.076Z" fill="#AF1F24"/>
<path d="M396.295 0V174.466H429V213H358.745V0.303415L396.295 0Z" fill="#AF1F24"/>
<path d="M0 91.8032V0.540469H20.819L28.3659 47.4756L35.7827 0.540469H56.9921V91.9335H40.0767V47.8667L32.6599 91.8032H23.9419L16.5251 48.2578V91.8032H0Z" fill="#AF1F24"/>
<path d="M93.6989 0.540469L107.492 91.8032H90.9664L89.1447 77.7226H76.3931L74.4413 91.8032H58.1764L71.8389 0.540469H93.6989ZM87.4532 63.1206L82.7689 24.7903L78.3449 63.1206H87.4532Z" fill="#AF1F24"/>
<path d="M126.752 0.540469C129.788 0.540469 132.651 1.01851 135.34 1.9746C138.116 2.93069 140.588 4.45173 142.757 6.53773C144.925 8.53682 146.704 11.1443 148.092 14.3602C149.566 17.5762 150.521 21.4874 150.954 26.094C151.562 31.7436 151.388 36.4806 150.434 40.3049C149.566 44.0424 148.482 47.041 147.181 49.3008C145.706 52.0822 143.928 54.2551 141.846 55.8196L152.646 91.8032H135.991L128.053 61.165L124.41 61.8168V91.8032H108.015L108.145 0.540469H126.752ZM124.41 45.6503C126.405 45.4765 128.053 44.9984 129.355 44.2162C130.656 43.347 131.74 42.2606 132.608 40.9568C133.475 39.6531 134.082 38.1755 134.429 36.524C134.776 34.8726 134.95 33.1777 134.95 31.4394C134.95 29.6142 134.776 27.8324 134.429 26.094C134.082 24.2688 133.518 22.6608 132.738 21.2701C131.957 19.7926 130.873 18.6192 129.485 17.75C128.183 16.8808 126.492 16.4463 124.41 16.4463V45.6503Z" fill="#AF1F24"/>
<path d="M51.6572 121.434V137.992H35.2623V212.697H19.2576V137.992H1.69155V121.434H51.6572Z" fill="#AF1F24"/>
<path d="M77.1951 121.434C80.2312 121.434 83.0939 121.912 85.783 122.868C88.5589 123.824 91.0311 125.345 93.1998 127.431C95.3684 129.43 97.1467 132.038 98.5347 135.254C100.009 138.47 100.964 142.381 101.397 146.987C102.004 152.637 101.831 157.374 100.877 161.198C100.009 164.936 98.925 167.934 97.6238 170.194C96.1491 172.976 94.3708 175.149 92.2889 176.713L103.089 212.697H86.4336L78.4963 182.058L74.853 182.71V212.697H58.458L58.5881 121.434H77.1951ZM74.853 166.544C76.8482 166.37 78.4963 165.892 79.7975 165.11C81.0987 164.24 82.183 163.154 83.0505 161.85C83.918 160.546 84.5252 159.069 84.8722 157.417C85.2191 155.766 85.3926 154.071 85.3926 152.333C85.3926 150.508 85.2191 148.726 84.8722 146.987C84.5252 145.162 83.9613 143.554 83.1806 142.164C82.3999 140.686 81.3156 139.513 79.9276 138.643C78.6264 137.774 76.9349 137.34 74.853 137.34V166.544Z" fill="#AF1F24"/>
<path d="M132.328 121.434L146.121 212.697H129.595L127.774 198.616H115.022L113.07 212.697H96.8055L110.468 121.434H132.328ZM126.082 184.014L121.398 145.684L116.974 184.014H126.082Z" fill="#AF1F24"/>
</svg>
