<svg width="33" height="33" viewBox="0 0 33 33" fill="none" xmlns="http://www.w3.org/2000/svg">
<g clip-path="url(#clip0_502_3965)">
<path d="M16.0957 32.2014C24.9846 32.2014 32.2014 24.9924 32.2014 16.1057C32.2014 7.21679 24.9846 0 16.0957 0C7.20678 0 0 7.21679 0 16.1057C0 24.9924 7.20678 32.2014 16.0957 32.2014ZM16.0957 29.4189C8.73534 29.4189 2.78245 23.4661 2.78245 16.1057C2.78245 8.74535 8.73534 2.79026 16.0957 2.79026C23.4561 2.79026 29.4089 8.74535 29.4089 16.1057C29.4089 23.4661 23.4561 29.4189 16.0957 29.4189Z" fill="white" fill-opacity="0.85"/>
<path d="M16.0879 22.6272C20.9019 22.6272 24.6714 19.4827 24.6714 15.6101C24.6714 11.7375 20.9019 8.59302 16.0879 8.59302C11.2817 8.59302 7.51221 11.7375 7.51221 15.6101C7.51221 18.0134 8.99659 20.1194 11.2349 21.4224C11.428 21.5144 11.4236 21.6787 11.3337 21.8606C11.053 22.3921 10.6223 22.917 10.2927 23.292C9.86988 23.7747 10.0073 24.3062 10.6875 24.3062C11.5254 24.3062 13.0937 23.6626 14.6396 22.7249C14.7949 22.6328 14.897 22.5862 15.0679 22.5984C15.3765 22.615 15.7261 22.6272 16.0879 22.6272Z" fill="white" fill-opacity="0.85"/>
</g>
<defs>
<clipPath id="clip0_502_3965">
<rect width="32.5554" height="32.2236" fill="white"/>
</clipPath>
</defs>
</svg>
