<svg width="34" height="41" viewBox="0 0 34 41" fill="none" xmlns="http://www.w3.org/2000/svg">
    <path
        d="M25.0488 6.96411H21.6064V6.88477L25.3601 2.14233C25.7202 1.69067 25.8606 1.40991 25.8606 1.01318C25.8606 0.402832 25.4028 0 24.7559 0H19.5984C18.9514 0 18.5303 0.378418 18.5303 0.976562C18.5303 1.58691 18.9697 1.97144 19.5984 1.97144H22.8882V2.04468L19.1345 6.7688C18.7805 7.21436 18.6462 7.50732 18.6462 7.91626C18.6462 8.5022 19.0857 8.91724 19.7266 8.91724H25.0488C25.6836 8.91724 26.1169 8.54492 26.1169 7.93457C26.1169 7.33643 25.6958 6.96411 25.0488 6.96411ZM32.666 13.1897H30.3955V13.1165L32.9468 9.96704C33.2886 9.55811 33.429 9.26514 33.429 8.88062C33.429 8.29468 32.9834 7.92236 32.3792 7.92236H28.5767C27.9663 7.92236 27.5574 8.27026 27.5574 8.81958C27.5574 9.3811 27.9724 9.729 28.5767 9.729H30.6763V9.80225L28.1799 12.8967C27.832 13.3118 27.6794 13.6353 27.6794 14.032C27.6794 14.5996 28.0945 14.9841 28.6987 14.9841H32.666C33.2703 14.9841 33.6792 14.6423 33.6792 14.0869C33.6792 13.5376 33.2825 13.1897 32.666 13.1897ZM25.4761 18.6462H23.5413V18.5791L25.7263 15.8813C26.0437 15.4907 26.1719 15.2344 26.1719 14.8743C26.1719 14.3433 25.769 13.9893 25.2075 13.9893H21.7285C21.167 13.9893 20.7947 14.3188 20.7947 14.8499C20.7947 15.3809 21.1792 15.7043 21.7285 15.7043H23.5107V15.7776L21.3745 18.4204C21.0327 18.8293 20.9045 19.0979 20.8923 19.4763C20.8862 19.989 21.2769 20.3552 21.8384 20.3552H25.4761C26.0315 20.3552 26.4038 20.0134 26.4038 19.5007C26.4038 18.9697 26.0437 18.6462 25.4761 18.6462Z"
        fill="white" fill-opacity="0.85" />
    <path
        d="M15.6736 37.5793C21.417 37.5793 26.782 34.3262 29.1502 29.0039C29.6019 27.9846 29.4554 27.1912 28.9915 26.7395C28.5459 26.3062 27.7708 26.2207 26.9407 26.5869C25.7566 27.0874 24.2674 27.3743 22.5584 27.3743C15.5821 27.3743 11.3462 23.3093 11.3462 16.4612C11.3462 14.6179 11.7247 12.7808 12.2618 11.6028C12.6829 10.6628 12.6341 9.93043 12.2007 9.44825C11.7369 8.92335 10.9251 8.80738 9.93018 9.21632C4.5835 11.4319 0.982422 16.8884 0.982422 22.8149C0.982422 31.012 7.38501 37.5793 15.6736 37.5793ZM15.6675 34.0515C9.25879 34.0515 4.51026 29.126 4.51026 22.8699C4.51026 19.5312 6.01783 16.4795 8.46534 14.3372C8.2334 15.1367 8.10523 16.1987 8.10523 17.2241C8.10523 25.4456 13.3787 30.603 21.7588 30.603C22.5706 30.603 23.3396 30.4993 23.8768 30.365C21.9908 32.605 19.0733 34.0515 15.6675 34.0515Z"
        fill="white" fill-opacity="0.85" />
</svg>