<svg width="10" height="10" viewBox="0 0 10 10" fill="none" xmlns="http://www.w3.org/2000/svg">

<path d="M0.229855 9.76499C0.543341 10.0776 1.0744 10.0681 1.36683 9.77446L4.93214 6.16285L8.49514 9.77209C8.79695 10.0776 9.32095 10.0776 9.62744 9.76262C9.9386 9.44526 9.94093 8.9195 9.63679 8.61398L6.07616 5.00478L9.63679 1.40029C9.94093 1.09242 9.94093 0.564298 9.62744 0.251687C9.31628 -0.0609223 8.79695 -0.0632904 8.49514 0.242214L4.93214 3.84907L1.36683 0.239846C1.0744 -0.0538174 0.541003 -0.0656588 0.229855 0.249319C-0.0766136 0.566665 -0.0695954 1.10189 0.222836 1.39555L3.7905 5.00478L0.222836 8.61639C-0.0695954 8.9124 -0.0812925 9.45236 0.229855 9.76499Z" fill="#FFFAE7"/>

</svg>
