<svg width="18" height="18" viewBox="0 0 18 18" fill="none" xmlns="http://www.w3.org/2000/svg">
<path d="M2.27135 14.4535H15.7226C16.6104 14.4535 17.1733 13.9357 17.1733 13.167C17.1733 12.2406 16.4174 11.4848 15.6551 10.7932C15.0054 10.1982 14.896 8.92123 14.732 7.60566C14.5261 4.79769 13.5804 2.73593 11.5155 2.00901C11.1552 0.899327 10.2096 0.0887756 9.00019 0.0887756C7.79081 0.0887756 6.84518 0.899327 6.48493 2.00901C4.41673 2.73593 3.4743 4.79769 3.26845 7.60566C3.1012 8.92123 2.99505 10.1982 2.34532 10.7932C1.57659 11.4848 0.827148 12.2406 0.827148 13.167C0.827148 13.9357 1.39003 14.4535 2.27135 14.4535ZM9.00019 17.9113C10.5184 17.9113 11.6216 16.8498 11.7374 15.6018H6.26297C6.37558 16.8498 7.47883 17.9113 9.00019 17.9113Z" fill="#FFFAE7"/>
</svg>
