<svg width="33" height="35" viewBox="0 0 33 35" fill="none" xmlns="http://www.w3.org/2000/svg">
    <g clip-path="url(#clip0_520_6)">
        <path
            d="M2.12426 27.0293L14.6672 34.01C15.5151 34.4695 16.3447 34.4795 17.1926 34.01L29.7334 27.0293C31.1731 26.2273 31.8599 25.3811 31.8599 23.334V10.3935C31.8599 8.89402 31.282 7.93918 30.0112 7.23386L18.625 0.855925C16.8469 -0.143585 15.0129 -0.143585 13.2249 0.855925L1.84863 7.23386C0.57788 7.93918 0 8.89402 0 10.3935V23.334C0 25.3811 0.686767 26.2273 2.12426 27.0293ZM3.64525 24.9365C2.74144 24.438 2.47069 23.9407 2.47069 23.0947V11.2375L14.6548 18.0644V31.0981L3.64525 24.9365ZM28.2146 24.9365L17.2051 31.0981V18.0644L29.3892 11.2375V23.0947C29.3892 23.9407 29.1184 24.438 28.2146 24.9365ZM15.9299 15.8076L3.8176 9.06271L8.64526 6.33663L20.7842 13.1094L15.9299 15.8076ZM23.3799 11.6689L11.2197 4.90402L14.3672 3.14131C15.4216 2.54854 16.436 2.53413 17.4905 3.14131L28.0423 9.06271L23.3799 11.6689Z"
            fill="white" fill-opacity="0.85" />
    </g>
    <defs>
        <clipPath id="clip0_520_6">
            <rect width="32.2139" height="34.3583" fill="white" />
        </clipPath>
    </defs>
</svg>