<svg width="33" height="33" viewBox="0 0 33 33" fill="none" xmlns="http://www.w3.org/2000/svg">
    <g clip-path="url(#clip0_507_4054)">
        <path
            d="M16.0957 32.2014C24.9846 32.2014 32.2014 24.9924 32.2014 16.1057C32.2014 7.21679 24.9846 0 16.0957 0C7.20678 0 0 7.21679 0 16.1057C0 24.9924 7.20678 32.2014 16.0957 32.2014ZM16.0957 29.4189C8.73534 29.4189 2.78245 23.4661 2.78245 16.1057C2.78245 8.74535 8.73534 2.79026 16.0957 2.79026C23.4561 2.79026 29.4089 8.74535 29.4089 16.1057C29.4089 23.4661 23.4561 29.4189 16.0957 29.4189Z"
            fill="white" fill-opacity="0.85" />
        <path
            d="M12.4224 19.7136C14.9827 22.2739 18.0535 24.2283 20.5227 24.2283C21.6858 24.2283 22.6824 23.7688 23.3516 23.0264C23.9919 22.3105 24.2126 21.7812 24.2126 21.2996C24.2126 20.9412 23.9829 20.6038 23.4114 20.1931L21.2861 18.6738C20.7556 18.2876 20.5215 18.2266 20.2041 18.2266C19.9377 18.2266 19.7102 18.2732 19.2585 18.5273L17.8657 19.292C17.7092 19.3752 17.6238 19.3997 17.4995 19.3997C17.343 19.3997 17.2353 19.3608 17.0745 19.2876C16.3975 18.9746 15.4741 18.2466 14.6384 17.4253C13.8249 16.6096 13.1846 15.7639 12.8428 15.1025C12.8061 15.0049 12.7551 14.8606 12.7551 14.7285C12.7551 14.6186 12.814 14.5166 12.8772 14.3945L13.6841 13.0017C13.9138 12.6255 13.977 12.4101 13.977 12.115C13.977 11.7754 13.8716 11.4136 13.5298 10.9497L12.0693 8.89771C11.6565 8.31836 11.3281 7.97095 10.8542 7.97095C10.2749 7.97095 9.5813 8.42822 9.0708 8.90649C8.34277 9.5979 7.95654 10.5823 7.95654 11.6721C7.95654 14.1514 9.87207 17.1611 12.4224 19.7136Z"
            fill="white" fill-opacity="0.85" />
    </g>
    <defs>
        <clipPath id="clip0_507_4054">
            <rect width="32.5554" height="32.2236" fill="white" />
        </clipPath>
    </defs>
</svg>