<svg width="35" height="35" viewBox="0 0 35 35" fill="none" xmlns="http://www.w3.org/2000/svg">
<g clip-path="url(#clip0_498_3894)">
<path d="M19.707 34.5942C20.8281 34.5942 21.6111 33.7046 22.1492 32.28L32.6069 4.94506C32.8533 4.3081 32.9853 3.73998 32.9853 3.26513C32.9853 2.24072 32.3535 1.59668 31.3291 1.59668C30.842 1.59668 30.2839 1.74097 29.647 1.98511L2.20312 12.4795C0.921874 12.9731 0 13.7539 0 14.885C0 16.2458 1.00049 16.7712 2.48486 17.216L11.1013 19.855C12.0835 20.1565 12.6865 20.1186 13.3848 19.4802L30.7219 3.28466C30.9326 3.10058 31.1665 3.11499 31.3218 3.26245C31.487 3.40771 31.4836 3.66161 31.3096 3.87011L15.1462 21.2307C14.5432 21.8913 14.47 22.5239 14.7649 23.5163L17.3416 32.0061C17.7986 33.5349 18.3262 34.5942 19.707 34.5942Z" fill="white" fill-opacity="0.85"/>
</g>
<defs>
<clipPath id="clip0_498_3894">
<rect width="34.9507" height="34.5942" fill="white"/>
</clipPath>
</defs>
</svg>
