<svg width="41" height="29" viewBox="0 0 41 29" fill="none" xmlns="http://www.w3.org/2000/svg">
<g clip-path="url(#clip0_506_4034)">
<path d="M2.88672 28.2939H36.884C37.615 28.2939 38.2297 27.6892 38.2297 26.9582C38.2297 26.2173 37.615 25.6104 36.884 25.6104H2.88672C2.15577 25.6104 1.54102 26.2173 1.54102 26.9582C1.54102 27.6892 2.15577 28.2939 2.88672 28.2939Z" fill="white" fill-opacity="0.85"/>
<path d="M8.77076 17.7815L35.6765 10.6218C38.8186 9.78198 40.9856 7.54565 40.1746 5.31006C39.4145 3.27637 36.4346 2.71534 33.6287 3.66504L24.3247 6.8418C23.7122 7.04932 23.2659 7.03272 22.5635 6.70093L9.29175 0.438473C8.86036 0.232175 8.40138 0.203366 7.97657 0.322018L6.93483 0.64819C6.5049 0.780025 6.36183 1.28637 6.73536 1.6665L15.8228 11.2817L16.1494 9.63648L7.76834 12.4985L11.5344 12.6091L1.95216 9.23096C1.49976 9.07129 1.11622 9.1433 0.689221 9.53588L0.264417 9.93188C-0.0702982 10.2334 -0.0847024 10.6411 0.2068 10.957L5.75001 17.1682C6.45094 17.959 7.47999 18.1252 8.77076 17.7815Z" fill="white" fill-opacity="0.85"/>
</g>
<defs>
<clipPath id="clip0_506_4034">
<rect width="40.6934" height="28.2939" fill="white"/>
</clipPath>
</defs>
</svg>
