<svg width="29" height="39" viewBox="0 0 29 39" fill="none" xmlns="http://www.w3.org/2000/svg">
<g clip-path="url(#clip0_493_3812)">
<path d="M27.8723 20.1811C27.8723 12.4805 21.6296 6.25 13.9311 6.25C12.9429 6.25 11.9868 6.37232 11.2187 6.53906L15.4932 2.27537C15.738 2.02049 15.8642 1.70238 15.8642 1.34691C15.8642 0.600337 15.3005 0 14.5562 0C14.1572 0 13.846 0.131835 13.6167 0.397702L7.03662 7.09985C6.73633 7.39013 6.5857 7.75244 6.5857 8.12353C6.5857 8.49901 6.72413 8.82689 7.03662 9.1494L13.6167 15.7971C13.866 16.0342 14.1672 16.1682 14.5562 16.1682C15.3005 16.1682 15.8642 15.5923 15.8642 14.8457C15.8642 14.4924 15.748 14.1743 15.4809 13.9316L10.781 9.23826C11.6557 9.01927 12.7651 8.91697 13.9311 8.91697C20.1477 8.91697 25.1931 13.9546 25.1931 20.1689C25.1931 26.3855 20.1477 31.4309 13.9311 31.4309C7.71678 31.4309 2.67918 26.3855 2.67918 20.1689C2.67918 19.3616 2.16209 18.7922 1.38012 18.7922C0.561519 18.7922 0 19.3616 0 20.1811C0 27.8796 6.23266 34.1223 13.9311 34.1223C21.6296 34.1223 27.8723 27.8796 27.8723 20.1811Z" fill="#FFFAE7"/>
</g>
<defs>
<clipPath id="clip0_493_3812">
<rect width="28.2263" height="38.126" fill="white"/>
</clipPath>
</defs>
</svg>
