<svg width="30" height="40" viewBox="0 0 30 40" fill="none" xmlns="http://www.w3.org/2000/svg">
    <path
        d="M28.949 16.748V32.0862C28.949 35.5347 27.0752 37.4084 23.5901 37.4084H5.36499C1.88599 37.4084 0 35.5469 0 32.0862V16.748C0 13.2874 1.89819 11.4136 5.3772 11.4136H9.92432V15.033H5.7312C4.35181 15.033 3.61328 15.7166 3.61328 17.1631V31.665C3.61328 33.1116 4.3457 33.8013 5.7251 33.8013H23.2239C24.585 33.8013 25.3418 33.1116 25.3418 31.665V17.1631C25.3418 15.7166 24.585 15.033 23.2239 15.033H19.0247V11.4136H23.5901C27.0752 11.4136 28.949 13.2935 28.949 16.748Z"
        fill="white" fill-opacity="0.85" />
    <path
        d="M14.4836 3.05786C13.5681 3.05786 12.8418 3.80249 12.8418 4.67529V20.3674L12.9822 22.6746L12.1826 21.5576L10.0708 19.3237C9.79614 19.0186 9.39331 18.8538 8.99048 18.8538C8.23364 18.8538 7.56836 19.4214 7.56836 20.2271C7.56836 20.6482 7.73315 20.9473 8.02002 21.2341L13.1958 26.2329C13.623 26.6479 14.0381 26.8005 14.4836 26.8005C14.917 26.8005 15.332 26.6479 15.7593 26.2329L20.9351 21.2341C21.228 20.9473 21.3806 20.6482 21.3806 20.2271C21.3806 19.4214 20.7092 18.8538 19.9524 18.8538C19.5496 18.8538 19.1589 19.0186 18.8843 19.3237L16.7664 21.5576L15.979 22.6685L16.1133 20.3674V4.67529C16.1133 3.80249 15.387 3.05786 14.4836 3.05786Z"
        fill="white" fill-opacity="0.85" />
</svg>
    