<svg width="35" height="34" viewBox="0 0 35 34" fill="none" xmlns="http://www.w3.org/2000/svg">
    <g clip-path="url(#clip0_525_62)">
        <path
            d="M15.3208 33.8164H18.5156C19.751 33.8164 20.7012 33.0669 20.9751 31.8691L21.6401 29.0046L22.1938 28.81L24.6875 30.3467C25.7344 30.9944 26.9341 30.8525 27.8113 29.9753L30.0151 27.7659C30.9089 26.8721 31.0476 25.6802 30.3999 24.6521L28.8432 22.1628L29.0378 21.6291L31.8957 20.9641C33.0813 20.6858 33.8386 19.7234 33.8386 18.4946V15.3784C33.8386 14.1597 33.0935 13.2073 31.8957 12.9189L29.06 12.2317L28.8533 11.678L30.4099 9.19872C31.0598 8.15844 30.9311 6.96655 30.0251 6.07495L27.8213 3.86328C26.9563 2.99829 25.7566 2.83203 24.7097 3.48193L22.2161 5.01856L21.6401 4.80176L20.9751 1.94726C20.7012 0.739499 19.751 0 18.5156 0H15.3208C14.0876 0 13.1353 0.743894 12.8613 1.94726L12.1985 4.80176L11.6103 5.01856L9.1267 3.48193C8.08202 2.83423 6.88232 2.99829 6.01733 3.86328L3.80346 6.07495C2.90747 6.96655 2.77881 8.15844 3.42871 9.19872L4.98535 11.678L4.76855 12.2317L1.94067 12.9189C0.742918 13.2095 0 14.1597 0 15.3784V18.4946C0 19.7234 0.755125 20.6858 1.94067 20.9641L4.79077 21.6291L4.99536 22.1628L3.43872 24.6521C2.79102 25.6802 2.92969 26.8721 3.81347 27.7659L6.02734 29.9753C6.90454 30.8525 8.10424 30.9944 9.14891 30.3467L11.6326 28.81L12.1985 29.0046L12.8613 31.8691C13.1353 33.0669 14.0876 33.8164 15.3208 33.8164ZM15.657 31.3213C15.345 31.3213 15.1772 31.1692 15.1206 30.8838L14.2073 27.0373C13.26 26.7998 12.3506 26.4316 11.6189 25.9839L8.25414 28.0725C8.01537 28.2224 7.76439 28.2124 7.54564 27.9758L5.80516 26.2353C5.5742 26.0166 5.57078 25.7956 5.7263 25.5369L7.81151 22.1721C7.4204 21.4604 7.0244 20.5576 6.78685 19.6147L2.9304 18.7136C2.645 18.657 2.4929 18.4893 2.4929 18.165V15.6958C2.4929 15.3716 2.63499 15.216 2.9304 15.1494L6.77684 14.2383C7.01878 13.261 7.45042 12.3315 7.78929 11.6665L5.71629 8.31176C5.54857 8.04296 5.55198 7.8142 5.78294 7.59325L7.53563 5.86497C7.76439 5.64842 7.98095 5.61619 8.25414 5.77611L11.5967 7.8347C12.2866 7.43675 13.2668 7.02538 14.2173 6.77904L15.1206 2.9326C15.1772 2.63719 15.345 2.4973 15.657 2.4973H18.1794C18.5037 2.4973 18.6614 2.62718 18.718 2.9326L19.6313 6.80126C20.6074 7.03319 21.4868 7.43358 22.2219 7.84471L25.5679 5.7827C25.8511 5.62278 26.0554 5.65062 26.2964 5.86937L28.0513 7.59764C28.27 7.81859 28.2756 8.04735 28.1057 8.31835L26.0371 11.6665C26.396 12.3293 26.8198 13.251 27.0596 14.2339L30.9082 15.1494C31.2036 15.216 31.3435 15.3716 31.3435 15.6958V18.165C31.3435 18.4893 31.1936 18.657 30.9082 18.7136L27.0474 19.6169C26.812 20.5554 26.426 21.4692 26.0149 22.1721L28.0957 25.5325C28.2534 25.7913 28.2478 26.01 28.0291 26.2288L26.2864 27.9692C26.0554 28.2102 25.8188 28.218 25.5679 28.0681L22.2119 25.9839C21.4814 26.4316 20.6128 26.7932 19.6313 27.0373L18.718 30.8838C18.6614 31.1792 18.5037 31.3213 18.1794 31.3213H15.657ZM16.9221 22.886C20.227 22.886 22.9038 20.2092 22.9038 16.9043C22.9038 13.5871 20.227 10.9204 16.9221 10.9204C13.605 10.9204 10.9282 13.5871 10.9282 16.9043C10.9282 20.2092 13.605 22.886 16.9221 22.886ZM16.9221 20.5107C14.9206 20.5107 13.3135 18.8936 13.3135 16.9043C13.3135 14.9028 14.9206 13.2956 16.9221 13.2956C18.9114 13.2956 20.5286 14.9028 20.5286 16.9043C20.5286 18.8936 18.9114 20.5107 16.9221 20.5107Z"
            fill="white" fill-opacity="0.85" />
    </g>
    <defs>
        <clipPath id="clip0_525_62">
            <rect width="34.1926" height="33.8208" fill="white" />
        </clipPath>
    </defs>
</svg>