<svg width="28" height="33" viewBox="0 0 28 33" fill="none" xmlns="http://www.w3.org/2000/svg">
<g clip-path="url(#clip0_543_224)">
<path d="M13.4827 32.8979C13.8 32.8979 14.2456 32.7698 14.6423 32.5562C23.7854 27.6978 26.9714 25.3174 26.9714 19.6533V7.92847C26.9714 5.79834 26.2451 4.96216 24.3896 4.1748C22.6807 3.4668 17.1387 1.5625 15.5029 1.02539C14.8743 0.823975 14.1113 0.695801 13.4827 0.695801C12.8601 0.695801 12.1033 0.848389 11.4746 1.02539C9.83887 1.50757 4.28467 3.479 2.58179 4.1748C0.726318 4.94995 0 5.79834 0 7.92847V19.6533C0 25.3174 3.20435 27.6733 12.323 32.5562C12.7258 32.7698 13.1775 32.8979 13.4827 32.8979ZM13.4827 29.2053C13.2874 29.2053 13.0859 29.1321 12.6709 28.8696C5.5542 24.4751 3.36914 23.4192 3.36914 19.104V8.42285C3.36914 7.78198 3.50952 7.51953 3.9917 7.32422C6.17676 6.44531 10.6812 4.92554 12.4023 4.27246C12.8906 4.10767 13.1958 4.03442 13.4827 4.03442C13.7756 4.03442 14.0808 4.10767 14.5691 4.27246C16.2903 4.92554 20.7703 6.50635 22.9858 7.32422C23.4619 7.50732 23.6023 7.78198 23.6023 8.42285V19.104C23.6023 23.4802 21.2341 24.6948 14.3005 28.8696C13.8855 29.126 13.6841 29.2053 13.4827 29.2053Z" fill="white" fill-opacity="0.85"/>
</g>
<defs>
<clipPath id="clip0_543_224">
<rect width="27.3254" height="32.8979" fill="white"/>
</clipPath>
</defs>
</svg>
