<svg width="144" height="173" viewBox="0 0 144 173" fill="none" xmlns="http://www.w3.org/2000/svg">
<path d="M66.1262 36.9038C67.2611 36.9038 67.9597 36.1254 68.1342 35.0875C70.1137 23.2667 69.9682 22.8054 82.9777 20.4124C84.084 20.2395 84.7821 19.5475 84.7821 18.4519C84.7821 17.3563 84.0549 16.6067 82.9486 16.4626C69.9682 14.3867 70.0846 13.8678 68.1342 1.81636C67.9597 0.749607 67.2611 0 66.1262 0C64.9913 0 64.2927 0.749607 64.1177 1.84519C62.226 13.6083 62.3133 14.0984 49.2747 16.4626C48.1684 16.6644 47.47 17.3563 47.47 18.4519C47.47 19.5475 48.1684 20.2395 49.362 20.4124C62.2551 22.6324 62.1679 23.1226 64.1177 35.0587C64.2927 36.1254 64.9913 36.9038 66.1262 36.9038Z" fill="#FFFAE7"/>
<path d="M29.5414 89.6934C31.1421 89.6934 32.3936 88.5404 32.5974 86.9546C35.2459 67.4071 35.6534 67.3206 56.3468 63.5436C57.9186 63.2554 59.0535 62.1312 59.0535 60.5166C59.0535 58.8732 57.8604 57.6621 56.3178 57.4604C35.7698 54.5775 35.2168 54.0872 32.5974 34.136C32.3936 32.4638 31.1713 31.3394 29.5414 31.3394C27.8824 31.3394 26.66 32.4638 26.4563 34.1937C24.0115 53.6833 23.313 53.6833 2.70675 57.4604C1.16419 57.7485 0 58.8732 0 60.5166C0 62.1888 1.16419 63.2554 3.056 63.5436C23.313 66.715 24.0115 67.2342 26.4563 86.8106C26.66 88.5404 27.8824 89.6934 29.5414 89.6934Z" fill="#FFFAE7"/>
<path d="M82.7159 172.525C85.3934 172.525 87.4892 170.651 87.8964 167.884C93.281 127.693 98.7815 122.042 138.451 117.718C141.304 117.4 143.312 115.267 143.312 112.557C143.312 109.875 141.333 107.771 138.48 107.396C98.8397 102.696 93.6882 97.3916 87.8964 57.201C87.431 54.4906 85.3643 52.5591 82.7159 52.5591C80.0383 52.5591 77.9716 54.4906 77.5353 57.201C72.1507 97.3916 66.6502 103.071 26.9801 107.396C24.1278 107.684 22.1196 109.847 22.1196 112.557C22.1196 115.238 24.0988 117.343 26.9511 117.718C66.5043 122.994 71.5394 127.722 77.5353 167.884C78.0007 170.651 80.0674 172.525 82.7159 172.525Z" fill="#FFFAE7"/>
</svg>
