<svg width="36" height="36" viewBox="0 0 36 36" fill="none" xmlns="http://www.w3.org/2000/svg">
    <g clip-path="url(#clip0_534_127)">
        <path
            d="M6.71571 33.1811C7.37953 33.6787 8.20521 33.5268 9.16638 32.8218L17.5131 26.7016L25.8497 32.8218C26.8231 33.5268 27.6388 33.6787 28.3126 33.1811C28.962 32.688 29.1095 31.8679 28.7225 30.7436L25.4405 20.9363L33.8505 14.8938C34.8195 14.2053 35.204 13.4617 34.9447 12.6726C34.6876 11.8957 33.944 11.5078 32.7477 11.52L22.4242 11.5854L19.2831 1.72485C18.9083 0.589596 18.3331 0 17.5131 0C16.6852 0 16.11 0.589596 15.7453 1.72485L12.5941 11.5854L2.26624 11.52C1.07435 11.5078 0.340713 11.8957 0.0836348 12.6704C-0.187848 13.4617 0.208878 14.2053 1.16786 14.8938L9.57778 20.9363L6.29579 30.7436C5.91884 31.8679 6.0663 32.688 6.71571 33.1811ZM9.0968 29.9163C9.06237 29.8818 9.07018 29.8596 9.0946 29.7664L12.1654 20.9399C12.4091 20.2466 12.319 19.7905 11.6801 19.363L3.99547 14.043C3.91661 13.9985 3.88219 13.9619 3.9044 13.9175C3.92442 13.873 3.96105 13.8708 4.06432 13.8708L13.4003 14.0425C14.129 14.0591 14.5228 13.8127 14.7367 13.1028L17.412 4.15671C17.4464 4.05563 17.4686 4.02121 17.5131 4.02121C17.5597 4.02121 17.5819 4.05563 17.6063 4.15671L20.2816 13.1028C20.4955 13.8127 20.8893 14.0591 21.6202 14.0425L30.9684 13.8708C31.0595 13.8708 31.1061 13.873 31.1161 13.9175C31.1383 13.9619 31.1039 13.9963 31.0251 14.043L23.3483 19.3674C22.7016 19.7927 22.6093 20.2466 22.8529 20.9399L25.9237 29.7664C25.9481 29.8596 25.9638 29.8818 25.9315 29.9163C25.8971 29.9607 25.8527 29.9263 25.7738 29.8818L18.3541 24.2082C17.7716 23.762 17.2467 23.762 16.6742 24.2082L9.2445 29.8818C9.17565 29.9263 9.13122 29.9607 9.0968 29.9163Z"
            fill="white" fill-opacity="0.85" />
    </g>
    <defs>
        <clipPath id="clip0_534_127">
            <rect width="35.3801" height="35.7798" fill="white" />
        </clipPath>
    </defs>
</svg>