<svg width="36" height="36" viewBox="0 0 36 36" fill="none" xmlns="http://www.w3.org/2000/svg">
<g clip-path="url(#clip0_537_172)">
<path d="M28.8534 32.4139C28.7594 32.7238 28.5779 32.9797 28.3126 33.1811C27.6388 33.6787 26.8231 33.5268 25.8497 32.8218L17.5153 26.7016L9.16638 32.8218C8.2074 33.5268 7.37953 33.6787 6.71791 33.1811C6.0685 32.688 5.91884 31.8679 6.29799 30.7436L9.57778 20.9363L1.16786 14.8938C0.208878 14.2053 -0.187848 13.4617 0.0836348 12.6704C0.340713 11.8957 1.07435 11.52 2.26844 11.52H7.89795L28.8534 32.4139ZM19.2853 1.72485L22.4264 11.52H32.7499C33.944 11.52 34.6876 11.8957 34.9469 12.6726C35.204 13.4617 34.8217 14.2053 33.8505 14.8938L25.5503 20.8574L13.4684 8.80225L15.7453 1.72485C16.11 0.589596 16.6852 0 17.5153 0C18.3331 0 18.9105 0.589596 19.2853 1.72485Z" fill="white" fill-opacity="0.85"/>
<path d="M31.1542 32.1455C31.5856 32.5825 32.3031 32.5869 32.7201 32.1455C33.1493 31.7019 33.1615 31.0088 32.7201 30.5774L7.0783 4.9922C6.65691 4.5608 5.93939 4.55079 5.49798 4.9922C5.07098 5.41139 5.07098 6.14112 5.49798 6.56031L31.1542 32.1455Z" fill="white" fill-opacity="0.85"/>
</g>
<defs>
<clipPath id="clip0_537_172">
<rect width="35.3845" height="35.7798" fill="white"/>
</clipPath>
</defs>
</svg>
