<svg width="36" height="36" viewBox="0 0 36 36" fill="none" xmlns="http://www.w3.org/2000/svg">
    <g clip-path="url(#clip0_529_89)">
        <path
            d="M6.71571 33.1811C7.37953 33.6787 8.20521 33.5268 9.16638 32.8218L17.5131 26.7016L25.8497 32.8218C26.8231 33.5268 27.6388 33.6787 28.3126 33.1811C28.962 32.688 29.1095 31.8679 28.7225 30.7436L25.4405 20.9363L33.8505 14.8938C34.8195 14.2053 35.204 13.4617 34.9447 12.6726C34.6876 11.8957 33.944 11.52 32.7477 11.52H22.4242L19.2831 1.72485C18.9083 0.589596 18.3331 0 17.5131 0C16.6852 0 16.11 0.589596 15.7453 1.72485L12.5941 11.52H2.26624C1.07435 11.52 0.340713 11.8957 0.0836348 12.6704C-0.187848 13.4617 0.208878 14.2053 1.16786 14.8938L9.57778 20.9363L6.29579 30.7436C5.91884 31.8679 6.0663 32.688 6.71571 33.1811Z"
            fill="white" fill-opacity="0.85" />
    </g>
    <defs>
        <clipPath id="clip0_529_89">
            <rect width="35.3801" height="35.7798" fill="white" />
        </clipPath>
    </defs>
</svg>