<svg width="22" height="23" viewBox="0 0 22 23" fill="none" xmlns="http://www.w3.org/2000/svg">
<g clip-path="url(#clip0_416_205)">
<path d="M17.8215 21.2137C17.3208 21.603 16.705 21.4885 16.0188 20.9694L11.1076 17.2595L6.20012 20.9694C5.50644 21.4885 4.89439 21.603 4.3899 21.2137C3.9003 20.8321 3.79644 20.1946 4.06719 19.3817L6.00722 13.4466L1.05522 9.79006C0.36896 9.28629 0.0759684 8.71372 0.276219 8.10307C0.472824 7.49999 1.02927 7.21371 1.875 7.21371H7.94719L9.79448 1.28626C10.0578 0.454198 10.4881 0 11.1076 0C11.727 0 12.1573 0.454198 12.417 1.28626L14.2679 7.21371H20.3476C21.1859 7.21371 21.7386 7.49999 21.9352 8.09926C22.1429 8.71372 21.8425 9.28629 21.1599 9.79006L16.2079 13.4466L18.1479 19.3817C18.415 20.1946 18.3112 20.8321 17.8215 21.2137Z" fill="#F2DBAF"/>
</g>
<defs>
<clipPath id="clip0_416_205">
<rect width="22" height="23" fill="white" transform="matrix(-1 0 0 1 22 0)"/>
</clipPath>
</defs>
</svg>
