<svg width="37" height="37" viewBox="0 0 37 37" fill="none" xmlns="http://www.w3.org/2000/svg">
    <path
        d="M18.0542 6.69556C19.0125 6.69556 19.7998 5.9021 19.7998 4.94995V1.75171C19.7998 0.799561 19.0125 0 18.0542 0C17.1021 0 16.3147 0.799561 16.3147 1.75171V4.94995C16.3147 5.9021 17.1021 6.69556 18.0542 6.69556ZM26.1047 10.0708C26.7639 10.7239 27.8931 10.7361 28.5706 10.0525L30.835 7.78198C31.4941 7.1167 31.4819 5.98145 30.8105 5.30396C30.1514 4.65088 29.0222 4.65698 28.3508 5.32837L26.0803 7.60498C25.4211 8.26416 25.4333 9.39331 26.1047 10.0708ZM29.4373 18.0725C29.4373 19.0186 30.2307 19.8059 31.1768 19.8059H34.3689C35.321 19.8059 36.1206 19.0186 36.1206 18.0725C36.1206 17.1204 35.321 16.3269 34.3689 16.3269H31.1768C30.2307 16.3269 29.4373 17.1204 29.4373 18.0725ZM26.0803 26.0986C25.4272 26.7639 25.4272 27.8931 26.1047 28.5645L28.3813 30.835C29.0466 31.4941 30.1758 31.4697 30.8472 30.8044C31.5063 30.1392 31.5063 29.01 30.8289 28.3447L28.5522 26.0803C27.887 25.4272 26.7578 25.4333 26.0803 26.0986ZM18.0542 29.4495C17.1021 29.4495 16.3147 30.2368 16.3147 31.1829V34.3872C16.3147 35.3394 17.1021 36.1389 18.0542 36.1389C19.0125 36.1389 19.7998 35.3394 19.7998 34.3872V31.1829C19.7998 30.2368 19.0125 29.4495 18.0542 29.4495ZM10.0342 26.0986C9.35669 25.4333 8.21533 25.4272 7.55615 26.0803L5.28564 28.3386C4.60815 29.0039 4.60815 30.1331 5.25513 30.7922C5.93262 31.4636 7.06787 31.488 7.72705 30.8228L10.0037 28.5645C10.6689 27.8931 10.6812 26.7639 10.0342 26.0986ZM6.68335 18.0725C6.68335 17.1204 5.88379 16.3269 4.93774 16.3269H1.74561C0.793457 16.3269 0 17.1204 0 18.0725C0 19.0186 0.793457 19.8059 1.74561 19.8059H4.93774C5.88379 19.8059 6.68335 19.0186 6.68335 18.0725ZM10.0037 10.0708C10.6689 9.40552 10.6812 8.25806 10.0342 7.60498L7.76367 5.32837C7.1106 4.66919 5.96924 4.65088 5.31006 5.30396C4.63867 5.98145 4.62646 7.1167 5.27954 7.76978L7.53784 10.0525C8.20923 10.7239 9.33838 10.7239 10.0037 10.0708Z"
        fill="white" fill-opacity="0.85" />
    <path
        d="M18.0479 26.4832C22.6927 26.4832 26.4646 22.7112 26.4646 18.0725C26.4646 13.4277 22.6927 9.65576 18.0479 9.65576C13.4031 9.65576 9.63721 13.4277 9.63721 18.0725C9.63721 22.7112 13.4031 26.4832 18.0479 26.4832ZM18.0479 23.0896C15.2708 23.0896 13.0308 20.8435 13.0308 18.0725C13.0308 15.2893 15.2708 13.0432 18.0479 13.0432C20.825 13.0432 23.0711 15.2893 23.0711 18.0725C23.0711 20.8435 20.825 23.0896 18.0479 23.0896Z"
        fill="white" fill-opacity="0.85" />
</svg>