<svg width="33" height="33" viewBox="0 0 33 33" fill="none" xmlns="http://www.w3.org/2000/svg">
<g clip-path="url(#clip0_505_3987)">
<path d="M16.0957 32.2014C24.9846 32.2014 32.2014 24.9924 32.2014 16.1057C32.2014 7.21679 24.9846 0 16.0957 0C7.20678 0 0 7.21679 0 16.1057C0 24.9924 7.20678 32.2014 16.0957 32.2014ZM16.0957 29.4189C8.73534 29.4189 2.78245 23.4661 2.78245 16.1057C2.78245 8.74535 8.73534 2.79026 16.0957 2.79026C23.4561 2.79026 29.4089 8.74535 29.4089 16.1057C29.4089 23.4661 23.4561 29.4189 16.0957 29.4189Z" fill="white" fill-opacity="0.85"/>
<path d="M12.9524 24.2375C13.8619 25.1548 14.8099 25.2065 15.766 24.2627L23.4252 16.6457C24.0067 16.0864 24.3897 15.688 24.3897 14.7768V11.8157C24.3897 11.1123 24.2132 10.7151 23.7339 10.2358L22.3203 8.83228C21.8433 8.36524 21.4439 8.09985 20.7305 8.09985H17.7006C16.8038 8.09985 16.3932 8.49512 15.8239 9.06445L8.22127 16.7214C7.28744 17.6653 7.3348 18.6077 8.24202 19.5149L12.9524 24.2375ZM18.8737 13.6037C18.4367 13.1767 18.4344 12.4492 18.8758 11.99C19.3094 11.5508 20.0382 11.5508 20.4796 11.99C20.9245 12.427 20.921 13.1423 20.4696 13.5915C20.026 14.053 19.3129 14.043 18.8737 13.6037Z" fill="white" fill-opacity="0.85"/>
</g>
<defs>
<clipPath id="clip0_505_3987">
<rect width="32.5554" height="32.2236" fill="white"/>
</clipPath>
</defs>
</svg>
