<svg width="40" height="28" viewBox="0 0 40 28" fill="none" xmlns="http://www.w3.org/2000/svg">
<g clip-path="url(#clip0_526_71)">
<path d="M0 21.1892C0 21.9021 0.302488 22.4028 0.924312 22.6899C2.72412 23.5544 3.70605 24.5407 4.71728 26.6084C5.03222 27.2136 5.53417 27.5183 6.19139 27.5183H32.7976C33.4548 27.5183 33.9568 27.2136 34.2717 26.6084C35.2851 24.5407 36.2649 23.5544 38.0647 22.6899C38.6965 22.4028 38.989 21.9021 38.989 21.1892V6.32909C38.989 5.614 38.6965 5.12329 38.0647 4.83618C36.2649 3.96386 35.2851 2.98535 34.2717 0.90771C33.9568 0.312498 33.4548 0 32.7976 0H6.19139C5.53417 0 5.03222 0.312498 4.71728 0.90771C3.70605 2.98535 2.72412 3.96386 0.924312 4.83618C0.302488 5.12329 0 5.614 0 6.32909V21.1892ZM2.68357 20.76V6.7661C4.58274 5.96238 5.79539 4.7263 6.72581 2.68138H32.2632C33.1936 4.7263 34.4062 5.96238 36.3076 6.7661V20.76C34.4062 21.5659 33.1936 22.7898 32.2632 24.8347H6.72581C5.79539 22.7898 4.58274 21.5659 2.68357 20.76ZM6.90696 20.5517C6.90696 21.3916 7.47166 21.9607 8.3115 21.9607H30.6775C31.5273 21.9607 32.082 21.3916 32.082 20.5517V6.99657C32.082 6.14452 31.5273 5.58763 30.6775 5.58763H8.3115C7.47166 5.58763 6.90696 6.14452 6.90696 6.99657V20.5517ZM8.74631 19.7725V17.1216H10.8388V20.1291H9.09299C8.86521 20.1291 8.74631 20.0002 8.74631 19.7725ZM8.74192 15.2866V12.2617H10.841V15.2866H8.74192ZM8.74192 10.4311V7.77147C8.74192 7.54149 8.86301 7.41258 9.0908 7.41258H10.841V10.4311H8.74192ZM28.1479 10.4311V7.41258H29.8982C30.1282 7.41258 30.2571 7.54149 30.2571 7.77147V10.4311H28.1479ZM28.1479 15.2866V12.2617H30.2571V15.2866H28.1479ZM28.1479 20.1335V17.115H30.2571V19.7747C30.2571 20.0046 30.1282 20.1335 29.8982 20.1335H28.1479ZM12.676 20.1291V7.41697H26.323V20.1291H12.676Z" fill="white" fill-opacity="0.85"/>
</g>
<defs>
<clipPath id="clip0_526_71">
<rect width="39.343" height="27.5405" fill="white"/>
</clipPath>
</defs>
</svg>
