<svg width="32" height="39" viewBox="0 0 32 39" fill="none" xmlns="http://www.w3.org/2000/svg">
<g clip-path="url(#clip0_505_4024)">
<path d="M10.7095 30.104C11.3047 30.104 11.686 29.7183 11.6716 29.1719L11.1799 12.3015C11.1655 11.7595 10.7698 11.396 10.209 11.396C9.62035 11.396 9.2412 11.7695 9.25561 12.3259L9.74731 29.1785C9.76171 29.7305 10.1496 30.104 10.7095 30.104ZM15.385 30.104C15.9592 30.104 16.365 29.7227 16.365 29.1807V12.3193C16.365 11.7673 15.9592 11.396 15.385 11.396C14.8086 11.396 14.4028 11.7673 14.4028 12.3193V29.1807C14.4028 29.7227 14.8086 30.104 15.385 30.104ZM20.0483 30.104C20.6081 30.104 20.9961 29.7405 21.0105 29.1885L21.5022 12.3259C21.5166 11.7695 21.1374 11.406 20.5588 11.406C20.0002 11.406 19.6023 11.7595 19.5879 12.3115L19.0962 29.1719C19.0818 29.7183 19.4531 30.104 20.0483 30.104ZM8.36816 7.07031H10.9065V3.79028C10.9065 2.89721 11.5229 2.31957 12.4936 2.31957H18.2419C19.2126 2.31957 19.8291 2.89721 19.8291 3.79028V7.07031H22.3674V3.6704C22.3674 1.37231 20.8999 0 18.4036 0H12.332C9.8457 0 8.36816 1.37231 8.36816 3.6704V7.07031ZM1.21972 8.5388H29.5381C30.2226 8.5388 30.7578 8.00242 30.7578 7.32787C30.7578 6.6477 30.2226 6.11352 29.5381 6.11352H1.21972C0.555173 6.11352 0 6.65771 0 7.32787C0 8.01243 0.555173 8.5388 1.21972 8.5388ZM8.19311 35.2829H22.5869C24.8447 35.2829 26.3723 33.8371 26.4866 31.5749L27.6177 8.24925H25.0459L23.9736 31.1838C23.927 32.1616 23.2417 32.8423 22.3003 32.8423H8.4475C7.52831 32.8423 6.83079 32.1516 6.78416 31.1838L5.65965 8.25926H3.15014L4.28125 31.585C4.39551 33.8493 5.90088 35.2829 8.19311 35.2829Z" fill="#E23636"/>
</g>
<defs>
<clipPath id="clip0_505_4024">
<rect width="31.1118" height="38.0771" fill="white"/>
</clipPath>
</defs>
</svg>
