<svg width="38" height="38" viewBox="0 0 38 38" fill="none" xmlns="http://www.w3.org/2000/svg">
<g clip-path="url(#clip0_537_161)">
<path d="M10.5525 17.8417V18.5819C10.698 18.4844 10.8487 18.3882 11.0054 18.2941L25.4128 32.6881C23.5261 34.4031 21.1087 35.235 18.0434 35.235C11.8049 35.235 7.10791 31.1657 7.10791 24.0997V14.4003L10.5525 17.8417ZM20.3454 2.95889V16.7291C20.8417 16.8224 21.3037 16.9623 21.7233 17.1222V5.32656C21.7233 4.37295 22.4953 3.60318 23.4467 3.60318C24.4103 3.60318 25.1679 4.37076 25.1679 5.32656V21.6688C25.1679 22.2575 25.4145 22.4552 25.7456 22.4552C26.0187 22.4552 26.281 22.2775 26.5097 21.7533L28.6601 17.0011C29.2839 15.6881 29.9301 15.1225 30.9003 15.1752C31.7954 15.2191 32.4057 15.8363 32.3618 16.7389C32.3222 17.4594 31.7858 19.0629 31.3769 20.3551C30.6428 22.8322 29.8062 25.5045 28.7297 27.7525L16.903 15.9319V2.95889C16.903 2.00747 17.6606 1.2377 18.6242 1.2377C19.5778 1.2377 20.3454 2.00747 20.3454 2.95889ZM15.395 4.35977V14.4246L11.9504 10.9817V4.35977C11.9504 3.41055 12.7224 2.64639 13.6716 2.64639C14.633 2.64639 15.395 3.41055 15.395 4.35977ZM10.5525 9.24575V9.58449L8.51732 7.55036C8.61952 7.5301 8.72534 7.52017 8.83349 7.52017C9.78271 7.52017 10.5525 8.29214 10.5525 9.24575Z" fill="white" fill-opacity="0.85"/>
<path d="M30.6372 35.3605C31.0642 35.7775 31.7961 35.7919 32.2131 35.3605C32.6423 34.9191 32.6445 34.2238 32.2131 33.7823L3.71264 5.29628C3.28124 4.86488 2.56591 4.85487 2.12231 5.29628C1.70532 5.72548 1.70532 6.4452 2.12231 6.8744L30.6372 35.3605Z" fill="white" fill-opacity="0.85"/>
</g>
<defs>
<clipPath id="clip0_537_161">
<rect width="37.5898" height="37.4842" fill="white"/>
</clipPath>
</defs>
</svg>
