<svg width="36" height="35" viewBox="0 0 36 35" fill="none" xmlns="http://www.w3.org/2000/svg">
    <path
        d="M21.165 18.8911C18.8763 20.7374 17.4039 23.5612 17.4039 26.7007C17.4039 27.5015 17.4988 28.2812 17.6879 29.0251H3.52907C1.84207 29.0251 0.819336 28.2122 0.819336 26.8857C0.819336 22.8396 5.93137 17.2707 14.0801 17.2707C16.8124 17.2707 19.2036 17.8972 21.165 18.8911ZM20.4029 7.5019C20.4029 11.4192 17.5376 14.4707 14.0901 14.4707C10.6526 14.4707 7.78737 11.4192 7.78737 7.5242C7.78737 3.7234 10.677 0.715332 14.0901 0.715332C17.511 0.715332 20.4029 3.679 20.4029 7.5019Z"
        fill="white" fill-opacity="0.85" />
    <path
        d="M35.4661 26.7007C35.4661 31.0769 31.8188 34.7085 27.4604 34.7085C23.0798 34.7085 19.4648 31.0991 19.4648 26.7007C19.4648 22.3223 23.0798 18.6973 27.4604 18.6973C31.8511 18.6973 35.4661 22.3123 35.4661 26.7007ZM26.4761 22.6135V25.7085H23.3689C22.7781 25.7085 22.3767 26.1042 22.3767 26.7029C22.3767 27.3115 22.7847 27.6973 23.3689 27.6973H26.4761V30.8088C26.4761 31.3953 26.8618 31.7888 27.4604 31.7888C28.0691 31.7888 28.4548 31.3953 28.4548 30.8088V27.6973H31.5542C32.1484 27.6973 32.5442 27.3115 32.5442 26.7029C32.5442 26.1042 32.1484 25.7085 31.5542 25.7085H28.4548V22.6135C28.4548 22.0327 28.0691 21.6213 27.4604 21.6213C26.8618 21.6213 26.4761 22.0393 26.4761 22.6135Z"
        fill="white" fill-opacity="0.85" />
</svg>
    