<svg width="33" height="33" viewBox="0 0 33 33" fill="none" xmlns="http://www.w3.org/2000/svg">
    <g clip-path="url(#clip0_498_3873)">
        <path
            d="M16.0957 32.2014C24.9846 32.2014 32.2014 24.9924 32.2014 16.1057C32.2014 7.21679 24.9846 0 16.0957 0C7.20678 0 0 7.21679 0 16.1057C0 24.9924 7.20678 32.2014 16.0957 32.2014ZM16.0957 29.4189C8.73534 29.4189 2.78245 23.4661 2.78245 16.1057C2.78245 8.74535 8.73534 2.79026 16.0957 2.79026C23.4561 2.79026 29.4089 8.74535 29.4089 16.1057C29.4089 23.4661 23.4561 29.4189 16.0957 29.4189Z"
            fill="white" fill-opacity="0.85" />
        <path
            d="M9.00342 24.0356H23.1653C23.7862 24.0356 24.0899 23.6167 24.0899 23.0334C24.0899 21.3276 21.5569 16.8579 16.0833 16.8579C10.6197 16.8579 8.08887 21.3276 8.08887 23.0334C8.08887 23.6167 8.38257 24.0356 9.00342 24.0356ZM16.0833 15.6113C18.2974 15.6235 20.0787 13.7468 20.0787 11.2541C20.0787 8.90796 18.2974 6.97241 16.0833 6.97241C13.8714 6.97241 12.0901 8.90796 12.0901 11.2541C12.0901 13.7468 13.8714 15.6013 16.0833 15.6113Z"
            fill="white" fill-opacity="0.85" />
    </g>
    <defs>
        <clipPath id="clip0_498_3873">
            <rect width="32.5554" height="32.2236" fill="white" />
        </clipPath>
    </defs>
</svg>