<svg width="34" height="31" viewBox="0 0 34 31" fill="none" xmlns="http://www.w3.org/2000/svg">
<g clip-path="url(#clip0_475_6)">
<path d="M20.2085 2.12524L32.4971 23.6106C32.9087 24.3262 33.1162 25.1028 33.1162 25.8572C33.1162 28.2012 31.4814 30.0933 28.8445 30.0933H4.26391C1.63476 30.0933 0 28.2012 0 25.8572C0 25.1028 0.199707 24.3384 0.621337 23.6128L12.9099 2.12524C13.7141 0.708739 15.125 0 16.5603 0C17.9834 0 19.3977 0.702147 20.2085 2.12524ZM14.7898 23.0073C14.7898 23.9463 15.5903 24.6684 16.5625 24.6684C17.5246 24.6684 18.3286 23.9563 18.3286 23.0073C18.3286 22.0505 17.5347 21.3384 16.5625 21.3384C15.5781 21.3384 14.7898 22.0605 14.7898 23.0073ZM15.0498 10.0259L15.2605 18.1121C15.2859 18.9456 15.7446 19.4155 16.5625 19.4155C17.3437 19.4155 17.8103 18.9578 17.8357 18.1055L18.0486 10.0359C18.0718 9.18041 17.439 8.5686 16.5481 8.5686C15.6472 8.5686 15.0266 9.1704 15.0498 10.0259Z" fill="black" fill-opacity="0.85"/>
</g>
<defs>
<clipPath id="clip0_475_6">
<rect width="33.4702" height="30.2178" fill="white"/>
</clipPath>
</defs>
</svg>
