<svg width="26" height="26" viewBox="0 0 26 26" fill="none" xmlns="http://www.w3.org/2000/svg">
    <g clip-path="url(#clip0_584_35)">
        <path
            d="M0.435616 24.6624C1.03473 25.2415 2.01788 25.2327 2.58941 24.6712L12.5318 14.7188L22.4798 24.669C23.0523 25.2415 24.0445 25.2493 24.6214 24.6602C25.2105 24.0611 25.2127 23.0889 24.6302 22.5164L14.6922 12.5662L24.6302 2.62038C25.2127 2.04568 25.2205 1.06351 24.6214 0.476598C24.0323 -0.102499 23.0523 -0.104696 22.4798 0.467809L12.5318 10.4158L2.58941 0.465612C2.01788 -0.0959075 1.02472 -0.114706 0.435616 0.474401C-0.141283 1.07352 -0.134691 2.05447 0.429025 2.61599L10.3814 12.5662L0.429025 22.5186C-0.134691 23.0823 -0.15349 24.0755 0.435616 24.6624Z"
            fill="white" fill-opacity="0.85" />
    </g>
    <defs>
        <clipPath id="clip0_584_35">
            <rect width="25.4254" height="25.1002" fill="white" />
        </clipPath>
    </defs>
</svg>
    