<svg width="49" height="32" viewBox="0 0 49 32" fill="none" xmlns="http://www.w3.org/2000/svg">
<g clip-path="url(#clip0_17_190)">
<path d="M44.5 0H4.5C2.29086 0 0.5 1.79086 0.5 4V28C0.5 30.2091 2.29086 32 4.5 32H44.5C46.7091 32 48.5 30.2091 48.5 28V4C48.5 1.79086 46.7091 0 44.5 0Z" fill="#006FAC"/>
<path fill-rule="evenodd" clip-rule="evenodd" d="M16.5 28C16.5 29.0609 16.9214 30.0783 17.6716 30.8284C18.4217 31.5786 19.4391 32 20.5 32H44.5C45.5609 32 46.5783 31.5786 47.3284 30.8284C48.0786 30.0783 48.5 29.0609 48.5 28V4C48.5 2.93913 48.0786 1.92172 47.3284 1.17157C46.5783 0.421427 45.5609 0 44.5 0L20.5 0C19.4391 0 18.4217 0.421427 17.6716 1.17157C16.9214 1.92172 16.5 2.93913 16.5 4V28Z" fill="#FFFAE7"/>
<path fill-rule="evenodd" clip-rule="evenodd" d="M32.56 11.592H30.128L31.344 8.662L32.56 11.592ZM34.159 15.392H36.909L32.956 6.437H29.81L25.857 15.392H28.543L29.285 13.601H33.405L34.159 15.392ZM46.082 15.392H48.5V6.437H44.739L42.73 12.014L40.734 6.437H36.91L36.909 15.392H39.328V9.123L41.631 15.393H43.781L46.083 9.11L46.082 15.392ZM31.729 23.575V22.18H36.782V20.159H31.729V18.764H36.909V16.692H29.285V25.647H36.91V23.575H31.729ZM46.041 21.148L48.5 23.764V18.554L46.041 21.148ZM45.29 25.648H48.5L44.253 21.144L48.5 16.692H45.34L42.718 19.557L40.121 16.692H36.909L41.132 21.169L36.91 25.647H40.032L42.667 22.756L45.29 25.648ZM44.5 32C45.5609 32 46.5783 31.5786 47.3284 30.8284C48.0786 30.0783 48.5 29.0609 48.5 28V26.93H44.64L42.652 24.732L40.654 26.93H27.926V16.686H23.817L28.913 5.154H33.828L35.582 9.104V5.154H41.665L42.721 8.131L43.785 5.154H48.5V4C48.5 2.93913 48.0786 1.92172 47.3284 1.17157C46.5783 0.421427 45.5609 0 44.5 0L16.5 0V32H44.5Z" fill="#006FAC"/>
</g>
<defs>
<clipPath id="clip0_17_190">
<rect width="48" height="32" fill="white" transform="translate(0.5)"/>
</clipPath>
</defs>
</svg>
