<svg width="49" height="32" viewBox="0 0 49 32" fill="none" xmlns="http://www.w3.org/2000/svg">
<g clip-path="url(#clip0_17_163)">
<path d="M44.499 0.700195H4.50095C2.67786 0.700195 1.19995 2.1781 1.19995 4.0012V27.9992C1.19995 29.8223 2.67786 31.3002 4.50095 31.3002H44.499C46.322 31.3002 47.7999 29.8223 47.7999 27.9992V4.0012C47.7999 2.1781 46.322 0.700195 44.499 0.700195Z" fill="#FFFAE7"/>
<path d="M44.499 1.4C45.1886 1.40079 45.8497 1.67508 46.3373 2.16269C46.8249 2.6503 47.0992 3.31142 47.1 4.001V28C47.0992 28.6896 46.8249 29.3507 46.3373 29.8383C45.8497 30.3259 45.1886 30.6002 44.499 30.601H4.5C3.81042 30.5999 3.14941 30.3254 2.66199 29.8376C2.17456 29.3498 1.90053 28.6886 1.9 27.999V4C1.90106 3.31059 2.17546 2.64973 2.66305 2.16234C3.15063 1.67494 3.81159 1.40079 4.501 1.4H44.499ZM44.499 1.25011e-07H4.5C3.97463 1.08594e-07 3.4544 0.103496 2.96904 0.304578C2.48367 0.505659 2.04267 0.800386 1.67122 1.17193C1.29977 1.54347 1.00515 1.98454 0.804195 2.46996C0.603235 2.95538 0.499869 3.47563 0.5 4.001L0.5 28C0.5 28.5254 0.603496 29.0456 0.804578 29.531C1.00566 30.0163 1.30039 30.4573 1.67193 30.8288C2.04347 31.2002 2.48454 31.4948 2.96996 31.6958C3.45538 31.8968 3.97563 32.0001 4.501 32H44.5C45.0254 32 45.5456 31.8965 46.031 31.6954C46.5163 31.4943 46.9573 31.1996 47.3288 30.8281C47.7002 30.4565 47.9948 30.0155 48.1958 29.53C48.3968 29.0446 48.5001 28.5244 48.5 27.999V4C48.5 3.47463 48.3965 2.9544 48.1954 2.46904C47.9943 1.98367 47.6996 1.54267 47.3281 1.17122C46.9565 0.799772 46.5155 0.505155 46.03 0.304195C45.5446 0.103235 45.0244 -0.000131218 44.499 1.25011e-07Z" fill="#DDDDDD"/>
<path fill-rule="evenodd" clip-rule="evenodd" d="M24.324 10.624L21.894 21.981H18.956L21.386 10.624H24.324ZM36.684 17.957L38.232 13.692L39.122 17.957H36.684ZM39.963 21.981H42.68L40.31 10.624H37.8C37.5323 10.6221 37.2701 10.7004 37.0474 10.8489C36.8246 10.9974 36.6513 11.2092 36.55 11.457L32.142 21.981H35.227L35.839 20.285H39.609L39.963 21.981ZM32.295 18.273C32.307 15.275 28.149 15.11 28.178 13.771C28.187 13.364 28.575 12.931 29.424 12.82C30.4178 12.7252 31.4188 12.9008 32.321 13.328L32.837 10.92C31.9583 10.5901 31.0277 10.4194 30.089 10.416C27.185 10.416 25.14 11.96 25.123 14.171C25.105 15.806 26.583 16.718 27.696 17.261C28.84 17.818 29.225 18.175 29.22 18.672C29.212 19.435 28.307 19.771 27.462 19.784C26.4113 19.8073 25.3721 19.5604 24.444 19.067L23.911 21.555C24.9528 21.9598 26.0615 22.1647 27.179 22.159C30.265 22.159 32.285 20.634 32.295 18.273ZM20.125 10.623L15.365 21.981H12.26L9.91805 12.917C9.89729 12.7046 9.82204 12.5011 9.69958 12.3262C9.57712 12.1514 9.4116 12.0111 9.21904 11.919C8.29689 11.4782 7.32339 11.154 6.32104 10.954L6.39104 10.624H11.391C11.7177 10.6239 12.0337 10.7405 12.282 10.9529C12.5303 11.1652 12.6945 11.4593 12.745 11.782L13.982 18.354L17.04 10.624L20.125 10.623Z" fill="#233065"/>
</g>
<defs>
<clipPath id="clip0_17_163">
<rect width="48" height="32" fill="white" transform="translate(0.5)"/>
</clipPath>
</defs>
</svg>
