<svg width="100" height="100" viewBox="0 0 100 100" fill="none" xmlns="http://www.w3.org/2000/svg">
<path d="M50 87.5C70.7107 87.5 87.5 70.7107 87.5 50C87.5 29.2893 70.7107 12.5 50 12.5C29.2893 12.5 12.5 29.2893 12.5 50C12.5 70.7107 29.2893 87.5 50 87.5Z" fill="#AA1428"/>
<path d="M50 80C66.5685 80 80 66.5685 80 50C80 33.4315 66.5685 20 50 20C33.4315 20 20 33.4315 20 50C20 66.5685 33.4315 80 50 80Z" fill="white"/>
<path d="M50 72.5C62.4264 72.5 72.5 62.4264 72.5 50C72.5 37.5736 62.4264 27.5 50 27.5C37.5736 27.5 27.5 37.5736 27.5 50C27.5 62.4264 37.5736 72.5 50 72.5Z" fill="#AA1428"/>
<path d="M50 65C58.2843 65 65 58.2843 65 50C65 41.7157 58.2843 35 50 35C41.7157 35 35 41.7157 35 50C35 58.2843 41.7157 65 50 65Z" fill="#000042"/>
<path d="M50 35L53.3525 45.3857L64.2658 45.3647L55.4243 51.7625L58.8168 62.1353L50 55.7035L41.1831 62.1353L44.5755 51.7625L35.7341 45.3647L46.6475 45.3857L50 35Z" fill="white"/>
</svg>
