<svg width="26" height="18" viewBox="0 0 26 18" fill="none" xmlns="http://www.w3.org/2000/svg">
<path d="M16.3731 6.54868H3.74963C3.17852 6.54868 2.86222 6.85548 2.86222 7.43101V13.6163C2.86222 14.1715 3.17852 14.5017 3.74963 14.5017H19.392C19.9631 14.5017 20.2853 14.1715 20.2853 13.6163V8.74973L22.05 6.98788C22.0536 7.02484 22.0543 7.06404 22.0543 7.10382V13.9436C22.0543 15.3343 21.2576 16.1144 19.8519 16.1144H3.29275C1.88695 16.1144 1.09033 15.3343 1.09033 13.9436V7.10382C1.09033 5.71015 1.88695 4.93002 3.29275 4.93002H17.9963L16.3731 6.54868Z" fill="#0D0D0D"/>
<path d="M15.4147 10.8874L17.0489 10.2009L23.3662 3.89867L22.0863 2.63063L15.7749 8.92694L15.0632 10.5281C14.9724 10.7501 15.2126 10.9663 15.4147 10.8874ZM23.9578 3.3114L24.4703 2.79133C24.8101 2.44948 24.8276 1.98201 24.5025 1.66062L24.2829 1.44441C23.9929 1.16684 23.5068 1.21359 23.1876 1.53498L22.6779 2.0346L23.9578 3.3114Z" fill="#0D0D0D"/>
<path d="M12.5035 11.6734C13.139 11.6734 13.6604 11.1562 13.6604 10.5222C13.6604 9.88821 13.139 9.37399 12.5035 9.37399C11.8709 9.37399 11.3525 9.88821 11.3525 10.5222C11.3525 11.1562 11.8709 11.6734 12.5035 11.6734Z" fill="#0D0D0D"/>
<path d="M9.1383 11.6734C9.77093 11.6734 10.2893 11.1562 10.2893 10.5222C10.2893 9.88821 9.77093 9.37399 9.1383 9.37399C8.49982 9.37399 7.98145 9.88821 7.98145 10.5222C7.98145 11.1562 8.49982 11.6734 9.1383 11.6734Z" fill="#0D0D0D"/>
<path d="M5.76767 11.6734C6.4003 11.6734 6.91867 11.1562 6.91867 10.5222C6.91867 9.88821 6.4003 9.37399 5.76767 9.37399C5.12924 9.37399 4.61377 9.88821 4.61377 10.5222C4.61377 11.1562 5.12924 11.6734 5.76767 11.6734Z" fill="#0D0D0D"/>
</svg>
