<svg width="12" height="12" viewBox="0 0 12 12" fill="none" xmlns="http://www.w3.org/2000/svg">
<g clip-path="url(#clip0_325_1875)">
<path d="M2.58853 11.102C2.81413 11.2848 3.0932 11.2299 3.41138 10.9785L5.94553 8.97708L8.4771 10.9785C8.79903 11.2299 9.07553 11.2848 9.30369 11.102C9.52435 10.9218 9.57286 10.6216 9.44594 10.2239L8.44758 7.01903L11.0017 5.04453C11.3212 4.79964 11.4526 4.52862 11.3634 4.24035C11.2755 3.95611 11.0237 3.81988 10.6295 3.81988H7.49569L6.54224 0.619048C6.4191 0.214926 6.2244 0 5.94553 0C5.66525 0 5.47057 0.214926 5.34999 0.619048L4.39395 3.81988H1.25772C0.865923 3.81988 0.61675 3.95611 0.528796 4.23905C0.43589 4.52862 0.57098 4.79964 0.887967 5.04453L3.44208 7.01903L2.4437 10.2239C2.31937 10.6216 2.36787 10.9218 2.58853 11.102Z" fill="#0D0D0D"/>
</g>
<defs>
<clipPath id="clip0_325_1875">
<rect width="11" height="12" fill="white" transform="translate(0.5)"/>
</clipPath>
</defs>
</svg>
