<svg width="21" height="21" viewBox="0 0 21 21" fill="none" xmlns="http://www.w3.org/2000/svg">
<path d="M0 8.56907C0 13.2927 3.8314 17.1351 8.55031 17.1351C10.2797 17.1351 11.8779 16.6028 13.2071 15.7029L18.0262 20.5355C18.3287 20.8469 18.7466 20.9975 19.1753 20.9975C20.1001 20.9975 20.7634 20.2884 20.7634 19.3865C20.7634 18.9565 20.6133 18.5622 20.311 18.2538L15.5268 13.4397C16.5145 12.0753 17.1032 10.3892 17.1032 8.56907C17.1032 3.83981 13.2691 0 8.55031 0C3.8314 0 0 3.83981 0 8.56907ZM2.1796 8.56907C2.1796 5.04869 5.03763 2.18438 8.55031 2.18438C12.0655 2.18438 14.9154 5.04869 14.9154 8.56907C14.9154 12.0838 12.0655 14.9482 8.55031 14.9482C5.03763 14.9482 2.1796 12.0838 2.1796 8.56907Z" fill="#FFFAE7"/>
</svg>
