<svg width="49" height="32" viewBox="0 0 49 32" fill="none" xmlns="http://www.w3.org/2000/svg">
<g clip-path="url(#clip0_17_153)">
<path d="M45.166 1.33301H3.83301C2.72844 1.33301 1.83301 2.22844 1.83301 3.33301V28.666C1.83301 29.7706 2.72844 30.666 3.83301 30.666H45.166C46.2706 30.666 47.166 29.7706 47.166 28.666V3.33301C47.166 2.22844 46.2706 1.33301 45.166 1.33301Z" fill="#FFFAE7"/>
<path d="M44.5 1.333C45.2073 1.333 45.8857 1.61399 46.3859 2.11415C46.886 2.61431 47.167 3.29267 47.167 4V28C47.167 28.7073 46.886 29.3857 46.3859 29.8859C45.8857 30.386 45.2073 30.667 44.5 30.667H4.5C3.79267 30.667 3.11431 30.386 2.61415 29.8859C2.11399 29.3857 1.833 28.7073 1.833 28V4C1.833 3.29267 2.11399 2.61431 2.61415 2.11415C3.11431 1.61399 3.79267 1.333 4.5 1.333H44.5ZM44.5 0H4.5C3.43995 0.00264025 2.42406 0.424915 1.67449 1.17449C0.924915 1.92406 0.50264 2.93995 0.5 4V28C0.50264 29.0601 0.924915 30.0759 1.67449 30.8255C2.42406 31.5751 3.43995 31.9974 4.5 32H44.5C45.5601 31.9974 46.5759 31.5751 47.3255 30.8255C48.0751 30.0759 48.4974 29.0601 48.5 28V4C48.4974 2.93995 48.0751 1.92406 47.3255 1.17449C46.5759 0.424915 45.5601 0.00264025 44.5 0Z" fill="#DDDDDD"/>
<path d="M14.068 27.9751V26.3801C14.0774 26.2459 14.058 26.1113 14.0112 25.9852C13.9644 25.8591 13.8912 25.7444 13.7966 25.6488C13.7019 25.5533 13.588 25.479 13.4624 25.4309C13.3367 25.3828 13.2023 25.3621 13.068 25.3701C12.8922 25.3584 12.7165 25.3942 12.5593 25.4739C12.4022 25.5537 12.2694 25.6743 12.175 25.8231C12.0889 25.6789 11.9653 25.5608 11.8174 25.4812C11.6695 25.4016 11.5028 25.3636 11.335 25.3711C11.1889 25.3637 11.0434 25.3946 10.9129 25.4607C10.7824 25.5269 10.6715 25.6259 10.591 25.7481V25.4351H10.04V27.9751H10.599V26.5771C10.5877 26.4904 10.5955 26.4023 10.6219 26.319C10.6483 26.2357 10.6927 26.1592 10.7519 26.0949C10.8111 26.0306 10.8838 25.9801 10.9647 25.947C11.0455 25.9138 11.1327 25.8989 11.22 25.9031C11.587 25.9031 11.773 26.1411 11.773 26.5721V27.9851H12.332V26.5771C12.3208 26.4905 12.3288 26.4024 12.3552 26.3192C12.3817 26.2359 12.4261 26.1595 12.4853 26.0953C12.5445 26.031 12.6171 25.9805 12.6979 25.9473C12.7787 25.9141 12.8658 25.899 12.953 25.9031C13.331 25.9031 13.512 26.1411 13.512 26.5721V27.9851L14.068 27.9751ZM22.325 25.4331H21.416V24.6631H20.857V25.4331H20.353V25.9391H20.869V27.1081C20.869 27.6981 21.097 28.0491 21.752 28.0491C21.996 28.0511 22.236 27.9811 22.442 27.8521L22.282 27.3791C22.1337 27.4673 21.9655 27.5168 21.793 27.5231C21.528 27.5231 21.427 27.3521 21.427 27.0971V25.9401H22.331L22.325 25.4331ZM27.04 25.3691C26.9052 25.3651 26.7718 25.3976 26.6539 25.4631C26.536 25.5285 26.438 25.6246 26.37 25.7411V25.4331H25.823V27.9731H26.376V26.5501C26.376 26.1301 26.557 25.8971 26.908 25.8971C27.0261 25.8956 27.1434 25.9173 27.253 25.9611L27.424 25.4291C27.2979 25.384 27.165 25.3603 27.031 25.3591L27.04 25.3691ZM19.912 25.6351C19.5993 25.4491 19.2397 25.3567 18.876 25.3691C18.233 25.3691 17.813 25.6771 17.813 26.1831C17.813 26.5971 18.121 26.8521 18.691 26.9321L18.956 26.9691C19.259 27.0121 19.403 27.0921 19.403 27.2351C19.403 27.4311 19.201 27.5431 18.824 27.5431C18.5206 27.5512 18.2231 27.4576 17.979 27.2771L17.713 27.7081C18.036 27.9331 18.421 28.0481 18.813 28.0381C19.547 28.0381 19.972 27.6921 19.972 27.2081C19.972 26.7241 19.637 26.5281 19.084 26.4481L18.819 26.4111C18.58 26.3791 18.388 26.3311 18.388 26.1611C18.388 25.9911 18.569 25.8641 18.872 25.8641C19.152 25.8671 19.427 25.9431 19.669 26.0811L19.912 25.6351ZM34.717 25.3691C34.5824 25.3653 34.4492 25.3979 34.3315 25.4633C34.2138 25.5288 34.1159 25.6247 34.048 25.7411V25.4331H33.5V27.9751H34.053V26.5501C34.053 26.1301 34.235 25.8961 34.585 25.8961C34.7035 25.8945 34.821 25.9162 34.931 25.9601L35.101 25.4281C34.9748 25.3833 34.842 25.36 34.708 25.3591L34.717 25.3691ZM27.596 26.6971C27.5894 26.8657 27.6161 27.034 27.6747 27.1922C27.7332 27.3505 27.8225 27.4956 27.9374 27.6192C28.0523 27.7428 28.1905 27.8425 28.344 27.9125C28.4975 27.9825 28.6634 28.0214 28.832 28.0271C28.872 28.0284 28.912 28.0278 28.952 28.0251C29.284 28.0431 29.611 27.9351 29.867 27.7231L29.601 27.2761C29.411 27.4211 29.177 27.5011 28.937 27.5041C28.7343 27.4853 28.5459 27.3914 28.4088 27.241C28.2716 27.0905 28.1956 26.8942 28.1956 26.6906C28.1956 26.487 28.2716 26.2907 28.4088 26.1403C28.5459 25.9898 28.7343 25.8959 28.937 25.8771C29.177 25.8801 29.411 25.9601 29.601 26.1051L29.867 25.6591C29.6107 25.4473 29.2842 25.3392 28.952 25.3561C28.7735 25.346 28.5949 25.3732 28.4275 25.4361C28.2601 25.499 28.1077 25.5962 27.98 25.7214C27.8524 25.8466 27.7523 25.9971 27.6862 26.1632C27.62 26.3293 27.5893 26.5074 27.596 26.6861V26.6971ZM32.772 26.6971V25.4321H32.22V25.7401C32.1264 25.6191 32.0053 25.5222 31.8666 25.4575C31.728 25.3928 31.5759 25.3621 31.423 25.3681C31.0814 25.3823 30.7584 25.5275 30.5211 25.7735C30.2837 26.0196 30.1502 26.3476 30.1483 26.6895C30.1463 27.0313 30.2761 27.3608 30.5107 27.6095C30.7453 27.8582 31.0666 28.0071 31.408 28.0251H31.423C31.5759 28.0311 31.728 28.0005 31.8666 27.9358C32.0053 27.871 32.1264 27.7741 32.22 27.6531V27.9611H32.773L32.772 26.6971ZM30.716 26.6971C30.7274 26.4978 30.8164 26.3108 30.964 26.1763C31.1116 26.0419 31.3061 25.9706 31.5056 25.9779C31.7052 25.9852 31.8939 26.0704 32.0313 26.2153C32.1688 26.3601 32.2439 26.5531 32.2407 26.7527C32.2375 26.9524 32.1561 27.1428 32.0141 27.2831C31.8721 27.4235 31.6807 27.5026 31.481 27.5034C31.2813 27.5042 31.0893 27.4268 30.9461 27.2876C30.8029 27.1485 30.7199 26.9587 30.715 26.7591C30.7137 26.7378 30.714 26.7171 30.716 26.6971ZM24.046 25.3691C23.6992 25.3818 23.3711 25.5295 23.1317 25.7807C22.8923 26.0319 22.7606 26.3667 22.7646 26.7137C22.7687 27.0607 22.9082 27.3924 23.1534 27.638C23.3986 27.8835 23.73 28.0235 24.077 28.0281H24.083C24.465 28.0481 24.841 27.9241 25.137 27.6831L24.872 27.2731C24.662 27.4411 24.402 27.5351 24.133 27.5391C23.9502 27.5551 23.7684 27.499 23.6264 27.3828C23.4844 27.2666 23.3935 27.0995 23.373 26.9171H25.26V26.7051C25.2767 26.5368 25.2578 26.3668 25.2047 26.2062C25.1516 26.0455 25.0654 25.8978 24.9516 25.7726C24.8379 25.6474 24.6992 25.5474 24.5444 25.4791C24.3896 25.4108 24.2222 25.3757 24.053 25.3761L24.046 25.3691ZM24.046 25.8641C24.2128 25.8609 24.374 25.9239 24.4944 26.0394C24.6147 26.1549 24.6844 26.3134 24.688 26.4801H23.358C23.378 26.1251 23.678 25.8501 24.033 25.8641H24.046ZM37.893 26.7031V24.4121H37.361V25.7421C37.2676 25.6209 37.1464 25.5238 37.0078 25.4589C36.8692 25.394 36.717 25.3632 36.564 25.3691C36.2177 25.3786 35.8888 25.5228 35.6472 25.7711C35.4057 26.0194 35.2705 26.3522 35.2705 26.6986C35.2705 27.045 35.4057 27.3778 35.6472 27.6261C35.8888 27.8744 36.2177 28.0186 36.564 28.0281C36.7169 28.0341 36.869 28.0035 37.0076 27.9388C37.1463 27.874 37.2674 27.7771 37.361 27.6561V27.9641H37.893V26.7031ZM38.816 27.6041C38.8581 27.6026 38.8999 27.6117 38.9375 27.6306C38.9751 27.6496 39.0074 27.6777 39.0312 27.7124C39.055 27.7471 39.0697 27.7873 39.0739 27.8292C39.0781 27.8711 39.0716 27.9134 39.055 27.9521C39.0274 28.0126 38.9777 28.0602 38.916 28.0851C38.8844 28.0997 38.8499 28.1072 38.815 28.1071C38.7647 28.1061 38.7157 28.0911 38.6734 28.0637C38.6312 28.0363 38.5975 27.9977 38.576 27.9521C38.5628 27.9211 38.556 27.8878 38.556 27.8541C38.556 27.8204 38.5628 27.7871 38.576 27.7561C38.5975 27.7091 38.6324 27.6695 38.6764 27.6425C38.7204 27.6154 38.7714 27.602 38.823 27.6041H38.816ZM38.816 28.0541C38.8442 28.0537 38.8719 28.047 38.8972 28.0346C38.9225 28.0223 38.9448 28.0044 38.9624 27.9824C38.9799 27.9604 38.9925 27.9348 38.999 27.9074C39.0055 27.88 39.0059 27.8515 39.0001 27.8239C38.9943 27.7963 38.9825 27.7704 38.9655 27.7479C38.9485 27.7255 38.9268 27.707 38.9018 27.6939C38.8769 27.6809 38.8493 27.6735 38.8212 27.6723C38.7931 27.6711 38.765 27.6762 38.739 27.6871C38.7152 27.6969 38.6935 27.7111 38.675 27.7291C38.6486 27.7569 38.6311 27.7921 38.6248 27.8299C38.6185 27.8678 38.6237 27.9067 38.6398 27.9416C38.6558 27.9765 38.682 28.0057 38.7148 28.0256C38.7476 28.0455 38.7857 28.0551 38.824 28.0531L38.816 28.0541ZM38.832 27.7361C38.8572 27.734 38.8822 27.7415 38.902 27.7571C38.9098 27.7641 38.9159 27.7728 38.9199 27.7825C38.9239 27.7922 38.9256 27.8026 38.925 27.8131C38.9253 27.8308 38.9189 27.848 38.907 27.8611C38.8913 27.8747 38.8717 27.8831 38.851 27.8851L38.928 27.9731H38.867L38.795 27.8851H38.771V27.9731H38.72V27.7401L38.832 27.7361ZM35.849 26.7031C35.8603 26.5037 35.9493 26.3167 36.0969 26.1821C36.2445 26.0476 36.439 25.9763 36.6386 25.9836C36.8382 25.9909 37.027 26.0761 37.1644 26.221C37.3018 26.3659 37.377 26.5589 37.3737 26.7586C37.3704 26.9583 37.289 27.1488 37.1469 27.2891C37.0048 27.4294 36.8133 27.5084 36.6136 27.5091C36.4139 27.5098 36.2218 27.4322 36.0787 27.2929C35.9356 27.1536 35.8528 26.9638 35.848 26.7641L35.849 26.7031ZM17.185 26.7041V25.4341H16.633V25.7411C16.5394 25.6201 16.4183 25.5232 16.2796 25.4585C16.141 25.3938 15.9889 25.3631 15.836 25.3691C15.4897 25.3786 15.1608 25.5228 14.9192 25.7711C14.6777 26.0194 14.5425 26.3522 14.5425 26.6986C14.5425 27.045 14.6777 27.3778 14.9192 27.6261C15.1608 27.8744 15.4897 28.0186 15.836 28.0281C15.9889 28.0341 16.141 28.0035 16.2796 27.9388C16.4183 27.874 16.5394 27.7771 16.633 27.6561V27.9641H17.187L17.185 26.7041ZM15.129 26.7041C15.1546 26.5204 15.251 26.354 15.3976 26.2404C15.5443 26.1269 15.7295 26.0752 15.9138 26.0965C16.098 26.1178 16.2666 26.2103 16.3835 26.3543C16.5004 26.4983 16.5563 26.6824 16.5393 26.8671C16.5222 27.0518 16.4336 27.2224 16.2923 27.3426C16.151 27.4628 15.9683 27.5229 15.7833 27.5101C15.5983 27.4973 15.4256 27.4126 15.3022 27.2741C15.1788 27.1357 15.1145 26.9544 15.123 26.7691L15.124 26.7041H15.129Z" fill="#231F20"/>
<path d="M19.728 6.07178H28.1V21.1158H19.728V6.07178Z" fill="#F26122"/>
<path d="M20.26 13.596C20.2589 12.147 20.5872 10.7168 21.2201 9.41329C21.8529 8.10983 22.7738 6.96728 23.913 6.07198C19.76 2.80798 13.744 3.52898 10.48 7.68398C7.21603 11.839 7.93603 17.854 12.09 21.117C13.7761 22.4417 15.8583 23.1619 18.0025 23.1619C20.1468 23.1619 22.2289 22.4417 23.915 21.117C22.7752 20.2227 21.8538 19.0808 21.2206 17.7778C20.5874 16.4748 20.2589 15.0447 20.26 13.596Z" fill="#EA1D25"/>
<path d="M39.3949 13.5959C39.3949 18.8799 35.1119 23.1639 29.8279 23.1639C27.6835 23.164 25.6011 22.4438 23.9149 21.1189C28.0689 17.8529 28.7889 11.8389 25.5239 7.68394C25.053 7.0853 24.5126 6.54484 23.9139 6.07394C25.3252 4.96443 27.0201 4.27435 28.8049 4.08258C30.5898 3.89081 32.3926 4.20509 34.0073 4.98949C35.622 5.77389 36.9834 6.99677 37.936 8.51834C38.8885 10.0399 39.3938 11.7988 39.3939 13.5939L39.3949 13.5959Z" fill="#F69E1E"/>
</g>
<defs>
<clipPath id="clip0_17_153">
<rect width="48" height="32" fill="white" transform="translate(0.5)"/>
</clipPath>
</defs>
</svg>
