<svg width="49" height="32" viewBox="0 0 49 32" fill="none" xmlns="http://www.w3.org/2000/svg">
<g clip-path="url(#clip0_17_179)">
<path d="M4.50001 1.33301H44.5C45.967 1.33301 47.167 2.53301 47.167 4.00001V28C47.167 29.467 45.967 30.667 44.5 30.667H4.50001C3.79332 30.6649 3.11619 30.3832 2.61649 29.8835C2.11678 29.3838 1.83512 28.7067 1.83301 28V4.00001C1.83301 2.53301 3.03301 1.33301 4.50001 1.33301Z" fill="#FFFAE7"/>
<path d="M44.5 1.333C45.967 1.333 47.167 2.533 47.167 4V28C47.167 29.467 45.967 30.667 44.5 30.667H4.5C3.79332 30.6649 3.11618 30.3832 2.61648 29.8835C2.11677 29.3838 1.83511 28.7067 1.833 28V4C1.833 2.533 3.033 1.333 4.5 1.333H44.5ZM44.5 0H4.5C2.233 0 0.5 1.733 0.5 4V28C0.5 30.267 2.233 32 4.5 32H44.5C46.767 32 48.5 30.267 48.5 28V4C48.5 1.733 46.767 0 44.5 0Z" fill="#DDDDDD"/>
<path d="M19.033 13.4668H16.9C16.8311 13.4721 16.7664 13.5017 16.7174 13.5505C16.6685 13.5993 16.6385 13.6639 16.633 13.7328L15.833 19.0668C15.833 19.1998 15.833 19.3328 15.967 19.3328H16.9C16.9689 19.3275 17.0337 19.2979 17.0826 19.2491C17.1316 19.2003 17.1615 19.1357 17.167 19.0668L17.433 17.5998C17.433 17.4668 17.567 17.3328 17.7 17.3328H18.367C19.7003 17.3328 20.5003 16.6661 20.767 15.3328C20.9 14.7998 20.767 14.2668 20.5 13.9998C20.367 13.5998 19.833 13.4668 19.033 13.4668ZM19.3 15.4668C19.167 16.2668 18.633 16.2668 18.1 16.2668H17.833L18.1 14.9328C18.1 14.7998 18.233 14.7998 18.233 14.7998H18.367C18.767 14.7998 19.033 14.7998 19.3 15.0668C19.3 14.9328 19.433 15.1998 19.3 15.4668ZM25.3 15.3328H24.367C24.233 15.3328 24.233 15.3328 24.233 15.4668V15.7328L24.1 15.5998C23.8333 15.3331 23.4333 15.1998 22.9 15.1998C21.833 15.1998 20.9 15.9998 20.633 17.1998C20.5 17.7328 20.633 18.3998 21.033 18.6668C21.3 19.0668 21.833 19.1998 22.233 19.1998C23.167 19.1998 23.567 18.6668 23.567 18.6668V18.9328C23.567 19.0668 23.567 19.1998 23.7 19.1998H24.633C24.7021 19.1945 24.7669 19.1647 24.8159 19.1157C24.8649 19.0667 24.8947 19.0019 24.9 18.9328L25.433 15.4668C25.433 15.4668 25.433 15.3328 25.3 15.3328ZM23.967 17.3328C23.833 17.8668 23.433 18.2668 22.9 18.2668C22.633 18.2668 22.367 18.1328 22.233 17.9998C22.1 17.8668 21.967 17.5998 22.1 17.3328C22.233 16.7998 22.633 16.3998 23.167 16.3998C23.433 16.3998 23.7 16.5328 23.833 16.6668C23.967 16.7998 23.967 17.0668 23.967 17.3328ZM30.633 15.3328H29.567C29.433 15.3328 29.433 15.3328 29.3 15.4668L27.967 17.4668L27.433 15.4668C27.4277 15.3979 27.3981 15.3331 27.3493 15.2842C27.3005 15.2352 27.2359 15.2053 27.167 15.1998H26.233C26.1 15.1998 25.967 15.3328 26.1 15.4668L27.167 18.6668L26.1 20.1328C25.967 20.2668 26.1 20.3998 26.233 20.3998H27.167C27.3 20.3998 27.3 20.3998 27.433 20.2668L30.767 15.4668C30.9 15.5998 30.767 15.3328 30.633 15.3328Z" fill="#253B80"/>
<path d="M33.967 13.4668H31.833C31.7642 13.4723 31.6997 13.5021 31.651 13.5508C31.6022 13.5996 31.5725 13.6641 31.567 13.7328L30.767 19.0668C30.767 19.1998 30.767 19.3328 30.9 19.3328H31.967C32.1 19.3328 32.1 19.1998 32.1 19.1998L32.367 17.7328C32.367 17.5998 32.5 17.4668 32.633 17.4668H33.3C34.6333 17.4668 35.4333 16.8001 35.7 15.4668C35.833 14.9328 35.7 14.3998 35.433 14.1328C35.167 13.5998 34.633 13.4668 33.967 13.4668ZM34.1 15.4668C33.967 16.2668 33.433 16.2668 32.9 16.2668H32.633L32.9 14.9328C32.9 14.7998 33.033 14.7998 33.033 14.7998H33.167C33.567 14.7998 33.833 14.7998 34.1 15.0668C34.233 14.9328 34.233 15.1998 34.1 15.4668ZM40.1 15.3328H39.167C39.033 15.3328 39.033 15.3328 39.033 15.4668V15.7328L38.9 15.5998C38.6333 15.3331 38.2333 15.1998 37.7 15.1998C36.633 15.1998 35.7 15.9998 35.433 17.1998C35.3 17.7328 35.433 18.3998 35.833 18.6668C36.1 19.0668 36.633 19.1998 37.033 19.1998C37.967 19.1998 38.367 18.6668 38.367 18.6668V18.9328C38.367 19.0668 38.367 19.1998 38.5 19.1998H39.433C39.502 19.1945 39.5669 19.1647 39.6159 19.1157C39.6648 19.0667 39.6947 19.0019 39.7 18.9328L40.233 15.4668C40.367 15.4668 40.233 15.3328 40.1 15.3328ZM38.767 17.3328C38.633 17.8668 38.233 18.2668 37.7 18.2668C37.433 18.2668 37.167 18.1328 37.033 17.9998C36.9 17.8668 36.767 17.5998 36.9 17.3328C37.033 16.7998 37.433 16.3998 37.967 16.3998C38.233 16.3998 38.5 16.5328 38.633 16.6668C38.767 16.7998 38.767 17.0668 38.767 17.3328ZM41.3 13.5998L40.5 19.0668C40.5 19.1998 40.5 19.3328 40.633 19.3328H41.433C41.5019 19.3275 41.5666 19.2979 41.6156 19.2491C41.6645 19.2003 41.6945 19.1357 41.7 19.0668L42.5 13.7328C42.5 13.5998 42.5 13.4668 42.367 13.4668H41.433C41.433 13.4668 41.3 13.4668 41.3 13.5998Z" fill="#179BD7"/>
<path d="M7.30005 20.2669L7.43305 19.1999H5.30005L6.50005 11.7329H9.30005C10.233 11.7329 10.9 11.8669 11.3 12.2669C11.433 12.3999 11.567 12.6669 11.567 12.7999V13.8669L11.7 13.9999C11.833 14.1329 11.967 14.1329 11.967 14.2669C12.367 14.3999 12.5 14.6669 12.5 14.7999V15.5999C12.367 15.9999 12.367 16.2669 12.1 16.5329C11.967 16.7999 11.833 16.9329 11.567 17.1999C11.3 17.3329 11.167 17.4669 10.767 17.5999C10.5 17.7329 10.233 17.7329 9.83305 17.7329H9.70005C9.56705 17.7329 9.43305 17.7329 9.30005 17.8669C9.16705 17.9999 9.03305 18.1329 9.03305 18.2669V18.3999L8.76705 20.1329C8.63305 20.2669 7.30005 20.2669 7.30005 20.2669Z" fill="#253B80"/>
<path d="M12.1 13.7329V13.8669C11.7 15.7329 10.5 16.3999 8.76702 16.3999H7.83302C7.56636 16.3999 7.43302 16.5332 7.43302 16.7999L7.03302 19.4669L6.90002 20.2669C6.90002 20.3999 7.03302 20.5329 7.16702 20.5329H8.63302C8.76702 20.5329 8.90002 20.3999 9.03302 20.2669V20.1329L9.30002 18.3999V18.2669C9.30002 18.1329 9.43302 17.9999 9.70002 17.9999H9.83302C11.3 17.9999 12.367 17.4669 12.767 15.7329C12.9 15.0669 12.767 14.3999 12.5 13.9999C12.367 13.8669 12.233 13.8669 12.1 13.7329Z" fill="#179BD7"/>
<path d="M11.7 13.6001H8.23302C8.10002 13.6001 8.10002 13.7331 8.10002 13.8671L7.56702 16.9331V17.0671C7.56702 16.9331 7.83302 16.6671 7.96702 16.6671H8.76702C10.367 16.6671 11.7 16.0001 12.1 14.1331V14.0001C11.9667 13.7334 11.8333 13.6001 11.7 13.6001Z" fill="#222D65"/>
<path d="M7.96696 13.7328C7.96696 13.5998 8.09996 13.4668 8.09996 13.4668H11.7C11.833 13.4668 11.967 13.5998 11.967 13.5998C12.1003 12.9331 11.967 12.3998 11.567 11.9998C11.3 11.5998 10.5 11.4668 9.43296 11.4668H6.63296C6.36629 11.4668 6.23296 11.6001 6.23296 11.8668L5.03296 19.3328C5.03296 19.4668 5.16696 19.5998 5.29996 19.5998H7.03296L7.43296 16.7998L7.96696 13.7328Z" fill="#253B80"/>
</g>
<defs>
<clipPath id="clip0_17_179">
<rect width="48" height="32" fill="white" transform="translate(0.5)"/>
</clipPath>
</defs>
</svg>
