<svg width="77" height="77" viewBox="0 0 77 77" fill="none" xmlns="http://www.w3.org/2000/svg">
<g clip-path="url(#clip0_312_1839)">
<mask id="mask0_312_1839" style="mask-type:luminance" maskUnits="userSpaceOnUse" x="0" y="0" width="77" height="77">
<path d="M77 0H0V77H77V0Z" fill="white"/>
</mask>
<g mask="url(#mask0_312_1839)">
<path d="M16.8769 26.8039C20.0461 28.3818 23.0897 30.2327 25.8721 32.4261C29.1859 35.0406 32.1279 38.2129 34.0951 41.9714C33.6579 43.855 33.0607 45.7088 32.2094 47.4489C31.5168 48.847 30.6483 50.1751 29.5268 51.2693C28.5181 52.2329 27.2969 53.0161 25.9244 53.328C24.5199 53.6671 23.0155 53.4819 21.7045 52.8887C20.1606 52.1989 18.8734 51.0251 17.8746 49.6749C16.6277 47.9898 15.8023 46.0245 15.2818 44.0025C14.5956 41.2908 14.4674 38.4582 14.7458 35.6816C15.0455 32.643 15.8014 29.6585 16.8769 26.8039Z" fill="white"/>
</g>
<mask id="mask1_312_1839" style="mask-type:luminance" maskUnits="userSpaceOnUse" x="0" y="0" width="77" height="77">
<path d="M77 0H0V77H77V0Z" fill="white"/>
</mask>
<g mask="url(#mask1_312_1839)">
<path d="M50.6424 34.1943C53.9133 31.2309 57.688 28.8744 61.6166 26.8844C63.0861 30.7939 63.9768 34.96 63.8787 39.1497C63.787 42.4759 63.0432 45.8489 61.3207 48.7243C60.4419 50.1731 59.2951 51.4883 57.8583 52.4049C56.6746 53.1633 55.2764 53.633 53.861 53.5836C52.2786 53.5635 50.7642 52.8794 49.5586 51.8818C48.4234 50.9552 47.5281 49.7674 46.8008 48.5034C45.661 46.5004 44.9226 44.2972 44.4003 42.0607C45.9674 39.0784 48.1485 36.4491 50.6424 34.1943Z" fill="white"/>
</g>
<mask id="mask2_312_1839" style="mask-type:luminance" maskUnits="userSpaceOnUse" x="0" y="0" width="77" height="77">
<path d="M77 0H0V77H77V0Z" fill="white"/>
</mask>
<g mask="url(#mask2_312_1839)">
<path d="M26.9523 6.32922C30.7473 4.90612 34.7904 4.18254 38.8391 4.09831C38.8547 6.40878 38.9059 8.71852 38.9106 11.029C37.5582 12.303 35.8569 13.2838 33.9896 13.5092C32.4769 13.7013 30.9469 13.37 29.5498 12.7976C28.683 10.6418 27.8208 8.48416 26.9523 6.32922Z" fill="#C70000"/>
</g>
<mask id="mask3_312_1839" style="mask-type:luminance" maskUnits="userSpaceOnUse" x="0" y="0" width="77" height="77">
<path d="M77 0H0V77H77V0Z" fill="white"/>
</mask>
<g mask="url(#mask3_312_1839)">
<path d="M39.572 4.12131C43.5666 4.18991 47.542 4.96198 51.2903 6.33946C50.4832 8.50338 49.6711 10.6655 48.8642 12.8296C47.2662 13.4607 45.499 13.7857 43.7939 13.4506C42.2904 13.1647 40.9197 12.3772 39.7928 11.3607C39.6288 11.2445 39.6516 11.0319 39.6398 10.8552C39.6389 8.6106 39.5912 6.36604 39.572 4.12131Z" fill="#C70000"/>
</g>
<mask id="mask4_312_1839" style="mask-type:luminance" maskUnits="userSpaceOnUse" x="0" y="0" width="77" height="77">
<path d="M77 0H0V77H77V0Z" fill="white"/>
</mask>
<g mask="url(#mask4_312_1839)">
<path d="M16.0927 12.8068C19.0949 10.1748 22.5455 8.05834 26.246 6.55838C27.1072 8.70308 27.9701 10.8469 28.8286 12.9927C28.0159 14.6228 26.8396 16.1395 25.2143 17.0204C23.9252 17.7503 22.43 18.0058 20.964 18.0277C20.5142 17.5561 20.0772 17.0725 19.6255 16.6028C19.5366 16.4974 19.423 16.4004 19.3846 16.2639C19.3497 15.077 19.7216 13.9249 20.2091 12.8571C19.4963 13.5485 18.789 14.2464 18.1202 14.9818C17.4448 14.2565 16.7605 13.5395 16.0927 12.8068Z" fill="#C70000"/>
</g>
<mask id="mask5_312_1839" style="mask-type:luminance" maskUnits="userSpaceOnUse" x="0" y="0" width="77" height="77">
<path d="M77 0H0V77H77V0Z" fill="white"/>
</mask>
<g mask="url(#mask5_312_1839)">
<path d="M51.9709 6.62878C55.5761 8.0684 58.922 10.1362 61.8705 12.6565C61.9923 12.7737 62.0849 12.9185 62.1848 13.055C61.5811 13.7254 60.9909 14.4075 60.3836 15.0752C59.7028 14.3545 59.024 13.6291 58.2902 12.9616C58.8098 14.0715 59.167 15.2812 59.111 16.5177C58.596 17.0443 58.1555 17.6477 57.6149 18.1468C55.8595 18.1944 54.0489 17.797 52.5665 16.8263C51.2125 15.9407 50.2065 14.6036 49.5349 13.1457C50.3501 10.9742 51.164 8.80276 51.9709 6.62878Z" fill="#C70000"/>
</g>
<mask id="mask6_312_1839" style="mask-type:luminance" maskUnits="userSpaceOnUse" x="0" y="0" width="77" height="77">
<path d="M77 0H0V77H77V0Z" fill="white"/>
</mask>
<g mask="url(#mask6_312_1839)">
<path d="M35.1644 14.0237C36.5568 13.6611 37.8258 12.9239 38.9308 12.0144C38.9482 14.6814 38.9858 17.35 38.9876 20.0149C38.394 20.5077 37.6884 20.8657 36.9701 21.1431C35.6774 21.634 34.2362 21.6377 32.9133 21.2678C31.9201 18.7538 30.9206 16.2419 29.9209 13.7306C31.5931 14.3195 33.4392 14.4854 35.1644 14.0237Z" fill="#C70000"/>
</g>
<mask id="mask7_312_1839" style="mask-type:luminance" maskUnits="userSpaceOnUse" x="0" y="0" width="77" height="77">
<path d="M77 0H0V77H77V0Z" fill="white"/>
</mask>
<g mask="url(#mask7_312_1839)">
<path d="M39.6636 12.2307C40.9782 13.3186 42.5865 14.0824 44.2949 14.262C45.7177 14.4258 47.16 14.1923 48.5139 13.7509C47.5757 16.2557 46.6285 18.7558 45.6766 21.255C44.3517 21.6103 42.9179 21.6936 41.6002 21.2595C40.9288 21.0506 40.2983 20.7202 39.7275 20.3107C39.7159 17.6174 39.6911 14.924 39.6636 12.2307Z" fill="#C70000"/>
</g>
<mask id="mask8_312_1839" style="mask-type:luminance" maskUnits="userSpaceOnUse" x="0" y="0" width="77" height="77">
<path d="M77 0H0V77H77V0Z" fill="white"/>
</mask>
<g mask="url(#mask8_312_1839)">
<path d="M8.37842 22.7751C10.2118 19.2502 12.6662 16.0531 15.5577 13.3296C16.244 14.0668 16.932 14.8031 17.6219 15.5366C15.2637 18.196 13.2637 21.1862 11.8123 24.4345C10.6671 23.8832 9.51914 23.3358 8.37842 22.7751Z" fill="#C70000"/>
</g>
<mask id="mask9_312_1839" style="mask-type:luminance" maskUnits="userSpaceOnUse" x="0" y="0" width="77" height="77">
<path d="M77 0H0V77H77V0Z" fill="white"/>
</mask>
<g mask="url(#mask9_312_1839)">
<path d="M60.8865 15.6347C61.4993 14.9461 62.1104 14.2574 62.7234 13.5695C65.5335 16.2401 67.8431 19.4169 69.6445 22.843C68.6394 23.3658 67.6317 23.8852 66.6192 24.3934C65.1862 21.1945 63.197 18.2639 60.8865 15.6347Z" fill="#C70000"/>
</g>
<mask id="mask10_312_1839" style="mask-type:luminance" maskUnits="userSpaceOnUse" x="0" y="0" width="77" height="77">
<path d="M77 0H0V77H77V0Z" fill="white"/>
</mask>
<g mask="url(#mask10_312_1839)">
<path d="M26.3065 17.2016C27.5195 16.3554 28.4705 15.1814 29.1924 13.9001C30.1802 16.3857 31.1688 18.8711 32.1519 21.3585C31.3547 22.5993 30.2489 23.6864 28.8571 24.2303C28.3066 24.4584 27.7211 24.5876 27.133 24.6745C25.2858 22.7038 23.471 20.7019 21.6119 18.7411C23.2739 18.6495 24.9412 18.1763 26.3065 17.2016Z" fill="#C70000"/>
</g>
<mask id="mask11_312_1839" style="mask-type:luminance" maskUnits="userSpaceOnUse" x="0" y="0" width="77" height="77">
<path d="M77 0H0V77H77V0Z" fill="white"/>
</mask>
<g mask="url(#mask11_312_1839)">
<path d="M49.1731 14.1099C49.9782 15.5522 51.0941 16.8527 52.5456 17.6732C53.8869 18.458 55.4391 18.8126 56.981 18.8903C55.2053 20.8924 53.4115 22.876 51.6257 24.8679C50.2789 24.7204 48.933 24.2871 47.8647 23.4328C47.2492 22.9437 46.7331 22.3392 46.3109 21.6781C47.2709 19.1577 48.2228 16.6339 49.1731 14.1099Z" fill="#C70000"/>
</g>
<mask id="mask12_312_1839" style="mask-type:luminance" maskUnits="userSpaceOnUse" x="0" y="0" width="77" height="77">
<path d="M77 0H0V77H77V0Z" fill="white"/>
</mask>
<g mask="url(#mask12_312_1839)">
<path d="M19.5466 17.6192C19.7895 17.87 20.0553 18.1046 20.2594 18.3894C20.3016 18.6696 20.2164 18.9544 20.1816 19.2319C19.8932 18.7283 19.6968 18.178 19.5466 17.6192Z" fill="#C70000"/>
</g>
<mask id="mask13_312_1839" style="mask-type:luminance" maskUnits="userSpaceOnUse" x="0" y="0" width="77" height="77">
<path d="M77 0H0V77H77V0Z" fill="white"/>
</mask>
<g mask="url(#mask13_312_1839)">
<path d="M57.7935 19.1001C58.1672 18.6888 58.5308 18.2677 58.9074 17.8591C58.6995 18.6093 58.3677 19.3226 57.9343 19.9691C57.8802 19.6807 57.8337 19.3905 57.7935 19.1001Z" fill="#C70000"/>
</g>
<mask id="mask14_312_1839" style="mask-type:luminance" maskUnits="userSpaceOnUse" x="0" y="0" width="77" height="77">
<path d="M77 0H0V77H77V0Z" fill="white"/>
</mask>
<g mask="url(#mask14_312_1839)">
<path d="M20.7598 20.1881C20.8293 19.8308 20.8934 19.4727 20.9549 19.1139C22.7791 21.0718 24.5977 23.0353 26.4125 25.0015C26.3604 25.2176 26.3082 25.4347 26.255 25.6507C25.6238 24.9631 24.9879 24.2788 24.3456 23.6012C24.0506 23.2833 23.6814 23.0508 23.3425 22.7844C22.3768 22.0325 21.4928 21.1697 20.7598 20.1881Z" fill="#C70000"/>
</g>
<mask id="mask15_312_1839" style="mask-type:luminance" maskUnits="userSpaceOnUse" x="0" y="0" width="77" height="77">
<path d="M77 0H0V77H77V0Z" fill="white"/>
</mask>
<g mask="url(#mask15_312_1839)">
<path d="M51.7812 25.7991C53.5806 23.8155 55.3628 21.8162 57.1502 19.8226C57.2224 20.1304 57.295 20.4381 57.3737 20.7448C56.5856 21.7018 55.6492 22.5307 54.647 23.2569C54.2557 23.5371 53.9536 23.9144 53.6209 24.256C53.0336 24.8751 52.4609 25.5071 51.881 26.1324C51.8564 26.0491 51.8069 25.8826 51.7812 25.7991Z" fill="#C70000"/>
</g>
<mask id="mask16_312_1839" style="mask-type:luminance" maskUnits="userSpaceOnUse" x="0" y="0" width="77" height="77">
<path d="M77 0H0V77H77V0Z" fill="white"/>
</mask>
<g mask="url(#mask16_312_1839)">
<path d="M37.0645 21.8915C37.7507 21.6672 38.3912 21.3265 39.0005 20.9418C38.9804 23.0583 39.0389 25.1729 39.0215 27.2894C38.3839 27.6995 37.6968 28.086 36.9253 28.1528C36.4653 28.2004 36.0018 28.1473 35.5546 28.0393C34.7924 26.0584 34.0218 24.0813 33.2413 22.1086C34.5055 22.3631 35.8404 22.3119 37.0645 21.8915Z" fill="#C70000"/>
</g>
<mask id="mask17_312_1839" style="mask-type:luminance" maskUnits="userSpaceOnUse" x="0" y="0" width="77" height="77">
<path d="M77 0H0V77H77V0Z" fill="white"/>
</mask>
<g mask="url(#mask17_312_1839)">
<path d="M39.7307 21.2128C41.3916 22.2568 43.4558 22.5159 45.3569 22.0966C44.6046 24.071 43.8434 26.0419 43.0819 28.0126C41.9734 28.3258 40.7266 28.2525 39.7544 27.5932C39.7683 25.4658 39.7399 23.3403 39.7307 21.2128Z" fill="#C70000"/>
</g>
<mask id="mask18_312_1839" style="mask-type:luminance" maskUnits="userSpaceOnUse" x="0" y="0" width="77" height="77">
<path d="M77 0H0V77H77V0Z" fill="white"/>
</mask>
<g mask="url(#mask18_312_1839)">
<path d="M27.7285 25.3294C29.658 24.9832 31.3695 23.7946 32.4817 22.1964C33.2541 24.1655 34.0245 26.1353 34.7887 28.1079C34.3736 28.7006 33.8882 29.2683 33.2449 29.619C32.8739 29.8324 32.4569 29.9432 32.0438 30.0386C30.6099 28.4651 29.1713 26.8946 27.7285 25.3294Z" fill="#C70000"/>
</g>
<mask id="mask19_312_1839" style="mask-type:luminance" maskUnits="userSpaceOnUse" x="0" y="0" width="77" height="77">
<path d="M77 0H0V77H77V0Z" fill="white"/>
</mask>
<g mask="url(#mask19_312_1839)">
<path d="M45.9844 22.5307C46.7577 23.5858 47.7975 24.4511 49.0079 24.9584C49.6418 25.2388 50.3189 25.4007 50.9958 25.5372C49.615 27.1308 48.1658 28.6647 46.7595 30.2352C45.5868 30.1126 44.3958 29.5768 43.7624 28.5429C43.6864 28.4549 43.7542 28.347 43.779 28.2554C44.5249 26.3515 45.2562 24.441 45.9844 22.5307Z" fill="#C70000"/>
</g>
<mask id="mask20_312_1839" style="mask-type:luminance" maskUnits="userSpaceOnUse" x="0" y="0" width="77" height="77">
<path d="M77 0H0V77H77V0Z" fill="white"/>
</mask>
<g mask="url(#mask20_312_1839)">
<path d="M4.77686 34.6715C5.23483 30.783 6.35634 26.9779 8.04218 23.4446C9.20303 23.9997 10.3619 24.5565 11.5174 25.1206C10.2088 28.2627 9.41648 31.631 9.28532 35.0361C7.78274 34.9115 6.27944 34.7942 4.77686 34.6715Z" fill="#C70000"/>
</g>
<mask id="mask21_312_1839" style="mask-type:luminance" maskUnits="userSpaceOnUse" x="0" y="0" width="77" height="77">
<path d="M77 0H0V77H77V0Z" fill="white"/>
</mask>
<g mask="url(#mask21_312_1839)">
<path d="M66.9241 25.0703C67.9428 24.5656 68.9481 24.0328 69.9621 23.519C71.679 27.1272 72.7648 31.0276 73.2035 34.9966C71.8797 35.1304 70.5568 35.2814 69.2319 35.4096C69.1101 31.8582 68.302 28.3432 66.9241 25.0703Z" fill="#C70000"/>
</g>
<mask id="mask22_312_1839" style="mask-type:luminance" maskUnits="userSpaceOnUse" x="0" y="0" width="77" height="77">
<path d="M77 0H0V77H77V0Z" fill="white"/>
</mask>
<g mask="url(#mask22_312_1839)">
<path d="M27.0212 25.6592C28.454 27.2132 29.8777 28.7775 31.3099 30.3324C31.2292 30.6512 31.1376 30.9653 31.0323 31.2758C29.6909 29.5678 28.29 27.9066 26.8352 26.2939C26.8983 26.0821 26.9588 25.8698 27.0212 25.6592Z" fill="#C70000"/>
</g>
<mask id="mask23_312_1839" style="mask-type:luminance" maskUnits="userSpaceOnUse" x="0" y="0" width="77" height="77">
<path d="M77 0H0V77H77V0Z" fill="white"/>
</mask>
<g mask="url(#mask23_312_1839)">
<path d="M46.9108 31.1713C48.3456 29.5951 49.783 28.0219 51.2087 26.4366C51.2444 26.5493 51.2802 26.6619 51.3168 26.7754C49.8757 28.378 48.496 30.0366 47.1794 31.7427C47.0885 31.5524 46.9988 31.3618 46.9108 31.1713Z" fill="#C70000"/>
</g>
<mask id="mask24_312_1839" style="mask-type:luminance" maskUnits="userSpaceOnUse" x="0" y="0" width="77" height="77">
<path d="M77 0H0V77H77V0Z" fill="white"/>
</mask>
<g mask="url(#mask24_312_1839)">
<path d="M35.8724 28.869C36.96 29.0228 38.0732 28.7591 39.0021 28.1821C38.9947 30.3316 39.0142 32.4837 38.8758 34.6304C38.6146 34.8042 38.3077 34.8621 38.0035 34.7796C37.4034 32.7721 36.6091 30.8289 35.8724 28.869Z" fill="#C70000"/>
</g>
<mask id="mask25_312_1839" style="mask-type:luminance" maskUnits="userSpaceOnUse" x="0" y="0" width="77" height="77">
<path d="M77 0H0V77H77V0Z" fill="white"/>
</mask>
<g mask="url(#mask25_312_1839)">
<path d="M39.759 28.456C40.6779 28.9321 41.7424 29.0127 42.7531 28.8516C41.9505 30.8554 41.2009 32.8839 40.2821 34.8382C40.0503 34.8456 39.8194 34.8299 39.593 34.7841C39.7707 32.6788 39.694 30.5641 39.759 28.456Z" fill="#C70000"/>
</g>
<mask id="mask26_312_1839" style="mask-type:luminance" maskUnits="userSpaceOnUse" x="0" y="0" width="77" height="77">
<path d="M77 0H0V77H77V0Z" fill="white"/>
</mask>
<g mask="url(#mask26_312_1839)">
<path d="M32.609 30.6704C33.6132 30.4076 34.4708 29.7627 35.101 28.9524C35.8075 30.7436 36.4881 32.5459 37.1121 34.3675C37.1798 34.5817 37.2661 34.7951 37.288 35.0214C37.178 35.2329 36.9545 35.3382 36.7538 35.4454C35.4701 33.7721 34.0117 32.2427 32.609 30.6704Z" fill="#C70000"/>
</g>
<mask id="mask27_312_1839" style="mask-type:luminance" maskUnits="userSpaceOnUse" x="0" y="0" width="77" height="77">
<path d="M77 0H0V77H77V0Z" fill="white"/>
</mask>
<g mask="url(#mask27_312_1839)">
<path d="M43.3723 29.2893C44.054 30.1494 45.0673 30.6603 46.1227 30.9003C44.9701 32.2072 43.7665 33.4681 42.5633 34.7283C42.2839 35.0259 41.9842 35.3024 41.6865 35.5799C41.3906 35.5131 41.136 35.3518 40.97 35.0964C41.8726 33.2053 42.6017 31.2363 43.3723 29.2893Z" fill="#C70000"/>
</g>
<mask id="mask28_312_1839" style="mask-type:luminance" maskUnits="userSpaceOnUse" x="0" y="0" width="77" height="77">
<path d="M77 0H0V77H77V0Z" fill="white"/>
</mask>
<g mask="url(#mask28_312_1839)">
<path d="M31.9071 30.9983C33.3428 32.6073 34.8197 34.1834 36.1636 35.8703C36.084 36.0736 35.9768 36.2642 35.8449 36.4373C35.308 36.0846 34.7399 35.7834 34.1718 35.4867C34.0135 35.4088 33.8723 35.2988 33.7844 35.144C33.0844 34.0451 32.3212 32.9884 31.5405 31.9451C31.6817 31.6366 31.8018 31.3198 31.9071 30.9983Z" fill="#C70000"/>
</g>
<mask id="mask29_312_1839" style="mask-type:luminance" maskUnits="userSpaceOnUse" x="0" y="0" width="77" height="77">
<path d="M77 0H0V77H77V0Z" fill="white"/>
</mask>
<g mask="url(#mask29_312_1839)">
<path d="M45.0922 33.1385C45.5155 32.6816 45.9397 32.2246 46.3603 31.7648C46.4701 31.9699 46.5838 32.1741 46.6993 32.3774C45.9966 33.3271 45.3141 34.2933 44.6773 35.2897C44.5884 35.4481 44.44 35.5553 44.2761 35.6259C43.6284 35.9226 42.9843 36.2311 42.3172 36.4858C42.2148 36.4107 42.1113 36.3356 42.0094 36.2615C43.1243 35.3109 44.0808 34.1942 45.0922 33.1385Z" fill="#C70000"/>
</g>
<mask id="mask30_312_1839" style="mask-type:luminance" maskUnits="userSpaceOnUse" x="0" y="0" width="77" height="77">
<path d="M77 0H0V77H77V0Z" fill="white"/>
</mask>
<g mask="url(#mask30_312_1839)">
<path d="M4.72011 35.4215C6.23455 35.5084 7.74449 35.657 9.25714 35.7705C9.19839 39.2459 9.80136 42.7342 11.0565 45.9771C9.32667 46.4907 7.59698 47.0036 5.8691 47.5221C4.78982 43.5941 4.42796 39.4812 4.72011 35.4215Z" fill="#C70000"/>
</g>
<mask id="mask31_312_1839" style="mask-type:luminance" maskUnits="userSpaceOnUse" x="0" y="0" width="77" height="77">
<path d="M77 0H0V77H77V0Z" fill="white"/>
</mask>
<g mask="url(#mask31_312_1839)">
<path d="M37.8698 35.5122C38.3003 35.6074 38.7439 35.5533 39.136 35.3491C39.5151 35.5689 39.9542 35.6174 40.3838 35.5662C40.5825 35.8337 40.8408 36.0461 41.136 36.2C41.278 36.5378 41.5053 36.8309 41.8021 37.0481C41.7875 37.4904 41.9176 37.9171 42.1729 38.2779C41.891 38.679 41.8808 39.1718 41.866 39.6425C41.5638 39.4923 41.322 39.256 41.1084 39.0004C41.1808 39.472 41.2632 39.941 41.3367 40.4127C41.1386 40.5931 40.9591 40.7915 40.8006 41.0077C40.36 41.081 39.9743 41.3109 39.6609 41.6221C39.2759 41.4722 38.8612 41.4612 38.4597 41.5471C38.1345 41.3008 37.7478 41.1652 37.3428 41.1351C37.2566 41.0022 37.1696 40.8713 37.0818 40.7421C37.1898 40.1329 37.2952 39.5232 37.386 38.9115C37.1386 39.1597 36.9122 39.4783 36.553 39.5636C36.2975 39.6202 36.1234 39.3867 35.9475 39.2475C36.0445 38.8611 36.0383 38.4609 35.9227 38.0809C36.0693 37.7778 36.1435 37.4471 36.1509 37.1109C36.4871 36.8866 36.7097 36.5459 36.8462 36.1713C37.2559 36.0772 37.6079 35.8373 37.8698 35.5122Z" fill="#C70000"/>
</g>
<mask id="mask32_312_1839" style="mask-type:luminance" maskUnits="userSpaceOnUse" x="0" y="0" width="77" height="77">
<path d="M77 0H0V77H77V0Z" fill="white"/>
</mask>
<g mask="url(#mask32_312_1839)">
<path d="M69.234 36.1542C70.5524 36.0142 71.8708 35.8768 73.1883 35.7376C73.5209 39.802 73.1332 43.9211 72.0753 47.859C70.4645 47.4287 68.8556 46.9891 67.2468 46.5532C68.5927 43.2652 69.2742 39.7066 69.234 36.1542Z" fill="#C70000"/>
</g>
<mask id="mask33_312_1839" style="mask-type:luminance" maskUnits="userSpaceOnUse" x="0" y="0" width="77" height="77">
<path d="M77 0H0V77H77V0Z" fill="white"/>
</mask>
<g mask="url(#mask33_312_1839)">
<path d="M34.6989 36.6056C34.9398 36.7447 35.1789 36.8877 35.4154 37.0351C35.4015 37.2063 35.3861 37.3767 35.3658 37.5481C35.0077 37.3528 34.906 36.9261 34.6989 36.6056Z" fill="#C70000"/>
</g>
<mask id="mask34_312_1839" style="mask-type:luminance" maskUnits="userSpaceOnUse" x="0" y="0" width="77" height="77">
<path d="M77 0H0V77H77V0Z" fill="white"/>
</mask>
<g mask="url(#mask34_312_1839)">
<path d="M42.5314 37.179C42.9784 37.0334 43.4055 36.8365 43.8342 36.6478C43.6069 37.0416 43.3791 37.4364 43.171 37.8412C43.0427 37.8457 42.9134 37.8503 42.786 37.8548C42.655 37.6488 42.5644 37.4218 42.5314 37.179Z" fill="#C70000"/>
</g>
<mask id="mask35_312_1839" style="mask-type:luminance" maskUnits="userSpaceOnUse" x="0" y="0" width="77" height="77">
<path d="M77 0H0V77H77V0Z" fill="white"/>
</mask>
<g mask="url(#mask35_312_1839)">
<path d="M42.6891 38.5335C42.7423 38.5509 42.8485 38.5858 42.9025 38.6021C42.81 38.8045 42.7112 39.0042 42.5966 39.1949C42.646 39.041 42.7 38.888 42.757 38.7368C42.7329 38.6682 42.711 38.6003 42.6891 38.5335Z" fill="#C70000"/>
</g>
<mask id="mask36_312_1839" style="mask-type:luminance" maskUnits="userSpaceOnUse" x="0" y="0" width="77" height="77">
<path d="M77 0H0V77H77V0Z" fill="white"/>
</mask>
<g mask="url(#mask36_312_1839)">
<path d="M41.6232 41.9283C41.5234 41.7387 41.3385 41.5216 41.4969 41.3118C41.5455 41.5153 41.5868 41.7206 41.6232 41.9283Z" fill="#C70000"/>
</g>
<mask id="mask37_312_1839" style="mask-type:luminance" maskUnits="userSpaceOnUse" x="0" y="0" width="77" height="77">
<path d="M77 0H0V77H77V0Z" fill="white"/>
</mask>
<g mask="url(#mask37_312_1839)">
<path d="M40.2884 42.2617C40.2133 41.9934 40.5394 41.9027 40.6954 41.7568C41.1251 42.6004 41.6023 43.419 42.0916 44.2297C42.2757 44.5262 42.341 44.8744 42.436 45.2066C42.6423 45.9365 42.8785 46.6574 43.1331 47.3727C42.4628 47.6015 41.8479 47.9717 41.3192 48.4424C40.9566 46.3855 40.5452 44.3351 40.2884 42.2617Z" fill="#C70000"/>
</g>
<mask id="mask38_312_1839" style="mask-type:luminance" maskUnits="userSpaceOnUse" x="0" y="0" width="77" height="77">
<path d="M77 0H0V77H77V0Z" fill="white"/>
</mask>
<g mask="url(#mask38_312_1839)">
<path d="M36.6027 43.0116C36.687 42.5776 36.9755 42.2177 37.2706 41.9027C37.4795 41.8734 37.6793 41.9576 37.8762 42.0153C37.3081 44.0483 36.97 46.1364 36.5551 48.2033C36.1629 47.9194 35.7306 47.6969 35.2751 47.5329C35.8055 46.0541 36.2599 44.5464 36.6027 43.0116Z" fill="#C70000"/>
</g>
<mask id="mask39_312_1839" style="mask-type:luminance" maskUnits="userSpaceOnUse" x="0" y="0" width="77" height="77">
<path d="M77 0H0V77H77V0Z" fill="white"/>
</mask>
<g mask="url(#mask39_312_1839)">
<path d="M39.3979 42.3211C39.4337 42.2753 39.507 42.1837 39.5436 42.1388C39.7745 44.3112 40.2235 46.453 40.5981 48.6035C39.518 48.1811 38.2976 48.2281 37.223 48.6439C37.6242 46.6033 37.9825 44.552 38.4901 42.5345C38.5533 42.1131 39.1094 42.2078 39.3979 42.3211Z" fill="#C70000"/>
</g>
<mask id="mask40_312_1839" style="mask-type:luminance" maskUnits="userSpaceOnUse" x="0" y="0" width="77" height="77">
<path d="M77 0H0V77H77V0Z" fill="white"/>
</mask>
<g mask="url(#mask40_312_1839)">
<path d="M5.99268 48.2594C7.77195 47.7208 9.55572 47.1962 11.3379 46.6649C12.6049 49.6467 14.4463 52.4216 16.9037 54.5546C15.0263 56.007 13.1482 57.4587 11.2708 58.911C8.92435 55.692 7.16161 52.0635 5.99268 48.2594Z" fill="#C70000"/>
</g>
<mask id="mask41_312_1839" style="mask-type:luminance" maskUnits="userSpaceOnUse" x="0" y="0" width="77" height="77">
<path d="M77 0H0V77H77V0Z" fill="white"/>
</mask>
<g mask="url(#mask41_312_1839)">
<path d="M61.1486 55.016C63.6918 52.9554 65.6141 50.2074 66.9517 47.2373C68.5833 47.6859 70.2196 48.1229 71.8522 48.5697C70.6916 52.3117 68.8846 55.8448 66.5814 59.0123C64.7666 57.6866 62.9587 56.3495 61.1486 55.016Z" fill="#C70000"/>
</g>
<mask id="mask42_312_1839" style="mask-type:luminance" maskUnits="userSpaceOnUse" x="0" y="0" width="77" height="77">
<path d="M77 0H0V77H77V0Z" fill="white"/>
</mask>
<g mask="url(#mask42_312_1839)">
<path d="M41.4833 49.3344C42.0101 48.771 42.6506 48.3032 43.3917 48.0677C44.1402 49.9982 45.0866 51.8665 46.3547 53.5121C44.9547 53.8135 43.6912 54.569 42.6603 55.5489C42.2647 53.4785 41.8708 51.4069 41.4833 49.3344Z" fill="#C70000"/>
</g>
<mask id="mask43_312_1839" style="mask-type:luminance" maskUnits="userSpaceOnUse" x="0" y="0" width="77" height="77">
<path d="M77 0H0V77H77V0Z" fill="white"/>
</mask>
<g mask="url(#mask43_312_1839)">
<path d="M35.0122 48.2236C35.5224 48.405 35.9971 48.6776 36.3956 49.0462C35.9953 51.1311 35.6159 53.2221 35.2368 55.312C34.3095 54.4887 33.177 53.9081 31.965 53.6434C33.2704 52.0186 34.2335 50.1485 35.0122 48.2236Z" fill="#C70000"/>
</g>
<mask id="mask44_312_1839" style="mask-type:luminance" maskUnits="userSpaceOnUse" x="0" y="0" width="77" height="77">
<path d="M77 0H0V77H77V0Z" fill="white"/>
</mask>
<g mask="url(#mask44_312_1839)">
<path d="M37.0498 49.5294C37.78 49.1914 38.5846 48.9571 39.397 49.0623C39.88 49.109 40.3344 49.294 40.764 49.5102C41.1524 51.5863 41.5455 53.6622 41.9449 55.7376C40.6869 55.1936 39.2824 54.9767 37.9237 55.1879C37.2284 55.2879 36.555 55.4984 35.9044 55.7575C36.2792 53.6807 36.6705 51.6066 37.0498 49.5294Z" fill="#C70000"/>
</g>
<mask id="mask45_312_1839" style="mask-type:luminance" maskUnits="userSpaceOnUse" x="0" y="0" width="77" height="77">
<path d="M77 0H0V77H77V0Z" fill="white"/>
</mask>
<g mask="url(#mask45_312_1839)">
<path d="M42.8337 56.4418C43.9028 55.287 45.3065 54.3932 46.8831 54.1626C47.6025 54.9521 48.3802 55.701 49.2864 56.2753C49.488 56.4053 49.7153 56.5199 49.8418 56.7351C50.7168 58.1307 51.6016 59.522 52.4804 60.9156C50.8569 60.7389 49.1702 60.9377 47.6906 61.6547C46.3932 62.263 45.2864 63.2189 44.3739 64.3123C43.8544 61.6904 43.3413 59.0667 42.8337 56.4418Z" fill="#C70000"/>
</g>
<mask id="mask46_312_1839" style="mask-type:luminance" maskUnits="userSpaceOnUse" x="0" y="0" width="77" height="77">
<path d="M77 0H0V77H77V0Z" fill="white"/>
</mask>
<g mask="url(#mask46_312_1839)">
<path d="M28.0336 56.8421C29.3263 56.245 30.4579 55.3357 31.4125 54.2863C32.8024 54.4979 34.1014 55.1818 35.0772 56.1902C34.5953 58.8368 34.1253 61.4864 33.6582 64.1357C32.7226 63.0451 31.5573 62.1345 30.2168 61.599C28.6639 60.9661 26.9387 60.858 25.2897 61.0898C26.0711 59.7867 26.8683 58.4926 27.6505 57.1903C27.733 57.0307 27.8651 56.9071 28.0336 56.8421Z" fill="#C70000"/>
</g>
<mask id="mask47_312_1839" style="mask-type:luminance" maskUnits="userSpaceOnUse" x="0" y="0" width="77" height="77">
<path d="M77 0H0V77H77V0Z" fill="white"/>
</mask>
<g mask="url(#mask47_312_1839)">
<path d="M11.7784 59.4624C13.6089 58.0438 15.4358 56.6207 17.2756 55.2139C17.5807 55.278 17.905 55.3247 18.1607 55.5198C19.2116 56.2608 20.3705 56.8579 21.6028 57.2324C21.928 57.3157 22.1397 57.5914 22.356 57.8268C23.2694 58.8369 23.8841 60.0906 24.2388 61.4002C22.999 63.4249 21.7778 65.4617 20.5564 67.4986C17.2023 65.3428 14.2376 62.5972 11.7784 59.4624Z" fill="#C70000"/>
</g>
<mask id="mask48_312_1839" style="mask-type:luminance" maskUnits="userSpaceOnUse" x="0" y="0" width="77" height="77">
<path d="M77 0H0V77H77V0Z" fill="white"/>
</mask>
<g mask="url(#mask48_312_1839)">
<path d="M56.2678 57.4895C57.8137 57.137 59.2455 56.3951 60.5318 55.483C62.4071 56.8694 64.2863 58.2505 66.1653 59.6325C63.7401 62.692 60.7836 65.3168 57.5074 67.4349C56.2613 65.487 55.0227 63.5345 53.7841 61.5821C54.188 60.1653 54.8247 58.7871 55.8251 57.69C55.9326 57.5556 56.1131 57.5353 56.2678 57.4895Z" fill="#C70000"/>
</g>
<mask id="mask49_312_1839" style="mask-type:luminance" maskUnits="userSpaceOnUse" x="0" y="0" width="77" height="77">
<path d="M77 0H0V77H77V0Z" fill="white"/>
</mask>
<g mask="url(#mask49_312_1839)">
<path d="M35.7452 56.6426C36.8493 56.1232 38.0641 55.7787 39.2944 55.8486C40.285 55.8879 41.2449 56.1983 42.1235 56.6462C42.6322 59.3047 43.1581 61.9605 43.6813 64.6172C42.0962 63.6666 40.2354 63.1097 38.3781 63.2672C36.9526 63.3662 35.5828 63.8599 34.3368 64.5413C34.7969 61.9065 35.2687 59.2745 35.7452 56.6426Z" fill="#C70000"/>
</g>
<mask id="mask50_312_1839" style="mask-type:luminance" maskUnits="userSpaceOnUse" x="0" y="0" width="77" height="77">
<path d="M77 0H0V77H77V0Z" fill="white"/>
</mask>
<g mask="url(#mask50_312_1839)">
<path d="M50.9999 57.1754C52.2191 57.6427 53.5366 57.8265 54.8385 57.7266C54.1396 58.6352 53.6293 59.6755 53.261 60.7571C52.507 59.5628 51.7455 58.3742 50.9999 57.1754Z" fill="#C70000"/>
</g>
<mask id="mask51_312_1839" style="mask-type:luminance" maskUnits="userSpaceOnUse" x="0" y="0" width="77" height="77">
<path d="M77 0H0V77H77V0Z" fill="white"/>
</mask>
<g mask="url(#mask51_312_1839)">
<path d="M23.1144 57.5767C24.3045 57.7324 25.525 57.6702 26.6848 57.3532C26.0444 58.4146 25.3939 59.4705 24.7589 60.5358C24.3731 59.4696 23.8446 58.4493 23.1144 57.5767Z" fill="#C70000"/>
</g>
<mask id="mask52_312_1839" style="mask-type:luminance" maskUnits="userSpaceOnUse" x="0" y="0" width="77" height="77">
<path d="M77 0H0V77H77V0Z" fill="white"/>
</mask>
<g mask="url(#mask52_312_1839)">
<path d="M48.4446 62.1227C49.8858 61.5372 51.4952 61.4661 53.0153 61.7452C54.2979 63.7956 55.6063 65.8315 56.9039 67.8738C53.5084 69.871 49.7747 71.2818 45.9168 72.0727C45.4641 69.8073 45.0126 67.5414 44.5618 65.2745C45.5738 63.9341 46.8621 62.7435 48.4446 62.1227Z" fill="#C70000"/>
</g>
<mask id="mask53_312_1839" style="mask-type:luminance" maskUnits="userSpaceOnUse" x="0" y="0" width="77" height="77">
<path d="M77 0H0V77H77V0Z" fill="white"/>
</mask>
<g mask="url(#mask53_312_1839)">
<path d="M24.7846 61.9241C26.3696 61.6152 28.0472 61.6017 29.5845 62.143C31.0826 62.6475 32.3543 63.6778 33.3254 64.9078C33.3867 65.0059 33.504 65.1056 33.461 65.2365C33.0588 67.5509 32.6484 69.8641 32.2488 72.1792C28.3568 71.3759 24.6143 69.8897 21.2014 67.8593C22.3951 65.8801 23.5844 63.8985 24.7846 61.9241Z" fill="#C70000"/>
</g>
<mask id="mask54_312_1839" style="mask-type:luminance" maskUnits="userSpaceOnUse" x="0" y="0" width="77" height="77">
<path d="M77 0H0V77H77V0Z" fill="white"/>
</mask>
<g mask="url(#mask54_312_1839)">
<path d="M34.1601 65.5157C35.5637 64.6338 37.1698 64.0009 38.8446 63.9707C40.4268 63.9303 41.9817 64.4524 43.3182 65.2758C43.485 65.383 43.6655 65.4746 43.8662 65.4965C44.2877 67.7721 44.7685 70.0368 45.2139 72.309C41.1751 73.0362 37.0165 73.0172 32.9727 72.344C33.3611 70.0663 33.7652 67.7915 34.1601 65.5157Z" fill="#C70000"/>
</g>
<mask id="mask55_312_1839" style="mask-type:luminance" maskUnits="userSpaceOnUse" x="0" y="0" width="77" height="77">
<path d="M77 0H0V77H77V0Z" fill="white"/>
</mask>
<g mask="url(#mask55_312_1839)">
<path d="M29.7165 3.12581C36.1812 1.44626 43.1048 1.55976 49.5063 3.47009C55.4397 5.22849 60.8836 8.56102 65.1906 12.9971C69.4179 17.3207 72.5549 22.7056 74.1842 28.5302C76.2878 36.016 75.957 44.174 73.2001 51.4489C71.3438 56.3753 68.3864 60.8781 64.6254 64.5617C60.5235 68.6222 55.4397 71.6874 49.9251 73.4009C46.6433 74.432 43.2137 74.9625 39.7773 75.0539H38.1849C35.4381 74.9724 32.6942 74.629 30.029 73.9523C23.984 72.4502 18.3621 69.331 13.8536 65.0396C9.32755 60.761 5.90286 55.3163 4.0713 49.3601C2.096 42.9788 1.91651 36.058 3.52708 29.5768C4.39938 26.0749 5.80116 22.7056 7.67099 19.6186C10.7056 14.6063 14.9548 10.335 19.9536 7.27621C22.9798 5.42263 26.2809 4.01785 29.7165 3.12581ZM26.9523 6.32922C27.821 8.48415 28.6831 10.6418 29.5498 12.7976C30.9471 13.37 32.477 13.7015 33.9896 13.5092C35.8569 13.284 37.5582 12.303 38.9106 11.0292C38.9059 8.7187 38.8546 6.40895 38.8391 4.09849C34.7904 4.18272 30.7473 4.90612 26.9523 6.32922ZM39.5722 4.1213C39.5914 6.36603 39.639 8.61059 39.6399 10.8551C39.6517 11.0319 39.6288 11.2445 39.793 11.3607C40.9199 12.3772 42.2904 13.1647 43.794 13.4506C45.4991 13.7857 47.2664 13.4607 48.8643 12.8296C49.6714 10.6655 50.4832 8.50337 51.2904 6.33945C47.542 4.96197 43.5666 4.1899 39.5722 4.1213ZM16.0927 12.8068C16.7607 13.5393 17.445 14.2565 18.1203 14.9818C18.7892 14.2464 19.4963 13.5485 20.2093 12.8571C19.7218 13.9249 19.3497 15.077 19.3846 16.2639C19.4232 16.4004 19.5368 16.4974 19.6255 16.6028C20.0772 17.0725 20.5144 17.5561 20.9641 18.0277C22.43 18.0058 23.9252 17.7503 25.2144 17.0204C26.8396 16.1393 28.0161 14.6228 28.8288 12.9927C27.9703 10.8469 27.1072 8.70308 26.246 6.5582C22.5455 8.05834 19.0951 10.1748 16.0927 12.8068ZM51.9708 6.62878C51.1638 8.80275 50.3502 10.9742 49.5347 13.1457C50.2061 14.6036 51.2123 15.9405 52.5664 16.8263C54.0489 17.797 55.8593 18.1944 57.6146 18.1468C58.1553 17.6477 58.5958 17.0443 59.1109 16.5175C59.1668 15.2812 58.8094 14.0715 58.2898 12.9616C59.0238 13.6291 59.7028 14.3543 60.3834 15.0752C60.9908 14.4075 61.5809 13.7254 62.1847 13.055C62.0847 12.9185 61.9921 12.7737 61.8705 12.6565C58.9221 10.1362 55.5761 8.0684 51.9708 6.62878ZM35.1643 14.0239C33.4391 14.4854 31.5928 14.3197 29.9208 13.7308C30.9205 16.2419 31.92 18.754 32.9132 21.2679C34.2361 21.6379 35.6773 21.6341 36.97 21.1433C37.6883 20.8658 38.3939 20.5077 38.9875 20.0151C38.9857 17.3501 38.9482 14.6814 38.9307 12.0146C37.8258 12.9241 36.5567 13.6613 35.1643 14.0239ZM39.6636 12.2306C39.6911 14.924 39.7159 17.6174 39.7277 20.3107C40.2986 20.7202 40.9288 21.0508 41.6005 21.2597C42.918 21.6938 44.3517 21.6103 45.6766 21.255C46.6287 18.7558 47.5759 16.2557 48.5142 13.7509C47.1602 14.1923 45.718 14.4258 44.2951 14.262C42.5863 14.0824 40.9784 13.3186 39.6636 12.2306ZM8.37835 22.7753C9.51908 23.3358 10.667 23.8834 11.8122 24.4347C13.2636 21.1862 15.2637 18.1962 17.6218 15.5368C16.9319 14.8031 16.244 14.0668 15.5576 13.3296C12.6662 16.0533 10.2117 19.2504 8.37835 22.7753ZM60.8864 15.6347C63.197 18.2641 65.1861 21.1945 66.619 24.3934C67.6314 23.8852 68.6392 23.366 69.6443 22.843C67.8431 19.4169 65.5332 16.2401 62.7232 13.5695C62.1103 14.2574 61.4993 14.9461 60.8864 15.6347ZM26.3066 17.2016C24.9412 18.1761 23.2739 18.6495 21.612 18.7411C23.4708 20.7019 25.2859 22.7038 27.1329 24.6746C27.7211 24.5875 28.3065 24.4584 28.8572 24.2305C30.2489 23.6865 31.3548 22.5995 32.1518 21.3585C31.1688 18.8711 30.1801 16.3857 29.1924 13.9001C28.4705 15.1814 27.5195 16.3555 26.3066 17.2016ZM49.1728 14.1099C48.2229 16.6339 47.2708 19.1579 46.3107 21.6781C46.7333 22.3392 47.2489 22.9437 47.8645 23.4328C48.9326 24.2873 50.2787 24.7204 51.6255 24.8679C53.4111 22.876 55.2051 20.8924 56.9808 18.8903C55.4387 18.8126 53.8867 18.4582 52.5454 17.6732C51.094 16.8528 49.9783 15.5522 49.1728 14.1099ZM19.5468 17.6193C19.697 18.178 19.8931 18.7283 20.1818 19.2321C20.2166 18.9546 20.3018 18.6698 20.2596 18.3894C20.0553 18.1046 19.7896 17.8702 19.5468 17.6193ZM57.7934 19.1001C57.8337 19.3905 57.8804 19.6807 57.9345 19.9693C58.3678 19.3228 58.6995 18.6093 58.9074 17.8593C58.531 18.2677 58.1671 18.689 57.7934 19.1001ZM20.7598 20.1881C21.4928 21.1699 22.3768 22.0325 23.3425 22.7844C23.6816 23.0509 24.0508 23.2835 24.3458 23.6012C24.9881 24.279 25.6238 24.9631 26.2552 25.6509C26.3084 25.4347 26.3605 25.2177 26.4127 25.0015C24.5977 23.0353 22.7791 21.0718 20.9549 19.1139C20.8936 19.4727 20.8295 19.831 20.7598 20.1881ZM51.7813 25.7993C51.807 25.8826 51.8564 26.0493 51.8812 26.1326C52.4612 25.5071 53.0336 24.8753 53.6211 24.256C53.9539 23.9144 54.2559 23.5371 54.6472 23.2569C55.6496 22.5307 56.586 21.702 57.3739 20.7448C57.2952 20.438 57.2228 20.1304 57.1504 19.8228C55.3627 21.8164 53.5807 23.8157 51.7813 25.7993ZM37.0645 21.8915C35.8404 22.3119 34.5055 22.3631 33.2411 22.1086C34.0218 24.0813 34.7924 26.0584 35.5545 28.0393C36.0017 28.1473 36.4653 28.2004 36.9253 28.1528C37.6966 28.086 38.3838 27.6995 39.0215 27.2892C39.0391 25.1728 38.9803 23.0581 39.0004 20.9418C38.391 21.3265 37.7507 21.6672 37.0645 21.8915ZM39.7304 21.2128C39.7398 23.3403 39.7682 25.4659 39.7543 27.5932C40.7264 28.2527 41.9736 28.326 43.082 28.0127C43.8435 26.0419 44.6047 24.071 45.3568 22.0966C43.4557 22.5161 41.3917 22.2568 39.7304 21.2128ZM27.7285 25.3294C29.1714 26.8946 30.6098 28.4651 32.0436 30.0386C32.4569 29.9432 32.8737 29.8324 33.2449 29.619C33.8879 29.2683 34.3736 28.7004 34.7886 28.1079C34.0245 26.1353 33.2541 24.1653 32.4816 22.1964C31.3693 23.7945 29.658 24.9832 27.7285 25.3294ZM45.9846 22.5307C45.256 24.4412 44.5249 26.3515 43.7793 28.2554C43.7545 28.347 43.6866 28.4551 43.7628 28.5429C44.3956 29.5768 45.5868 30.1127 46.7595 30.2354C48.166 28.6648 49.6154 27.1308 50.9961 25.5374C50.3191 25.4009 49.642 25.2388 49.0079 24.9584C47.7976 24.4512 46.7577 23.5858 45.9846 22.5307ZM4.77686 34.6715C6.27944 34.7942 7.78274 34.9115 9.28533 35.0361C9.41649 31.631 10.2088 28.2627 11.5174 25.1206C10.3619 24.5565 9.20304 23.9997 8.04219 23.4446C6.35634 26.9779 5.23484 30.783 4.77686 34.6715ZM66.9241 25.0701C68.302 28.3434 69.1101 31.8582 69.2319 35.4096C70.5568 35.2814 71.8797 35.1304 73.2035 34.9966C72.7648 31.0276 71.679 27.1272 69.9621 23.5188C68.9481 24.0326 67.9428 24.5656 66.9241 25.0701ZM27.0211 25.6592C26.9588 25.8698 26.8984 26.0821 26.8352 26.2937C28.2901 27.9064 29.6908 29.5677 31.0322 31.2758C31.1375 30.9653 31.2292 30.6511 31.3098 30.3324C29.8779 28.7775 28.454 27.2132 27.0211 25.6592ZM46.9108 31.1712C46.9988 31.3618 47.0885 31.5523 47.1792 31.7427C48.4958 30.0366 49.8755 28.378 51.3168 26.7755C51.2802 26.6618 51.2444 26.5492 51.2085 26.4366C49.783 28.0219 48.3456 29.5951 46.9108 31.1712ZM16.8769 26.8039C15.8014 29.6584 15.0456 32.643 14.7459 35.6815C14.4674 38.4582 14.5957 41.291 15.2818 44.0026C15.8023 46.0249 16.6277 47.99 17.8746 49.6751C18.8734 51.0251 20.1608 52.1993 21.7045 52.8887C23.0155 53.4823 24.5199 53.6673 25.9244 53.3284C27.2969 53.0161 28.5181 52.233 29.5268 51.2695C30.6483 50.1751 31.5168 48.8473 32.2096 47.4488C33.0607 45.7089 33.6581 43.8554 34.0951 41.9714C32.1279 38.2131 29.186 35.0408 25.8723 32.4261C23.0897 30.2327 20.0461 28.3818 16.8769 26.8039ZM50.6424 34.1943C48.1485 36.4491 45.9672 39.0784 44.4004 42.0611C44.9226 44.2975 45.661 46.501 46.8008 48.5038C47.5283 49.7676 48.4232 50.9552 49.5586 51.8821C50.7644 52.8797 52.2788 53.5636 53.861 53.5839C55.2766 53.6331 56.6746 53.1633 57.8583 52.4053C59.2951 51.4886 60.4421 50.1735 61.3207 48.7247C63.0432 45.849 63.7872 42.4761 63.8787 39.15C63.9768 34.9603 63.0861 30.7945 61.6166 26.8849C57.6879 28.8744 53.9133 31.2309 50.6424 34.1943ZM35.8724 28.869C36.609 30.8288 37.4034 32.7721 38.0036 34.7795C38.3076 34.8619 38.6145 34.8042 38.8758 34.6302C39.0141 32.4837 38.9949 30.3315 39.0022 28.1821C38.0732 28.759 36.9599 29.0228 35.8724 28.869ZM39.759 28.456C39.694 30.564 39.7709 32.6788 39.5932 34.7841C39.8194 34.8299 40.0503 34.8455 40.282 34.8382C41.201 32.8838 41.9504 30.8553 42.753 28.8516C41.7426 29.0127 40.6778 28.9321 39.759 28.456ZM32.609 30.6704C34.0117 32.2427 35.4703 33.7723 36.7538 35.4454C36.9545 35.3382 37.178 35.2329 37.288 35.0214C37.2661 34.7951 37.1798 34.5817 37.1121 34.3675C36.4881 32.5459 35.8073 30.7436 35.1011 28.9524C34.4708 29.7627 33.6132 30.4076 32.609 30.6704ZM43.3724 29.2893C42.6019 31.2363 41.8725 33.2053 40.9702 35.0964C41.136 35.3518 41.3908 35.5131 41.6865 35.5799C41.9842 35.3026 42.2837 35.026 42.5635 34.7283C43.7662 33.4681 44.9703 32.2071 46.1229 30.9002C45.0674 30.6603 44.054 30.1494 43.3724 29.2893ZM31.9071 30.9983C31.8018 31.3196 31.6818 31.6366 31.5407 31.9451C32.3214 32.9882 33.0844 34.0451 33.7844 35.144C33.8723 35.2988 34.0135 35.4087 34.172 35.4865C34.7401 35.7832 35.308 36.0846 35.8449 36.4371C35.977 36.2641 36.084 36.0736 36.1638 35.8703C34.8197 34.1834 33.3428 32.6073 31.9071 30.9983ZM45.0922 33.1385C44.0806 34.1943 43.1242 35.3107 42.0092 36.2613C42.1107 36.3356 42.2146 36.4105 42.3172 36.4856C42.9841 36.2311 43.6282 35.9226 44.2757 35.6257C44.4398 35.5553 44.5882 35.4481 44.6771 35.2897C45.3139 34.2933 45.9964 33.3271 46.6991 32.3774C46.5836 32.1741 46.4701 31.9699 46.3601 31.7648C45.9397 32.2244 45.5155 32.6814 45.0922 33.1385ZM4.72009 35.4215C4.42776 39.4814 4.78962 43.5941 5.8689 47.5221C7.59679 47.0035 9.32665 46.4907 11.0565 45.9769C9.80116 42.734 9.19837 39.2459 9.25712 35.7703C7.74447 35.6569 6.23453 35.5086 4.72009 35.4215ZM37.8698 35.5122C37.6076 35.8373 37.2558 36.0774 36.8464 36.1715C36.7098 36.5461 36.4872 36.8868 36.1511 37.1111C36.1437 37.4473 36.0695 37.7779 35.9229 38.0811C36.0384 38.4611 36.0447 38.8612 35.9477 39.2477C36.1236 39.3867 36.2975 39.6206 36.5532 39.5638C36.9123 39.4785 37.1387 39.1599 37.3861 38.9117C37.2954 39.5234 37.1899 40.1333 37.0819 40.7423C37.1698 40.8714 37.2567 41.0022 37.343 41.1353C37.748 41.1654 38.1346 41.301 38.4598 41.5474C38.8612 41.4614 39.2761 41.4723 39.6611 41.6223C39.9744 41.3113 40.3602 41.0812 40.8007 41.0079C40.9594 40.7917 41.1389 40.5931 41.3369 40.4129C41.2636 39.9411 41.1811 39.4722 41.1085 39.0006C41.322 39.2562 41.564 39.4925 41.8662 39.6427C41.8809 39.1719 41.8912 38.6791 42.1731 38.2781C41.9176 37.9173 41.7875 37.4906 41.8022 37.0483C41.5054 36.8311 41.2781 36.538 41.1362 36.2002C40.841 36.0463 40.5828 35.8338 40.3839 35.5664C39.9541 35.6176 39.5152 35.5691 39.1361 35.3493C38.7439 35.5535 38.3003 35.6074 37.8698 35.5122ZM69.2339 36.1542C69.2745 39.7066 68.5927 43.2654 67.2466 46.5532C68.8554 46.9891 70.4643 47.4287 72.0749 47.859C73.1331 43.9209 73.5207 39.8018 73.1881 35.7374C71.8708 35.8768 70.5523 36.014 69.2339 36.1542ZM34.6988 36.6056C34.9059 36.9263 35.0076 37.353 35.3657 37.5481C35.386 37.3767 35.4015 37.2065 35.4153 37.0351C35.1789 36.8877 34.9397 36.7449 34.6988 36.6056ZM42.5313 37.179C42.5646 37.4216 42.6551 37.6488 42.7861 37.8548C42.9135 37.8503 43.0428 37.8456 43.171 37.8412C43.3788 37.4364 43.6072 37.0416 43.8341 36.6478C43.4054 36.8365 42.9785 37.0333 42.5313 37.179ZM42.6889 38.5335C42.711 38.6003 42.7329 38.668 42.7568 38.7368C42.7 38.8878 42.646 39.0405 42.5964 39.1946C42.711 39.004 42.8098 38.8045 42.9023 38.6021C42.8483 38.5856 42.7421 38.5507 42.6889 38.5335ZM41.6234 41.9283C41.5868 41.7204 41.5455 41.5153 41.497 41.312C41.3385 41.5217 41.5236 41.7387 41.6234 41.9283ZM40.2885 42.2617C40.5451 44.3351 40.9565 46.3855 41.3191 48.4424C41.8477 47.9716 42.4625 47.6015 43.1332 47.3727C42.8786 46.6576 42.6422 45.9367 42.4361 45.2066C42.3409 44.8742 42.2755 44.5261 42.0917 44.2298C41.6021 43.419 41.1249 42.6006 40.6953 41.7568C40.5395 41.9027 40.2134 41.9933 40.2885 42.2617ZM36.6027 43.0116C36.2601 44.5466 35.8055 46.0538 35.2752 47.5331C35.7304 47.6969 36.1629 47.9194 36.5551 48.2035C36.97 46.1362 37.3081 44.0483 37.8762 42.0153C37.6791 41.9576 37.4795 41.8734 37.2706 41.9027C36.9756 42.2177 36.6868 42.5776 36.6027 43.0116ZM39.3979 42.3213C39.1093 42.2074 38.5532 42.1133 38.4898 42.5346C37.9823 44.552 37.6242 46.6035 37.2228 48.644C38.2974 48.2283 39.5179 48.1816 40.5981 48.6036C40.2233 46.4532 39.7745 44.3114 39.5434 42.1388C39.5069 42.1837 39.4338 42.2755 39.3979 42.3213ZM5.99269 48.2594C7.16163 52.0637 8.92437 55.6918 11.2709 58.9112C13.1481 57.4585 15.0263 56.007 16.9035 54.5544C14.4464 52.4216 12.6047 49.6469 11.3377 46.6649C9.55573 47.196 7.77179 47.7208 5.99269 48.2594ZM61.1484 55.016C62.9588 56.3495 64.7666 57.6866 66.5814 59.0127C68.8848 55.8448 70.6916 52.3117 71.8522 48.5699C70.2196 48.123 68.5833 47.6861 66.9517 47.2375C65.6139 50.2072 63.6918 52.9554 61.1484 55.016ZM41.4833 49.3344C41.8709 51.4069 42.2649 53.4785 42.6605 55.549C43.6913 54.5692 44.9549 53.8136 46.3549 53.5123C45.0868 51.8667 44.1403 49.9985 43.3918 48.0681C42.6504 48.3032 42.0101 48.7712 41.4833 49.3344ZM35.0121 48.2234C34.2334 50.1487 33.2704 52.0188 31.9649 53.6434C33.177 53.9081 34.3094 54.4887 35.2367 55.312C35.616 53.2219 35.9953 51.1314 36.3956 49.046C35.9971 48.6778 35.5226 48.4048 35.0121 48.2234ZM37.0498 49.5294C36.6705 51.6062 36.2792 53.6809 35.9045 55.7579C36.5551 55.4989 37.2285 55.2881 37.9239 55.1882C39.2825 54.9767 40.687 55.1936 41.9451 55.7376C41.5455 53.6626 41.1525 51.5865 40.7641 49.5102C40.3343 49.2942 39.8799 49.1094 39.3972 49.0625C38.5845 48.9571 37.7799 49.1914 37.0498 49.5294ZM42.8337 56.442C43.3411 59.0664 43.8544 61.6904 44.3737 64.3121C45.2862 63.2187 46.393 62.2626 47.6904 61.6545C49.17 60.9374 50.8567 60.7387 52.4802 60.9155C51.6014 59.5216 50.7166 58.1305 49.8416 56.7349C49.7151 56.5197 49.488 56.4053 49.2862 56.2751C48.3801 55.7011 47.6023 54.9517 46.8831 54.1624C45.3065 54.3934 43.9029 55.287 42.8337 56.442ZM28.0336 56.8421C27.8648 56.9071 27.733 57.0307 27.6505 57.1902C26.8682 58.4924 26.071 59.7865 25.2895 61.0897C26.9386 60.8578 28.6638 60.9661 30.2167 61.5988C31.5572 62.1344 32.7226 63.0449 33.6581 64.1356C34.1253 61.4862 34.5953 58.8368 35.0772 56.19C34.1014 55.1818 32.8022 54.4977 31.4124 54.2861C30.4578 55.3357 29.3263 56.245 28.0336 56.8421ZM11.7784 59.4622C14.2374 62.597 17.2023 65.3426 20.5564 67.4984C21.7778 65.4617 22.999 63.4249 24.2386 61.4C23.8841 60.0906 23.2692 58.837 22.3558 57.8268C22.1397 57.5912 21.928 57.3155 21.6026 57.2322C20.3704 56.8577 19.2114 56.2606 18.1607 55.5198C17.905 55.3245 17.5807 55.278 17.2754 55.2141C15.4358 56.6205 13.6089 58.0438 11.7784 59.4622ZM56.2678 57.4897C56.1131 57.5353 55.9326 57.5555 55.8253 57.69C54.8249 58.7871 54.1881 60.1653 53.7841 61.5823C55.0229 63.5346 56.2615 65.4872 57.5077 67.4352C60.7838 65.3171 63.7403 62.6923 66.1657 59.6326C64.2867 58.2507 62.4075 56.8696 60.5321 55.4831C59.2455 56.3953 57.8135 57.137 56.2678 57.4897ZM35.7452 56.6424C35.2687 59.2745 34.7969 61.9066 34.3369 64.5413C35.5829 63.8599 36.9526 63.3662 38.3782 63.2672C40.2353 63.1099 42.0962 63.6666 43.6812 64.6172C43.158 61.9605 42.6321 59.3047 42.1237 56.6462C41.2449 56.1983 40.2849 55.8879 39.2944 55.8484C38.064 55.7789 36.8491 56.1232 35.7452 56.6424ZM50.9997 57.1756C51.7455 58.3742 52.5072 59.5629 53.2609 60.7571C53.6294 59.6755 54.1398 58.6352 54.8386 57.7266C53.5367 57.8266 52.2191 57.6426 50.9997 57.1756ZM23.1144 57.5766C23.8445 58.4493 24.3733 59.4696 24.7591 60.5358C25.3938 59.4704 26.0444 58.4144 26.6849 57.3532C25.525 57.67 24.3045 57.7323 23.1144 57.5766ZM48.4445 62.1227C46.8623 62.7435 45.574 63.9341 44.5616 65.2747C45.0126 67.5414 45.4641 69.8073 45.9167 72.0729C49.7749 71.2818 53.5085 69.8712 56.9037 67.874C55.6065 65.8316 54.2981 63.7958 53.0154 61.7454C51.4954 61.4661 49.8856 61.5374 48.4445 62.1227ZM24.7846 61.9239C23.5844 63.8983 22.3953 65.8801 21.2014 67.8592C24.6143 69.8897 28.357 71.3759 32.249 72.1794C32.6484 69.8639 33.0589 67.5507 33.461 65.2365C33.5042 65.1055 33.3868 65.0057 33.3254 64.9078C32.3543 63.678 31.0826 62.6476 29.5846 62.1428C28.0472 61.6015 26.3696 61.6153 24.7846 61.9239ZM34.1601 65.5157C33.7652 67.7915 33.3611 70.0663 32.9727 72.344C37.0167 73.0172 41.1754 73.0362 45.214 72.309C44.7686 70.037 44.2878 67.7721 43.8663 65.4965C43.6656 65.4746 43.485 65.3828 43.3183 65.2758C41.9817 64.4524 40.4267 63.9305 38.8447 63.9707C37.1698 64.0009 35.5637 64.6338 34.1601 65.5157Z" fill="black"/>
</g>
</g>
<defs>
<clipPath id="clip0_312_1839">
<rect width="77" height="77" fill="white"/>
</clipPath>
</defs>
</svg>
