<svg width="49" height="32" viewBox="0 0 49 32" fill="none" xmlns="http://www.w3.org/2000/svg">
<g clip-path="url(#clip0_17_203)">
<path d="M44.499 0.700195H4.50101C2.67792 0.700195 1.20001 2.1781 1.20001 4.0012V27.9992C1.20001 29.8223 2.67792 31.3002 4.50101 31.3002H44.499C46.3221 31.3002 47.8 29.8223 47.8 27.9992V4.0012C47.8 2.1781 46.3221 0.700195 44.499 0.700195Z" fill="#FFFAE7"/>
<path d="M44.499 1.4C45.1886 1.40079 45.8497 1.67508 46.3373 2.16269C46.8249 2.6503 47.0992 3.31142 47.1 4.001V28C47.0992 28.6896 46.8249 29.3507 46.3373 29.8383C45.8497 30.3259 45.1886 30.6002 44.499 30.601H4.5C3.81042 30.5999 3.14941 30.3254 2.66199 29.8376C2.17456 29.3498 1.90053 28.6886 1.9 27.999V4C1.90106 3.31059 2.17546 2.64973 2.66305 2.16234C3.15063 1.67494 3.81159 1.40079 4.501 1.4H44.499ZM44.499 1.25011e-07H4.5C3.97463 1.08594e-07 3.4544 0.103496 2.96904 0.304578C2.48367 0.505659 2.04267 0.800386 1.67122 1.17193C1.29977 1.54347 1.00515 1.98454 0.804195 2.46996C0.603235 2.95538 0.499869 3.47563 0.5 4.001L0.5 28C0.5 28.5254 0.603496 29.0456 0.804578 29.531C1.00566 30.0163 1.30039 30.4573 1.67193 30.8288C2.04347 31.2002 2.48454 31.4948 2.96996 31.6958C3.45538 31.8968 3.97563 32.0001 4.501 32H44.5C45.0254 32 45.5456 31.8965 46.031 31.6954C46.5163 31.4943 46.9573 31.1996 47.3288 30.8281C47.7002 30.4565 47.9948 30.0155 48.1958 29.53C48.3968 29.0446 48.5001 28.5244 48.5 27.999V4C48.5 3.47463 48.3965 2.9544 48.1954 2.46904C47.9943 1.98367 47.6996 1.54267 47.3281 1.17122C46.9565 0.799772 46.5155 0.505155 46.03 0.304195C45.5446 0.103235 45.0244 -0.000131218 44.499 1.25011e-07Z" fill="#4B0082"/>
<path d="M24.5 26C30.0228 26 34.5 21.5228 34.5 16C34.5 10.4772 30.0228 6 24.5 6C18.9772 6 14.5 10.4772 14.5 16C14.5 21.5228 18.9772 26 24.5 26Z" fill="#6A0DAD" stroke="black" stroke-width="2"/>
<path d="M24.5 10L18.5 16L24.5 22L30.5 16L24.5 10Z" stroke="#00FFFF" stroke-width="1.5"/>
<path d="M24.5 19C26.1569 19 27.5 17.6569 27.5 16C27.5 14.3431 26.1569 13 24.5 13C22.8431 13 21.5 14.3431 21.5 16C21.5 17.6569 22.8431 19 24.5 19Z" stroke="#00FFFF" stroke-width="1.5"/>
<path d="M16.5 16C16.5 12 20.5 8 24.5 8C28.5 8 32.5 12 32.5 16C32.5 20 28.5 24 24.5 24C20.5 24 16.5 20 16.5 16Z" fill="#FFFAE7" fill-opacity="0.2"/>
</g>
<defs>
<clipPath id="clip0_17_203">
<rect width="48" height="32" fill="white" transform="translate(0.5)"/>
</clipPath>
</defs>
</svg>
